<?xml version="1.0" encoding="UTF-8"?><svg xmlns="http://www.w3.org/2000/svg" xmlns:xlink="http://www.w3.org/1999/xlink" contentStyleType="text/css" height="742px" preserveAspectRatio="none" style="width:1414px;height:742px;background:#FFFFFF;" version="1.1" viewBox="0 0 1414 742" width="1414px" zoomAndPan="magnify">
    <defs/>
    <g>
        <!--cluster java-->
        <g id="cluster_java">
            <path d="M1242,440 L1272,440 A3.75,3.75 0 0 1 1274.5,442.5 L1281.5,463.6094 L1405,463.6094 A2.5,2.5 0 0 1 1407.5,466.1094 L1407.5,605.5 A2.5,2.5 0 0 1 1405,608 L1242,608 A2.5,2.5 0 0 1 1239.5,605.5 L1239.5,442.5 A2.5,2.5 0 0 1 1242,440 " fill="none" style="stroke:#000000;stroke-width:1.5;"/>
            <line style="stroke:#000000;stroke-width:1.5;" x1="1239.5" x2="1281.5" y1="463.6094" y2="463.6094"/>
            <text fill="#000000" font-family="sans-serif" font-size="14" font-weight="bold" lengthAdjust="spacing" textLength="29" x="1243.5" y="456.5332">java</text>
        </g>
        <!--cluster lang-->
        <g id="cluster_lang">
            <path d="M1266,484 L1297,484 A3.75,3.75 0 0 1 1299.5,486.5 L1306.5,507.6094 L1381,507.6094 A2.5,2.5 0 0 1 1383.5,510.1094 L1383.5,581.5 A2.5,2.5 0 0 1 1381,584 L1266,584 A2.5,2.5 0 0 1 1263.5,581.5 L1263.5,486.5 A2.5,2.5 0 0 1 1266,484 " fill="none" style="stroke:#000000;stroke-width:1.5;"/>
            <line style="stroke:#000000;stroke-width:1.5;" x1="1263.5" x2="1306.5" y1="507.6094" y2="507.6094"/>
            <text fill="#000000" font-family="sans-serif" font-size="14" font-weight="bold" lengthAdjust="spacing" textLength="30" x="1267.5" y="500.5332">lang</text>
        </g>
        <!--cluster com-->
        <g id="cluster_com">
            <path d="M549,6 L579,6 A3.75,3.75 0 0 1 581.5,8.5 L588.5,29.6094 L1213,29.6094 A2.5,2.5 0 0 1 1215.5,32.1094 L1215.5,629.5 A2.5,2.5 0 0 1 1213,632 L549,632 A2.5,2.5 0 0 1 546.5,629.5 L546.5,8.5 A2.5,2.5 0 0 1 549,6 " fill="none" style="stroke:#000000;stroke-width:1.5;"/>
            <line style="stroke:#000000;stroke-width:1.5;" x1="546.5" x2="588.5" y1="29.6094" y2="29.6094"/>
            <text fill="#000000" font-family="sans-serif" font-size="14" font-weight="bold" lengthAdjust="spacing" textLength="29" x="550.5" y="22.5332">com</text>
        </g>
        <!--cluster mycompany-->
        <g id="cluster_mycompany">
            <path d="M573,50 L655,50 A3.75,3.75 0 0 1 657.5,52.5 L664.5,73.6094 L1189,73.6094 A2.5,2.5 0 0 1 1191.5,76.1094 L1191.5,605.5 A2.5,2.5 0 0 1 1189,608 L573,608 A2.5,2.5 0 0 1 570.5,605.5 L570.5,52.5 A2.5,2.5 0 0 1 573,50 " fill="none" style="stroke:#000000;stroke-width:1.5;"/>
            <line style="stroke:#000000;stroke-width:1.5;" x1="570.5" x2="664.5" y1="73.6094" y2="73.6094"/>
            <text fill="#000000" font-family="sans-serif" font-size="14" font-weight="bold" lengthAdjust="spacing" textLength="81" x="574.5" y="66.5332">mycompany</text>
        </g>
        <!--cluster eva2_5_interfaces-->
        <g id="cluster_eva2_5_interfaces">
            <path d="M597,94 L727,94 A3.75,3.75 0 0 1 729.5,96.5 L736.5,117.6094 L1165,117.6094 A2.5,2.5 0 0 1 1167.5,120.1094 L1167.5,581.5 A2.5,2.5 0 0 1 1165,584 L597,584 A2.5,2.5 0 0 1 594.5,581.5 L594.5,96.5 A2.5,2.5 0 0 1 597,94 " fill="none" style="stroke:#000000;stroke-width:1.5;"/>
            <line style="stroke:#000000;stroke-width:1.5;" x1="594.5" x2="736.5" y1="117.6094" y2="117.6094"/>
            <text fill="#000000" font-family="sans-serif" font-size="14" font-weight="bold" lengthAdjust="spacing" textLength="129" x="598.5" y="110.5332">eva2_5_interfaces</text>
        </g>
        <!--class Override-->
        <g id="elem_Override">
            <rect codeLine="1" fill="#F1F1F1" height="48" id="Override" rx="2.5" ry="2.5" style="stroke:#181818;stroke-width:0.5;" width="87" x="1280" y="520"/>
            <ellipse cx="1295" cy="536" fill="#E3664A" rx="11" ry="11" style="stroke:#181818;stroke-width:1.0;"/>
            <path d="M1297.3438,533.5781 L1297.3438,533.0625 Q1297.3438,532.2344 1296.8594,531.7344 Q1296.3906,531.2344 1295.6406,531.2344 Q1295.0469,531.2344 1294.5156,531.6406 Q1293.9844,532.0313 1293.7188,532.6563 Q1293.25,533.75 1293.25,534.8594 L1293.25,537.375 Q1293.25,539.2969 1294.1094,540.4219 Q1294.6719,541.1719 1295.6875,541.1719 Q1296.2344,541.1719 1296.6719,541.0313 Q1297.125,540.8906 1297.375,540.6406 Q1297.625,540.3906 1297.8438,540.3906 Q1298.1094,540.3906 1298.2969,540.5781 Q1298.4844,540.7656 1298.4844,541.0313 Q1298.4844,541.4531 1297.9063,541.8438 Q1297.0781,542.4063 1295.6406,542.4063 Q1294.5469,542.4063 1293.8281,541.9063 Q1292.9063,541.2656 1292.4531,540 Q1292,538.7344 1292,537.5 L1292,534.7656 Q1292,532.7813 1292.9844,531.3906 Q1293.9688,529.9844 1295.6094,529.9844 Q1296.3594,529.9844 1297,530.2969 Q1297.6563,530.5938 1298.125,531.3594 Q1298.5938,532.125 1298.5938,533.0625 L1298.5938,537.5938 Q1298.9531,537.7656 1298.9531,538.1563 Q1298.9531,538.4375 1298.75,538.625 Q1298.5625,538.7969 1298.0938,538.7969 L1297.3438,538.7969 L1297.3438,538.75 Q1296.9531,538.8125 1296.7656,538.8125 Q1295.7656,538.8125 1295.0156,538.0781 Q1294.2813,537.3281 1294.2813,536.3281 Q1294.2813,535.2656 1295.0938,534.4688 Q1295.9219,533.6719 1297.3438,533.5781 Z M1297.3438,534.8594 Q1296.4531,534.9531 1295.9844,535.375 Q1295.5313,535.7969 1295.5313,536.3438 Q1295.5313,536.8281 1295.9063,537.1719 Q1296.2969,537.5156 1296.9375,537.5156 Q1297.0625,537.5156 1297.3438,537.5 L1297.3438,534.8594 Z " fill="#000000"/>
            <text fill="#000000" font-family="sans-serif" font-size="14" lengthAdjust="spacing" textLength="55" x="1309" y="541.7285">Override</text>
            <line style="stroke:#181818;stroke-width:0.5;" x1="1281" x2="1366" y1="552" y2="552"/>
            <line style="stroke:#181818;stroke-width:0.5;" x1="1281" x2="1366" y1="560" y2="560"/>
        </g>
        <!--class Cliente-->
        <g id="elem_Cliente">
            <rect codeLine="2" fill="#F1F1F1" height="48" id="Cliente" rx="2.5" ry="2.5" style="stroke:#181818;stroke-width:0.5;" width="76" x="610.5" y="130"/>
            <ellipse cx="625.5" cy="146" fill="#ADD1B2" rx="11" ry="11" style="stroke:#181818;stroke-width:1.0;"/>
            <path d="M628.2656,141.875 Q628.4219,141.6563 628.6094,141.5469 Q628.7969,141.4375 629.0156,141.4375 Q629.3906,141.4375 629.625,141.7031 Q629.8594,141.9531 629.8594,142.5625 L629.8594,144.0156 Q629.8594,144.625 629.625,144.8906 Q629.3906,145.1563 629.0156,145.1563 Q628.6719,145.1563 628.4688,144.9531 Q628.2656,144.7656 628.1563,144.25 Q628.1094,143.8906 627.9219,143.7031 Q627.5938,143.3281 626.9844,143.1094 Q626.375,142.8906 625.75,142.8906 Q624.9844,142.8906 624.3438,143.2188 Q623.7188,143.5469 623.2188,144.2969 Q622.7344,145.0469 622.7344,146.0781 L622.7344,147.1719 Q622.7344,148.4063 623.625,149.2344 Q624.5156,150.0469 626.1094,150.0469 Q627.0469,150.0469 627.7031,149.7969 Q628.0938,149.6406 628.5156,149.2031 Q628.7813,148.9375 628.9219,148.8594 Q629.0781,148.7813 629.2813,148.7813 Q629.6094,148.7813 629.8594,149.0469 Q630.125,149.2969 630.125,149.6406 Q630.125,149.9844 629.7813,150.3906 Q629.2813,150.9688 628.4844,151.2969 Q627.4063,151.75 626.1094,151.75 Q624.5938,151.75 623.3906,151.125 Q622.4063,150.625 621.7188,149.5625 Q621.0313,148.4844 621.0313,147.2031 L621.0313,146.0469 Q621.0313,144.7188 621.6406,143.5781 Q622.2656,142.4219 623.3594,141.8125 Q624.4531,141.1875 625.6875,141.1875 Q626.4219,141.1875 627.0625,141.3594 Q627.7188,141.5156 628.2656,141.875 Z " fill="#000000"/>
            <text fill="#000000" font-family="sans-serif" font-size="14" lengthAdjust="spacing" textLength="44" x="639.5" y="151.7285">Cliente</text>
            <line style="stroke:#181818;stroke-width:0.5;" x1="611.5" x2="685.5" y1="162" y2="162"/>
            <line style="stroke:#181818;stroke-width:0.5;" x1="611.5" x2="685.5" y1="170" y2="170"/>
        </g>
        <!--class EVA2_5_INTERFACES-->
        <g id="elem_EVA2_5_INTERFACES">
            <rect codeLine="3" fill="#F1F1F1" height="48" id="EVA2_5_INTERFACES" rx="2.5" ry="2.5" style="stroke:#181818;stroke-width:0.5;" width="177" x="843" y="130"/>
            <ellipse cx="858" cy="146" fill="#ADD1B2" rx="11" ry="11" style="stroke:#181818;stroke-width:1.0;"/>
            <path d="M860.7656,141.875 Q860.9219,141.6563 861.1094,141.5469 Q861.2969,141.4375 861.5156,141.4375 Q861.8906,141.4375 862.125,141.7031 Q862.3594,141.9531 862.3594,142.5625 L862.3594,144.0156 Q862.3594,144.625 862.125,144.8906 Q861.8906,145.1563 861.5156,145.1563 Q861.1719,145.1563 860.9688,144.9531 Q860.7656,144.7656 860.6563,144.25 Q860.6094,143.8906 860.4219,143.7031 Q860.0938,143.3281 859.4844,143.1094 Q858.875,142.8906 858.25,142.8906 Q857.4844,142.8906 856.8438,143.2188 Q856.2188,143.5469 855.7188,144.2969 Q855.2344,145.0469 855.2344,146.0781 L855.2344,147.1719 Q855.2344,148.4063 856.125,149.2344 Q857.0156,150.0469 858.6094,150.0469 Q859.5469,150.0469 860.2031,149.7969 Q860.5938,149.6406 861.0156,149.2031 Q861.2813,148.9375 861.4219,148.8594 Q861.5781,148.7813 861.7813,148.7813 Q862.1094,148.7813 862.3594,149.0469 Q862.625,149.2969 862.625,149.6406 Q862.625,149.9844 862.2813,150.3906 Q861.7813,150.9688 860.9844,151.2969 Q859.9063,151.75 858.6094,151.75 Q857.0938,151.75 855.8906,151.125 Q854.9063,150.625 854.2188,149.5625 Q853.5313,148.4844 853.5313,147.2031 L853.5313,146.0469 Q853.5313,144.7188 854.1406,143.5781 Q854.7656,142.4219 855.8594,141.8125 Q856.9531,141.1875 858.1875,141.1875 Q858.9219,141.1875 859.5625,141.3594 Q860.2188,141.5156 860.7656,141.875 Z " fill="#000000"/>
            <text fill="#000000" font-family="sans-serif" font-size="14" lengthAdjust="spacing" textLength="145" x="872" y="151.7285">EVA2_5_INTERFACES</text>
            <line style="stroke:#181818;stroke-width:0.5;" x1="844" x2="1019" y1="162" y2="162"/>
            <line style="stroke:#181818;stroke-width:0.5;" x1="844" x2="1019" y1="170" y2="170"/>
        </g>
        <!--class Television-->
        <g id="elem_Television">
            <rect codeLine="4" fill="#F1F1F1" height="48" id="Television" rx="2.5" ry="2.5" style="stroke:#181818;stroke-width:0.5;" width="96" x="1055.5" y="130"/>
            <ellipse cx="1070.5" cy="146" fill="#ADD1B2" rx="11" ry="11" style="stroke:#181818;stroke-width:1.0;"/>
            <path d="M1073.2656,141.875 Q1073.4219,141.6563 1073.6094,141.5469 Q1073.7969,141.4375 1074.0156,141.4375 Q1074.3906,141.4375 1074.625,141.7031 Q1074.8594,141.9531 1074.8594,142.5625 L1074.8594,144.0156 Q1074.8594,144.625 1074.625,144.8906 Q1074.3906,145.1563 1074.0156,145.1563 Q1073.6719,145.1563 1073.4688,144.9531 Q1073.2656,144.7656 1073.1563,144.25 Q1073.1094,143.8906 1072.9219,143.7031 Q1072.5938,143.3281 1071.9844,143.1094 Q1071.375,142.8906 1070.75,142.8906 Q1069.9844,142.8906 1069.3438,143.2188 Q1068.7188,143.5469 1068.2188,144.2969 Q1067.7344,145.0469 1067.7344,146.0781 L1067.7344,147.1719 Q1067.7344,148.4063 1068.625,149.2344 Q1069.5156,150.0469 1071.1094,150.0469 Q1072.0469,150.0469 1072.7031,149.7969 Q1073.0938,149.6406 1073.5156,149.2031 Q1073.7813,148.9375 1073.9219,148.8594 Q1074.0781,148.7813 1074.2813,148.7813 Q1074.6094,148.7813 1074.8594,149.0469 Q1075.125,149.2969 1075.125,149.6406 Q1075.125,149.9844 1074.7813,150.3906 Q1074.2813,150.9688 1073.4844,151.2969 Q1072.4063,151.75 1071.1094,151.75 Q1069.5938,151.75 1068.3906,151.125 Q1067.4063,150.625 1066.7188,149.5625 Q1066.0313,148.4844 1066.0313,147.2031 L1066.0313,146.0469 Q1066.0313,144.7188 1066.6406,143.5781 Q1067.2656,142.4219 1068.3594,141.8125 Q1069.4531,141.1875 1070.6875,141.1875 Q1071.4219,141.1875 1072.0625,141.3594 Q1072.7188,141.5156 1073.2656,141.875 Z " fill="#000000"/>
            <text fill="#000000" font-family="sans-serif" font-size="14" lengthAdjust="spacing" textLength="64" x="1084.5" y="151.7285">Television</text>
            <line style="stroke:#181818;stroke-width:0.5;" x1="1056.5" x2="1150.5" y1="162" y2="162"/>
            <line style="stroke:#181818;stroke-width:0.5;" x1="1056.5" x2="1150.5" y1="170" y2="170"/>
        </g>
        <!--class Vehiculo-->
        <g id="elem_Vehiculo">
            <rect codeLine="5" fill="#F1F1F1" height="48" id="Vehiculo" rx="2.5" ry="2.5" style="stroke:#181818;stroke-width:0.5;" width="86" x="721.5" y="130"/>
            <ellipse cx="736.5" cy="146" fill="#ADD1B2" rx="11" ry="11" style="stroke:#181818;stroke-width:1.0;"/>
            <path d="M739.2656,141.875 Q739.4219,141.6563 739.6094,141.5469 Q739.7969,141.4375 740.0156,141.4375 Q740.3906,141.4375 740.625,141.7031 Q740.8594,141.9531 740.8594,142.5625 L740.8594,144.0156 Q740.8594,144.625 740.625,144.8906 Q740.3906,145.1563 740.0156,145.1563 Q739.6719,145.1563 739.4688,144.9531 Q739.2656,144.7656 739.1563,144.25 Q739.1094,143.8906 738.9219,143.7031 Q738.5938,143.3281 737.9844,143.1094 Q737.375,142.8906 736.75,142.8906 Q735.9844,142.8906 735.3438,143.2188 Q734.7188,143.5469 734.2188,144.2969 Q733.7344,145.0469 733.7344,146.0781 L733.7344,147.1719 Q733.7344,148.4063 734.625,149.2344 Q735.5156,150.0469 737.1094,150.0469 Q738.0469,150.0469 738.7031,149.7969 Q739.0938,149.6406 739.5156,149.2031 Q739.7813,148.9375 739.9219,148.8594 Q740.0781,148.7813 740.2813,148.7813 Q740.6094,148.7813 740.8594,149.0469 Q741.125,149.2969 741.125,149.6406 Q741.125,149.9844 740.7813,150.3906 Q740.2813,150.9688 739.4844,151.2969 Q738.4063,151.75 737.1094,151.75 Q735.5938,151.75 734.3906,151.125 Q733.4063,150.625 732.7188,149.5625 Q732.0313,148.4844 732.0313,147.2031 L732.0313,146.0469 Q732.0313,144.7188 732.6406,143.5781 Q733.2656,142.4219 734.3594,141.8125 Q735.4531,141.1875 736.6875,141.1875 Q737.4219,141.1875 738.0625,141.3594 Q738.7188,141.5156 739.2656,141.875 Z " fill="#000000"/>
            <text fill="#000000" font-family="sans-serif" font-size="14" lengthAdjust="spacing" textLength="54" x="750.5" y="151.7285">Vehiculo</text>
            <line style="stroke:#181818;stroke-width:0.5;" x1="722.5" x2="806.5" y1="162" y2="162"/>
            <line style="stroke:#181818;stroke-width:0.5;" x1="722.5" x2="806.5" y1="170" y2="170"/>
        </g>
        <!--class Datos-->
        <g id="elem_Datos">
            <rect codeLine="6" fill="#F1F1F1" height="48" id="Datos" rx="2.5" ry="2.5" style="stroke:#181818;stroke-width:0.5;" width="69" x="730" y="520"/>
            <ellipse cx="745" cy="536" fill="#B4A7E5" rx="11" ry="11" style="stroke:#181818;stroke-width:1.0;"/>
            <path d="M745.9531,532.6406 L745.9531,539.2969 L747.6719,539.2969 Q748.2813,539.2969 748.5469,539.5313 Q748.8125,539.7656 748.8125,540.1563 Q748.8125,540.5313 748.5469,540.7656 Q748.2813,541 747.6719,541 L742.5313,541 Q741.9219,541 741.6563,540.7656 Q741.3906,540.5313 741.3906,540.1406 Q741.3906,539.7656 741.6563,539.5313 Q741.9219,539.2969 742.5313,539.2969 L744.25,539.2969 L744.25,532.6406 L742.5313,532.6406 Q741.9219,532.6406 741.6563,532.4063 Q741.3906,532.1719 741.3906,531.7813 Q741.3906,531.4063 741.6563,531.1719 Q741.9219,530.9375 742.5313,530.9375 L747.6719,530.9375 Q748.2813,530.9375 748.5469,531.1719 Q748.8125,531.4063 748.8125,531.7813 Q748.8125,532.1719 748.5469,532.4063 Q748.2813,532.6406 747.6719,532.6406 L745.9531,532.6406 Z " fill="#000000"/>
            <text fill="#000000" font-family="sans-serif" font-size="14" font-style="italic" lengthAdjust="spacing" textLength="37" x="759" y="541.7285">Datos</text>
            <line style="stroke:#181818;stroke-width:0.5;" x1="731" x2="798" y1="552" y2="552"/>
            <line style="stroke:#181818;stroke-width:0.5;" x1="731" x2="798" y1="560" y2="560"/>
        </g>
        <!--class Datos-->
        <g id="elem_Datos">
            <rect codeLine="14" fill="#F1F1F1" height="65.6094" id="Datos" rx="2.5" ry="2.5" style="stroke:#181818;stroke-width:0.5;" width="121" x="45" y="121"/>
            <ellipse cx="83.4" cy="137" fill="#B4A7E5" rx="11" ry="11" style="stroke:#181818;stroke-width:1.0;"/>
            <path d="M84.3531,133.6406 L84.3531,140.2969 L86.0719,140.2969 Q86.6813,140.2969 86.9469,140.5313 Q87.2125,140.7656 87.2125,141.1563 Q87.2125,141.5313 86.9469,141.7656 Q86.6813,142 86.0719,142 L80.9313,142 Q80.3219,142 80.0563,141.7656 Q79.7906,141.5313 79.7906,141.1406 Q79.7906,140.7656 80.0563,140.5313 Q80.3219,140.2969 80.9313,140.2969 L82.65,140.2969 L82.65,133.6406 L80.9313,133.6406 Q80.3219,133.6406 80.0563,133.4063 Q79.7906,133.1719 79.7906,132.7813 Q79.7906,132.4063 80.0563,132.1719 Q80.3219,131.9375 80.9313,131.9375 L86.0719,131.9375 Q86.6813,131.9375 86.9469,132.1719 Q87.2125,132.4063 87.2125,132.7813 Q87.2125,133.1719 86.9469,133.4063 Q86.6813,133.6406 86.0719,133.6406 L84.3531,133.6406 Z " fill="#000000"/>
            <text fill="#000000" font-family="sans-serif" font-size="14" font-style="italic" lengthAdjust="spacing" textLength="37" x="102.6" y="142.7285">Datos</text>
            <line style="stroke:#181818;stroke-width:0.5;" x1="46" x2="165" y1="153" y2="153"/>
            <line style="stroke:#181818;stroke-width:0.5;" x1="46" x2="165" y1="161" y2="161"/>
            <ellipse cx="56" cy="175.3047" fill="#84BE84" rx="3" ry="3" style="stroke:#038048;stroke-width:1.0;"/>
            <text fill="#000000" font-family="sans-serif" font-size="14" lengthAdjust="spacing" textLength="95" x="65" y="179.5332">mostrarDatos()</text>
        </g>
        <!--class Cliente-->
        <g id="elem_Cliente">
            <rect codeLine="18" fill="#F1F1F1" height="276.9219" id="Cliente" rx="2.5" ry="2.5" style="stroke:#181818;stroke-width:0.5;" width="207" x="201" y="15.5"/>
            <ellipse cx="278.25" cy="31.5" fill="#ADD1B2" rx="11" ry="11" style="stroke:#181818;stroke-width:1.0;"/>
            <path d="M281.0156,27.375 Q281.1719,27.1563 281.3594,27.0469 Q281.5469,26.9375 281.7656,26.9375 Q282.1406,26.9375 282.375,27.2031 Q282.6094,27.4531 282.6094,28.0625 L282.6094,29.5156 Q282.6094,30.125 282.375,30.3906 Q282.1406,30.6563 281.7656,30.6563 Q281.4219,30.6563 281.2188,30.4531 Q281.0156,30.2656 280.9063,29.75 Q280.8594,29.3906 280.6719,29.2031 Q280.3438,28.8281 279.7344,28.6094 Q279.125,28.3906 278.5,28.3906 Q277.7344,28.3906 277.0938,28.7188 Q276.4688,29.0469 275.9688,29.7969 Q275.4844,30.5469 275.4844,31.5781 L275.4844,32.6719 Q275.4844,33.9063 276.375,34.7344 Q277.2656,35.5469 278.8594,35.5469 Q279.7969,35.5469 280.4531,35.2969 Q280.8438,35.1406 281.2656,34.7031 Q281.5313,34.4375 281.6719,34.3594 Q281.8281,34.2813 282.0313,34.2813 Q282.3594,34.2813 282.6094,34.5469 Q282.875,34.7969 282.875,35.1406 Q282.875,35.4844 282.5313,35.8906 Q282.0313,36.4688 281.2344,36.7969 Q280.1563,37.25 278.8594,37.25 Q277.3438,37.25 276.1406,36.625 Q275.1563,36.125 274.4688,35.0625 Q273.7813,33.9844 273.7813,32.7031 L273.7813,31.5469 Q273.7813,30.2188 274.3906,29.0781 Q275.0156,27.9219 276.1094,27.3125 Q277.2031,26.6875 278.4375,26.6875 Q279.1719,26.6875 279.8125,26.8594 Q280.4688,27.0156 281.0156,27.375 Z " fill="#000000"/>
            <text fill="#000000" font-family="sans-serif" font-size="14" lengthAdjust="spacing" textLength="44" x="298.75" y="37.2285">Cliente</text>
            <line style="stroke:#181818;stroke-width:0.5;" x1="202" x2="407" y1="47.5" y2="47.5"/>
            <rect fill="none" height="6" style="stroke:#C82930;stroke-width:1.0;" width="6" x="209" y="58.8047"/>
            <text fill="#000000" font-family="sans-serif" font-size="14" lengthAdjust="spacing" textLength="97" x="221" y="66.0332">nombre : String</text>
            <rect fill="none" height="6" style="stroke:#C82930;stroke-width:1.0;" width="6" x="209" y="76.4141"/>
            <text fill="#000000" font-family="sans-serif" font-size="14" lengthAdjust="spacing" textLength="98" x="221" y="83.6426">apellido : String</text>
            <rect fill="none" height="6" style="stroke:#C82930;stroke-width:1.0;" width="6" x="209" y="94.0234"/>
            <text fill="#000000" font-family="sans-serif" font-size="14" lengthAdjust="spacing" textLength="65" x="221" y="101.252">rfc : String</text>
            <line style="stroke:#181818;stroke-width:0.5;" x1="202" x2="407" y1="108.3281" y2="108.3281"/>
            <ellipse cx="212" cy="122.6328" fill="#84BE84" rx="3" ry="3" style="stroke:#038048;stroke-width:1.0;"/>
            <text fill="#000000" font-family="sans-serif" font-size="14" lengthAdjust="spacing" textLength="54" x="221" y="126.8613">Cliente()</text>
            <ellipse cx="212" cy="140.2422" fill="#84BE84" rx="3" ry="3" style="stroke:#038048;stroke-width:1.0;"/>
            <text fill="#000000" font-family="sans-serif" font-size="14" lengthAdjust="spacing" textLength="181" x="221" y="144.4707">Cliente(String, String, String)</text>
            <text fill="#000000" font-family="sans-serif" font-size="14" lengthAdjust="spacing" textLength="4" x="221" y="162.0801"> </text>
            <ellipse cx="212" cy="175.4609" fill="#84BE84" rx="3" ry="3" style="stroke:#038048;stroke-width:1.0;"/>
            <text fill="#000000" font-family="sans-serif" font-size="14" lengthAdjust="spacing" textLength="128" x="221" y="179.6895">getNombre() : String</text>
            <ellipse cx="212" cy="193.0703" fill="#84BE84" rx="3" ry="3" style="stroke:#038048;stroke-width:1.0;"/>
            <text fill="#000000" font-family="sans-serif" font-size="14" lengthAdjust="spacing" textLength="115" x="221" y="197.2988">setNombre(String)</text>
            <ellipse cx="212" cy="210.6797" fill="#84BE84" rx="3" ry="3" style="stroke:#038048;stroke-width:1.0;"/>
            <text fill="#000000" font-family="sans-serif" font-size="14" lengthAdjust="spacing" textLength="129" x="221" y="214.9082">getApellido() : String</text>
            <ellipse cx="212" cy="228.2891" fill="#84BE84" rx="3" ry="3" style="stroke:#038048;stroke-width:1.0;"/>
            <text fill="#000000" font-family="sans-serif" font-size="14" lengthAdjust="spacing" textLength="116" x="221" y="232.5176">setApellido(String)</text>
            <ellipse cx="212" cy="245.8984" fill="#84BE84" rx="3" ry="3" style="stroke:#038048;stroke-width:1.0;"/>
            <text fill="#000000" font-family="sans-serif" font-size="14" lengthAdjust="spacing" textLength="100" x="221" y="250.127">getRfc() : String</text>
            <ellipse cx="212" cy="263.5078" fill="#84BE84" rx="3" ry="3" style="stroke:#038048;stroke-width:1.0;"/>
            <text fill="#000000" font-family="sans-serif" font-size="14" lengthAdjust="spacing" textLength="87" x="221" y="267.7363">setRfc(String)</text>
            <ellipse cx="212" cy="281.1172" fill="#84BE84" rx="3" ry="3" style="stroke:#038048;stroke-width:1.0;"/>
            <text fill="#000000" font-family="sans-serif" font-size="14" lengthAdjust="spacing" textLength="95" x="221" y="285.3457">mostrarDatos()</text>
        </g>
        <!--class Television-->
        <g id="elem_Television">
            <rect codeLine="34" fill="#F1F1F1" height="259.3125" id="Television" rx="2.5" ry="2.5" style="stroke:#181818;stroke-width:0.5;" width="197" x="7" y="414.5"/>
            <ellipse cx="69.25" cy="430.5" fill="#ADD1B2" rx="11" ry="11" style="stroke:#181818;stroke-width:1.0;"/>
            <path d="M72.0156,426.375 Q72.1719,426.1563 72.3594,426.0469 Q72.5469,425.9375 72.7656,425.9375 Q73.1406,425.9375 73.375,426.2031 Q73.6094,426.4531 73.6094,427.0625 L73.6094,428.5156 Q73.6094,429.125 73.375,429.3906 Q73.1406,429.6563 72.7656,429.6563 Q72.4219,429.6563 72.2188,429.4531 Q72.0156,429.2656 71.9063,428.75 Q71.8594,428.3906 71.6719,428.2031 Q71.3438,427.8281 70.7344,427.6094 Q70.125,427.3906 69.5,427.3906 Q68.7344,427.3906 68.0938,427.7188 Q67.4688,428.0469 66.9688,428.7969 Q66.4844,429.5469 66.4844,430.5781 L66.4844,431.6719 Q66.4844,432.9063 67.375,433.7344 Q68.2656,434.5469 69.8594,434.5469 Q70.7969,434.5469 71.4531,434.2969 Q71.8438,434.1406 72.2656,433.7031 Q72.5313,433.4375 72.6719,433.3594 Q72.8281,433.2813 73.0313,433.2813 Q73.3594,433.2813 73.6094,433.5469 Q73.875,433.7969 73.875,434.1406 Q73.875,434.4844 73.5313,434.8906 Q73.0313,435.4688 72.2344,435.7969 Q71.1563,436.25 69.8594,436.25 Q68.3438,436.25 67.1406,435.625 Q66.1563,435.125 65.4688,434.0625 Q64.7813,432.9844 64.7813,431.7031 L64.7813,430.5469 Q64.7813,429.2188 65.3906,428.0781 Q66.0156,426.9219 67.1094,426.3125 Q68.2031,425.6875 69.4375,425.6875 Q70.1719,425.6875 70.8125,425.8594 Q71.4688,426.0156 72.0156,426.375 Z " fill="#000000"/>
            <text fill="#000000" font-family="sans-serif" font-size="14" lengthAdjust="spacing" textLength="64" x="89.75" y="436.2285">Television</text>
            <line style="stroke:#181818;stroke-width:0.5;" x1="8" x2="203" y1="446.5" y2="446.5"/>
            <rect fill="none" height="6" style="stroke:#C82930;stroke-width:1.0;" width="6" x="15" y="457.8047"/>
            <text fill="#000000" font-family="sans-serif" font-size="14" lengthAdjust="spacing" textLength="129" x="27" y="465.0332">encendida : boolean</text>
            <rect fill="none" height="6" style="stroke:#C82930;stroke-width:1.0;" width="6" x="15" y="475.4141"/>
            <text fill="#000000" font-family="sans-serif" font-size="14" lengthAdjust="spacing" textLength="80" x="27" y="482.6426">volumen : int</text>
            <rect fill="none" height="6" style="stroke:#C82930;stroke-width:1.0;" width="6" x="15" y="493.0234"/>
            <text fill="#000000" font-family="sans-serif" font-size="14" lengthAdjust="spacing" textLength="61" x="27" y="500.252">canal : int</text>
            <line style="stroke:#181818;stroke-width:0.5;" x1="8" x2="203" y1="507.3281" y2="507.3281"/>
            <ellipse cx="18" cy="521.6328" fill="#84BE84" rx="3" ry="3" style="stroke:#038048;stroke-width:1.0;"/>
            <text fill="#000000" font-family="sans-serif" font-size="14" lengthAdjust="spacing" textLength="171" x="27" y="525.8613">Television(boolean, int, int)</text>
            <text fill="#000000" font-family="sans-serif" font-size="14" lengthAdjust="spacing" textLength="4" x="27" y="543.4707"> </text>
            <ellipse cx="18" cy="556.8516" fill="#84BE84" rx="3" ry="3" style="stroke:#038048;stroke-width:1.0;"/>
            <text fill="#000000" font-family="sans-serif" font-size="14" lengthAdjust="spacing" textLength="85" x="27" y="561.0801">botonPower()</text>
            <ellipse cx="18" cy="574.4609" fill="#84BE84" rx="3" ry="3" style="stroke:#038048;stroke-width:1.0;"/>
            <text fill="#000000" font-family="sans-serif" font-size="14" lengthAdjust="spacing" textLength="97" x="27" y="578.6895">bajarVolumen()</text>
            <ellipse cx="18" cy="592.0703" fill="#84BE84" rx="3" ry="3" style="stroke:#038048;stroke-width:1.0;"/>
            <text fill="#000000" font-family="sans-serif" font-size="14" lengthAdjust="spacing" textLength="96" x="27" y="596.2988">subirVolumen()</text>
            <ellipse cx="18" cy="609.6797" fill="#84BE84" rx="3" ry="3" style="stroke:#038048;stroke-width:1.0;"/>
            <text fill="#000000" font-family="sans-serif" font-size="14" lengthAdjust="spacing" textLength="78" x="27" y="613.9082">subirCanal()</text>
            <ellipse cx="18" cy="627.2891" fill="#84BE84" rx="3" ry="3" style="stroke:#038048;stroke-width:1.0;"/>
            <text fill="#000000" font-family="sans-serif" font-size="14" lengthAdjust="spacing" textLength="79" x="27" y="631.5176">bajarCanal()</text>
            <ellipse cx="18" cy="644.8984" fill="#84BE84" rx="3" ry="3" style="stroke:#038048;stroke-width:1.0;"/>
            <text fill="#000000" font-family="sans-serif" font-size="14" lengthAdjust="spacing" textLength="81" x="27" y="649.127">setCanal(int)</text>
            <ellipse cx="18" cy="662.5078" fill="#84BE84" rx="3" ry="3" style="stroke:#038048;stroke-width:1.0;"/>
            <text fill="#000000" font-family="sans-serif" font-size="14" lengthAdjust="spacing" textLength="95" x="27" y="666.7363">mostrarDatos()</text>
        </g>
        <!--class Vehiculo-->
        <g id="elem_Vehiculo">
            <rect codeLine="49" fill="#F1F1F1" height="382.5781" id="Vehiculo" rx="2.5" ry="2.5" style="stroke:#181818;stroke-width:0.5;" width="291" x="239" y="352.5"/>
            <ellipse cx="353.25" cy="368.5" fill="#ADD1B2" rx="11" ry="11" style="stroke:#181818;stroke-width:1.0;"/>
            <path d="M356.0156,364.375 Q356.1719,364.1563 356.3594,364.0469 Q356.5469,363.9375 356.7656,363.9375 Q357.1406,363.9375 357.375,364.2031 Q357.6094,364.4531 357.6094,365.0625 L357.6094,366.5156 Q357.6094,367.125 357.375,367.3906 Q357.1406,367.6563 356.7656,367.6563 Q356.4219,367.6563 356.2188,367.4531 Q356.0156,367.2656 355.9063,366.75 Q355.8594,366.3906 355.6719,366.2031 Q355.3438,365.8281 354.7344,365.6094 Q354.125,365.3906 353.5,365.3906 Q352.7344,365.3906 352.0938,365.7188 Q351.4688,366.0469 350.9688,366.7969 Q350.4844,367.5469 350.4844,368.5781 L350.4844,369.6719 Q350.4844,370.9063 351.375,371.7344 Q352.2656,372.5469 353.8594,372.5469 Q354.7969,372.5469 355.4531,372.2969 Q355.8438,372.1406 356.2656,371.7031 Q356.5313,371.4375 356.6719,371.3594 Q356.8281,371.2813 357.0313,371.2813 Q357.3594,371.2813 357.6094,371.5469 Q357.875,371.7969 357.875,372.1406 Q357.875,372.4844 357.5313,372.8906 Q357.0313,373.4688 356.2344,373.7969 Q355.1563,374.25 353.8594,374.25 Q352.3438,374.25 351.1406,373.625 Q350.1563,373.125 349.4688,372.0625 Q348.7813,370.9844 348.7813,369.7031 L348.7813,368.5469 Q348.7813,367.2188 349.3906,366.0781 Q350.0156,364.9219 351.1094,364.3125 Q352.2031,363.6875 353.4375,363.6875 Q354.1719,363.6875 354.8125,363.8594 Q355.4688,364.0156 356.0156,364.375 Z " fill="#000000"/>
            <text fill="#000000" font-family="sans-serif" font-size="14" lengthAdjust="spacing" textLength="54" x="373.75" y="374.2285">Vehiculo</text>
            <line style="stroke:#181818;stroke-width:0.5;" x1="240" x2="529" y1="384.5" y2="384.5"/>
            <rect fill="none" height="6" style="stroke:#C82930;stroke-width:1.0;" width="6" x="247" y="395.8047"/>
            <text fill="#000000" font-family="sans-serif" font-size="14" lengthAdjust="spacing" textLength="88" x="259" y="403.0332">marca : String</text>
            <rect fill="none" height="6" style="stroke:#C82930;stroke-width:1.0;" width="6" x="247" y="413.4141"/>
            <text fill="#000000" font-family="sans-serif" font-size="14" lengthAdjust="spacing" textLength="95" x="259" y="420.6426">modelo : String</text>
            <rect fill="none" height="6" style="stroke:#C82930;stroke-width:1.0;" width="6" x="247" y="431.0234"/>
            <text fill="#000000" font-family="sans-serif" font-size="14" lengthAdjust="spacing" textLength="80" x="259" y="438.252">color : String</text>
            <rect fill="none" height="6" style="stroke:#C82930;stroke-width:1.0;" width="6" x="247" y="448.6328"/>
            <text fill="#000000" font-family="sans-serif" font-size="14" lengthAdjust="spacing" textLength="55" x="259" y="455.8613">year : int</text>
            <rect fill="none" height="6" style="stroke:#C82930;stroke-width:1.0;" width="6" x="247" y="466.2422"/>
            <text fill="#000000" font-family="sans-serif" font-size="14" lengthAdjust="spacing" textLength="94" x="259" y="473.4707">precio : double</text>
            <line style="stroke:#181818;stroke-width:0.5;" x1="240" x2="529" y1="480.5469" y2="480.5469"/>
            <ellipse cx="250" cy="494.8516" fill="#84BE84" rx="3" ry="3" style="stroke:#038048;stroke-width:1.0;"/>
            <text fill="#000000" font-family="sans-serif" font-size="14" lengthAdjust="spacing" textLength="64" x="259" y="499.0801">Vehiculo()</text>
            <ellipse cx="250" cy="512.4609" fill="#84BE84" rx="3" ry="3" style="stroke:#038048;stroke-width:1.0;"/>
            <text fill="#000000" font-family="sans-serif" font-size="14" lengthAdjust="spacing" textLength="265" x="259" y="516.6895">Vehiculo(String, String, String, int, double)</text>
            <text fill="#000000" font-family="sans-serif" font-size="14" lengthAdjust="spacing" textLength="4" x="259" y="534.2988"> </text>
            <ellipse cx="250" cy="547.6797" fill="#84BE84" rx="3" ry="3" style="stroke:#038048;stroke-width:1.0;"/>
            <text fill="#000000" font-family="sans-serif" font-size="14" lengthAdjust="spacing" textLength="118" x="259" y="551.9082">getMarca() : String</text>
            <ellipse cx="250" cy="565.2891" fill="#84BE84" rx="3" ry="3" style="stroke:#038048;stroke-width:1.0;"/>
            <text fill="#000000" font-family="sans-serif" font-size="14" lengthAdjust="spacing" textLength="105" x="259" y="569.5176">setMarca(String)</text>
            <ellipse cx="250" cy="582.8984" fill="#84BE84" rx="3" ry="3" style="stroke:#038048;stroke-width:1.0;"/>
            <text fill="#000000" font-family="sans-serif" font-size="14" lengthAdjust="spacing" textLength="125" x="259" y="587.127">getModelo() : String</text>
            <ellipse cx="250" cy="600.5078" fill="#84BE84" rx="3" ry="3" style="stroke:#038048;stroke-width:1.0;"/>
            <text fill="#000000" font-family="sans-serif" font-size="14" lengthAdjust="spacing" textLength="112" x="259" y="604.7363">setModelo(String)</text>
            <ellipse cx="250" cy="618.1172" fill="#84BE84" rx="3" ry="3" style="stroke:#038048;stroke-width:1.0;"/>
            <text fill="#000000" font-family="sans-serif" font-size="14" lengthAdjust="spacing" textLength="113" x="259" y="622.3457">getColor() : String</text>
            <ellipse cx="250" cy="635.7266" fill="#84BE84" rx="3" ry="3" style="stroke:#038048;stroke-width:1.0;"/>
            <text fill="#000000" font-family="sans-serif" font-size="14" lengthAdjust="spacing" textLength="100" x="259" y="639.9551">setColor(String)</text>
            <ellipse cx="250" cy="653.3359" fill="#84BE84" rx="3" ry="3" style="stroke:#038048;stroke-width:1.0;"/>
            <text fill="#000000" font-family="sans-serif" font-size="14" lengthAdjust="spacing" textLength="87" x="259" y="657.5645">getYear() : int</text>
            <ellipse cx="250" cy="670.9453" fill="#84BE84" rx="3" ry="3" style="stroke:#038048;stroke-width:1.0;"/>
            <text fill="#000000" font-family="sans-serif" font-size="14" lengthAdjust="spacing" textLength="74" x="259" y="675.1738">setYear(int)</text>
            <ellipse cx="250" cy="688.5547" fill="#84BE84" rx="3" ry="3" style="stroke:#038048;stroke-width:1.0;"/>
            <text fill="#000000" font-family="sans-serif" font-size="14" lengthAdjust="spacing" textLength="125" x="259" y="692.7832">getPrecio() : double</text>
            <ellipse cx="250" cy="706.1641" fill="#84BE84" rx="3" ry="3" style="stroke:#038048;stroke-width:1.0;"/>
            <text fill="#000000" font-family="sans-serif" font-size="14" lengthAdjust="spacing" textLength="112" x="259" y="710.3926">setPrecio(double)</text>
            <ellipse cx="250" cy="723.7734" fill="#84BE84" rx="3" ry="3" style="stroke:#038048;stroke-width:1.0;"/>
            <text fill="#000000" font-family="sans-serif" font-size="14" lengthAdjust="spacing" textLength="95" x="259" y="728.002">mostrarDatos()</text>
        </g>
        <!--link Cliente to Override-->
        <g id="link_Cliente_Override">
            <path codeLine="7" d="M650.88,178.25 C655.42,209.58 668.36,264.66 704.5,292.5 C868.87,419.14 986.08,251.79 1167.5,352.5 C1238.7,392.02 1287.5358,472.8951 1309.2858,514.4151 " fill="none" id="Cliente-to-Override" style="stroke:#181818;stroke-width:1.0;stroke-dasharray:7.0,7.0;"/>
            <polygon fill="#181818" points="1312.07,519.73,1311.437,509.9015,1309.7498,515.3009,1304.3504,513.6138,1312.07,519.73" style="stroke:#181818;stroke-width:1.0;"/>
        </g>
        <!--link Cliente to Datos-->
        <g id="link_Cliente_Datos">
            <path codeLine="8" d="M655.41,178.11 C675.99,246.96 731.5928,432.9546 752.3228,502.2746 " fill="none" id="Cliente-to-Datos" style="stroke:#181818;stroke-width:1.0;"/>
            <polygon fill="none" points="757.48,519.52,758.0713,500.5555,746.5743,503.9937,757.48,519.52" style="stroke:#181818;stroke-width:1.0;"/>
        </g>
        <!--link Television to Override-->
        <g id="link_Television_Override">
            <path codeLine="9" d="M1116.6,178.11 C1155.64,246.96 1267.9203,444.9808 1307.2303,514.3008 " fill="none" id="Television-to-Override" style="stroke:#181818;stroke-width:1.0;stroke-dasharray:7.0,7.0;"/>
            <polygon fill="#181818" points="1310.19,519.52,1309.2299,509.7181,1307.7236,515.1707,1302.271,513.6643,1310.19,519.52" style="stroke:#181818;stroke-width:1.0;"/>
        </g>
        <!--link Television to Datos-->
        <g id="link_Television_Datos">
            <path codeLine="10" d="M1095.51,178.13 C1084.97,206.71 1064.54,256.02 1037.5,292.5 C965.48,389.65 866.4952,468.5245 811.2952,509.2445 " fill="none" id="Television-to-Datos" style="stroke:#181818;stroke-width:1.0;"/>
            <polygon fill="none" points="796.81,519.93,814.857,514.0729,807.7334,504.4161,796.81,519.93" style="stroke:#181818;stroke-width:1.0;"/>
        </g>
        <!--link Vehiculo to Override-->
        <g id="link_Vehiculo_Override">
            <path codeLine="11" d="M767.94,178.07 C773.86,209.2 789.08,264.03 825.5,292.5 C947.08,387.54 1034.28,274.6 1167.5,352.5 C1237.61,393.5 1286.7366,473.2965 1308.8766,514.4365 " fill="none" id="Vehiculo-to-Override" style="stroke:#181818;stroke-width:1.0;stroke-dasharray:7.0,7.0;"/>
            <polygon fill="#181818" points="1311.72,519.72,1310.9773,509.8992,1309.3505,515.3171,1303.9326,513.6904,1311.72,519.72" style="stroke:#181818;stroke-width:1.0;"/>
        </g>
        <!--link Vehiculo to Datos-->
        <g id="link_Vehiculo_Datos">
            <path codeLine="12" d="M764.5,178.11 C764.5,246.96 764.5,432.2 764.5,501.52 " fill="none" id="Vehiculo-to-Datos" style="stroke:#181818;stroke-width:1.0;"/>
            <polygon fill="none" points="764.5,519.52,770.5,501.52,758.5,501.52,764.5,519.52" style="stroke:#181818;stroke-width:1.0;"/>
        </g>
        <!--SRC=[hLFBJiCm4BpdAtni1Sq1YGi7fAeKYGCF0Qh42MsSRJ5ol9MJ1bN0l-FOJke62mBg9PLdP_OnkmMbg89Aa6AlK4CgGQtIsngr5ZacN49PCav5McpDTmrgcs8D9y-dpq9Lg9V0iKndKg1v3MJF5zC6kRfvdDzVJcVpXu6wHvHOYz9qEb2mm1V1DvAI3ljLSW4LbSd0ULcQdaTD6oYVJ3xE3zJHpfl_DXLaE61VxGh-srMd_qDFmRejmDuJnevOGMMbGLjeD4u-4tz5xJOQreGfAZADx8mzL5gebSLWZLAAdFPHlUGxm5RmcKpoyEKOnsp_T-maAwnkRCNHECn-nCekqF8zVUgRYGYwK4zol-GHTeE6n6_-E7k2kt0EeUAeSf63oPWHIGHbyPhafa1bKEE_HJWeaFvjI-noZRpok0dQZpSaeuhK7RsXzZPcy0fwuN9xgDna8WRDcdgXB0JCnEvfQ_qmS7ToRjm2D8VzpHUKe-nT0oT9UX_Q8kZ0ZRL6BXfLJfjCeXktBUQRx9xne_5kkGIx2xfkMenisE6zOxYspSVOBj2Zpvgv8co7zyXFPcBBTJDReiKwpmtfplfWQTu9p_I1ThhuV_OB]-->
    </g>
</svg>
