<?xml version="1.0" encoding="UTF-8"?><svg xmlns="http://www.w3.org/2000/svg" xmlns:xlink="http://www.w3.org/1999/xlink" contentStyleType="text/css" height="357px" preserveAspectRatio="none" style="width:547px;height:357px;background:#FFFFFF;" version="1.1" viewBox="0 0 547 357" width="547px" zoomAndPan="magnify">
    <defs/>
    <g>
        <!--cluster com-->
        <g id="cluster_com">
            <path d="M8.5,6 L38.5,6 A3.75,3.75 0 0 1 41,8.5 L48,29.6094 L537.5,29.6094 A2.5,2.5 0 0 1 540,32.1094 L540,347.5 A2.5,2.5 0 0 1 537.5,350 L8.5,350 A2.5,2.5 0 0 1 6,347.5 L6,8.5 A2.5,2.5 0 0 1 8.5,6 " fill="none" style="stroke:#000000;stroke-width:1.5;"/>
            <line style="stroke:#000000;stroke-width:1.5;" x1="6" x2="48" y1="29.6094" y2="29.6094"/>
            <text fill="#000000" font-family="sans-serif" font-size="14" font-weight="bold" lengthAdjust="spacing" textLength="29" x="10" y="22.5332">com</text>
        </g>
        <!--cluster mycompany-->
        <g id="cluster_mycompany">
            <path d="M32.5,50 L114.5,50 A3.75,3.75 0 0 1 117,52.5 L124,73.6094 L513.5,73.6094 A2.5,2.5 0 0 1 516,76.1094 L516,323.5 A2.5,2.5 0 0 1 513.5,326 L32.5,326 A2.5,2.5 0 0 1 30,323.5 L30,52.5 A2.5,2.5 0 0 1 32.5,50 " fill="none" style="stroke:#000000;stroke-width:1.5;"/>
            <line style="stroke:#000000;stroke-width:1.5;" x1="30" x2="124" y1="73.6094" y2="73.6094"/>
            <text fill="#000000" font-family="sans-serif" font-size="14" font-weight="bold" lengthAdjust="spacing" textLength="81" x="34" y="66.5332">mycompany</text>
        </g>
        <!--cluster eva2_4_herencia_simpe-->
        <g id="cluster_eva2_4_herencia_simpe">
            <path d="M56.5,94 L227.5,94 A3.75,3.75 0 0 1 230,96.5 L237,117.6094 L489.5,117.6094 A2.5,2.5 0 0 1 492,120.1094 L492,299.5 A2.5,2.5 0 0 1 489.5,302 L56.5,302 A2.5,2.5 0 0 1 54,299.5 L54,96.5 A2.5,2.5 0 0 1 56.5,94 " fill="none" style="stroke:#000000;stroke-width:1.5;"/>
            <line style="stroke:#000000;stroke-width:1.5;" x1="54" x2="237" y1="117.6094" y2="117.6094"/>
            <text fill="#000000" font-family="sans-serif" font-size="14" font-weight="bold" lengthAdjust="spacing" textLength="170" x="58" y="110.5332">eva2_4_herencia_simpe</text>
        </g>
        <!--class EVA2_4_HERENCIA_SIMPE-->
        <g id="elem_EVA2_4_HERENCIA_SIMPE">
            <rect codeLine="1" fill="#F1F1F1" height="48" id="EVA2_4_HERENCIA_SIMPE" rx="2.5" ry="2.5" style="stroke:#181818;stroke-width:0.5;" width="208" x="268" y="130"/>
            <ellipse cx="283" cy="146" fill="#ADD1B2" rx="11" ry="11" style="stroke:#181818;stroke-width:1.0;"/>
            <path d="M285.7656,141.875 Q285.9219,141.6563 286.1094,141.5469 Q286.2969,141.4375 286.5156,141.4375 Q286.8906,141.4375 287.125,141.7031 Q287.3594,141.9531 287.3594,142.5625 L287.3594,144.0156 Q287.3594,144.625 287.125,144.8906 Q286.8906,145.1563 286.5156,145.1563 Q286.1719,145.1563 285.9688,144.9531 Q285.7656,144.7656 285.6563,144.25 Q285.6094,143.8906 285.4219,143.7031 Q285.0938,143.3281 284.4844,143.1094 Q283.875,142.8906 283.25,142.8906 Q282.4844,142.8906 281.8438,143.2188 Q281.2188,143.5469 280.7188,144.2969 Q280.2344,145.0469 280.2344,146.0781 L280.2344,147.1719 Q280.2344,148.4063 281.125,149.2344 Q282.0156,150.0469 283.6094,150.0469 Q284.5469,150.0469 285.2031,149.7969 Q285.5938,149.6406 286.0156,149.2031 Q286.2813,148.9375 286.4219,148.8594 Q286.5781,148.7813 286.7813,148.7813 Q287.1094,148.7813 287.3594,149.0469 Q287.625,149.2969 287.625,149.6406 Q287.625,149.9844 287.2813,150.3906 Q286.7813,150.9688 285.9844,151.2969 Q284.9063,151.75 283.6094,151.75 Q282.0938,151.75 280.8906,151.125 Q279.9063,150.625 279.2188,149.5625 Q278.5313,148.4844 278.5313,147.2031 L278.5313,146.0469 Q278.5313,144.7188 279.1406,143.5781 Q279.7656,142.4219 280.8594,141.8125 Q281.9531,141.1875 283.1875,141.1875 Q283.9219,141.1875 284.5625,141.3594 Q285.2188,141.5156 285.7656,141.875 Z " fill="#000000"/>
            <text fill="#000000" font-family="sans-serif" font-size="14" lengthAdjust="spacing" textLength="176" x="297" y="151.7285">EVA2_4_HERENCIA_SIMPE</text>
            <line style="stroke:#181818;stroke-width:0.5;" x1="269" x2="475" y1="162" y2="162"/>
            <line style="stroke:#181818;stroke-width:0.5;" x1="269" x2="475" y1="170" y2="170"/>
        </g>
        <!--class Hijo-->
        <g id="elem_Hijo">
            <rect codeLine="2" fill="#F1F1F1" height="48" id="Hijo" rx="2.5" ry="2.5" style="stroke:#181818;stroke-width:0.5;" width="55" x="177.5" y="130"/>
            <ellipse cx="192.5" cy="146" fill="#ADD1B2" rx="11" ry="11" style="stroke:#181818;stroke-width:1.0;"/>
            <path d="M195.2656,141.875 Q195.4219,141.6563 195.6094,141.5469 Q195.7969,141.4375 196.0156,141.4375 Q196.3906,141.4375 196.625,141.7031 Q196.8594,141.9531 196.8594,142.5625 L196.8594,144.0156 Q196.8594,144.625 196.625,144.8906 Q196.3906,145.1563 196.0156,145.1563 Q195.6719,145.1563 195.4688,144.9531 Q195.2656,144.7656 195.1563,144.25 Q195.1094,143.8906 194.9219,143.7031 Q194.5938,143.3281 193.9844,143.1094 Q193.375,142.8906 192.75,142.8906 Q191.9844,142.8906 191.3438,143.2188 Q190.7188,143.5469 190.2188,144.2969 Q189.7344,145.0469 189.7344,146.0781 L189.7344,147.1719 Q189.7344,148.4063 190.625,149.2344 Q191.5156,150.0469 193.1094,150.0469 Q194.0469,150.0469 194.7031,149.7969 Q195.0938,149.6406 195.5156,149.2031 Q195.7813,148.9375 195.9219,148.8594 Q196.0781,148.7813 196.2813,148.7813 Q196.6094,148.7813 196.8594,149.0469 Q197.125,149.2969 197.125,149.6406 Q197.125,149.9844 196.7813,150.3906 Q196.2813,150.9688 195.4844,151.2969 Q194.4063,151.75 193.1094,151.75 Q191.5938,151.75 190.3906,151.125 Q189.4063,150.625 188.7188,149.5625 Q188.0313,148.4844 188.0313,147.2031 L188.0313,146.0469 Q188.0313,144.7188 188.6406,143.5781 Q189.2656,142.4219 190.3594,141.8125 Q191.4531,141.1875 192.6875,141.1875 Q193.4219,141.1875 194.0625,141.3594 Q194.7188,141.5156 195.2656,141.875 Z " fill="#000000"/>
            <text fill="#000000" font-family="sans-serif" font-size="14" lengthAdjust="spacing" textLength="23" x="206.5" y="151.7285">Hijo</text>
            <line style="stroke:#181818;stroke-width:0.5;" x1="178.5" x2="231.5" y1="162" y2="162"/>
            <line style="stroke:#181818;stroke-width:0.5;" x1="178.5" x2="231.5" y1="170" y2="170"/>
        </g>
        <!--class Madre-->
        <g id="elem_Madre">
            <rect codeLine="3" fill="#F1F1F1" height="48" id="Madre" rx="2.5" ry="2.5" style="stroke:#181818;stroke-width:0.5;" width="72" x="70" y="130"/>
            <ellipse cx="85" cy="146" fill="#ADD1B2" rx="11" ry="11" style="stroke:#181818;stroke-width:1.0;"/>
            <path d="M87.7656,141.875 Q87.9219,141.6563 88.1094,141.5469 Q88.2969,141.4375 88.5156,141.4375 Q88.8906,141.4375 89.125,141.7031 Q89.3594,141.9531 89.3594,142.5625 L89.3594,144.0156 Q89.3594,144.625 89.125,144.8906 Q88.8906,145.1563 88.5156,145.1563 Q88.1719,145.1563 87.9688,144.9531 Q87.7656,144.7656 87.6563,144.25 Q87.6094,143.8906 87.4219,143.7031 Q87.0938,143.3281 86.4844,143.1094 Q85.875,142.8906 85.25,142.8906 Q84.4844,142.8906 83.8438,143.2188 Q83.2188,143.5469 82.7188,144.2969 Q82.2344,145.0469 82.2344,146.0781 L82.2344,147.1719 Q82.2344,148.4063 83.125,149.2344 Q84.0156,150.0469 85.6094,150.0469 Q86.5469,150.0469 87.2031,149.7969 Q87.5938,149.6406 88.0156,149.2031 Q88.2813,148.9375 88.4219,148.8594 Q88.5781,148.7813 88.7813,148.7813 Q89.1094,148.7813 89.3594,149.0469 Q89.625,149.2969 89.625,149.6406 Q89.625,149.9844 89.2813,150.3906 Q88.7813,150.9688 87.9844,151.2969 Q86.9063,151.75 85.6094,151.75 Q84.0938,151.75 82.8906,151.125 Q81.9063,150.625 81.2188,149.5625 Q80.5313,148.4844 80.5313,147.2031 L80.5313,146.0469 Q80.5313,144.7188 81.1406,143.5781 Q81.7656,142.4219 82.8594,141.8125 Q83.9531,141.1875 85.1875,141.1875 Q85.9219,141.1875 86.5625,141.3594 Q87.2188,141.5156 87.7656,141.875 Z " fill="#000000"/>
            <text fill="#000000" font-family="sans-serif" font-size="14" lengthAdjust="spacing" textLength="40" x="99" y="151.7285">Madre</text>
            <line style="stroke:#181818;stroke-width:0.5;" x1="71" x2="141" y1="162" y2="162"/>
            <line style="stroke:#181818;stroke-width:0.5;" x1="71" x2="141" y1="170" y2="170"/>
        </g>
        <!--class Padre-->
        <g id="elem_Padre">
            <rect codeLine="4" fill="#F1F1F1" height="48" id="Padre" rx="2.5" ry="2.5" style="stroke:#181818;stroke-width:0.5;" width="70" x="170" y="238"/>
            <ellipse cx="185" cy="254" fill="#ADD1B2" rx="11" ry="11" style="stroke:#181818;stroke-width:1.0;"/>
            <path d="M187.7656,249.875 Q187.9219,249.6563 188.1094,249.5469 Q188.2969,249.4375 188.5156,249.4375 Q188.8906,249.4375 189.125,249.7031 Q189.3594,249.9531 189.3594,250.5625 L189.3594,252.0156 Q189.3594,252.625 189.125,252.8906 Q188.8906,253.1563 188.5156,253.1563 Q188.1719,253.1563 187.9688,252.9531 Q187.7656,252.7656 187.6563,252.25 Q187.6094,251.8906 187.4219,251.7031 Q187.0938,251.3281 186.4844,251.1094 Q185.875,250.8906 185.25,250.8906 Q184.4844,250.8906 183.8438,251.2188 Q183.2188,251.5469 182.7188,252.2969 Q182.2344,253.0469 182.2344,254.0781 L182.2344,255.1719 Q182.2344,256.4063 183.125,257.2344 Q184.0156,258.0469 185.6094,258.0469 Q186.5469,258.0469 187.2031,257.7969 Q187.5938,257.6406 188.0156,257.2031 Q188.2813,256.9375 188.4219,256.8594 Q188.5781,256.7813 188.7813,256.7813 Q189.1094,256.7813 189.3594,257.0469 Q189.625,257.2969 189.625,257.6406 Q189.625,257.9844 189.2813,258.3906 Q188.7813,258.9688 187.9844,259.2969 Q186.9063,259.75 185.6094,259.75 Q184.0938,259.75 182.8906,259.125 Q181.9063,258.625 181.2188,257.5625 Q180.5313,256.4844 180.5313,255.2031 L180.5313,254.0469 Q180.5313,252.7188 181.1406,251.5781 Q181.7656,250.4219 182.8594,249.8125 Q183.9531,249.1875 185.1875,249.1875 Q185.9219,249.1875 186.5625,249.3594 Q187.2188,249.5156 187.7656,249.875 Z " fill="#000000"/>
            <text fill="#000000" font-family="sans-serif" font-size="14" lengthAdjust="spacing" textLength="38" x="199" y="259.7285">Padre</text>
            <line style="stroke:#181818;stroke-width:0.5;" x1="171" x2="239" y1="270" y2="270"/>
            <line style="stroke:#181818;stroke-width:0.5;" x1="171" x2="239" y1="278" y2="278"/>
        </g>
        <!--link Hijo to Padre-->
        <g id="link_Hijo_Padre">
            <path codeLine="5" d="M205,178 C205,195.66 205,201.94 205,219.68 " fill="none" id="Hijo-to-Padre" style="stroke:#181818;stroke-width:1.0;"/>
            <polygon fill="none" points="205,237.68,211,219.68,199,219.68,205,237.68" style="stroke:#181818;stroke-width:1.0;"/>
        </g>
        <!--SRC=[Iyv9B2vMICxFrSkj1985YNcLUgbbYKRn9l4PgKMfUScPYV75cRa5gNgkOOuWKG_N85S_Pq_7-61Ftm1NhcIYzNjaPkMJeDmtCQKebGJr0H3rH3f4GLUtnevuSm40]-->
    </g>
</svg>
