<?xml version="1.0" encoding="UTF-8"?><svg xmlns="http://www.w3.org/2000/svg" xmlns:xlink="http://www.w3.org/1999/xlink" contentStyleType="text/css" height="472px" preserveAspectRatio="none" style="width:1228px;height:472px;background:#FFFFFF;" version="1.1" viewBox="0 0 1228 472" width="1228px" zoomAndPan="magnify">
    <defs/>
    <g>
        <!--cluster java-->
        <g id="cluster_java">
            <path d="M161.5,229 L191.5,229 A3.75,3.75 0 0 1 194,231.5 L201,252.6094 L886.5,252.6094 A2.5,2.5 0 0 1 889,255.1094 L889,462.5 A2.5,2.5 0 0 1 886.5,465 L161.5,465 A2.5,2.5 0 0 1 159,462.5 L159,231.5 A2.5,2.5 0 0 1 161.5,229 " fill="none" style="stroke:#000000;stroke-width:1.5;"/>
            <line style="stroke:#000000;stroke-width:1.5;" x1="159" x2="201" y1="252.6094" y2="252.6094"/>
            <text fill="#000000" font-family="sans-serif" font-size="14" font-weight="bold" lengthAdjust="spacing" textLength="29" x="163" y="245.5332">java</text>
        </g>
        <!--cluster lang-->
        <g id="cluster_lang">
            <path d="M560.5,317 L591.5,317 A3.75,3.75 0 0 1 594,319.5 L601,340.6094 L862.5,340.6094 A2.5,2.5 0 0 1 865,343.1094 L865,414.5 A2.5,2.5 0 0 1 862.5,417 L560.5,417 A2.5,2.5 0 0 1 558,414.5 L558,319.5 A2.5,2.5 0 0 1 560.5,317 " fill="none" style="stroke:#000000;stroke-width:1.5;"/>
            <line style="stroke:#000000;stroke-width:1.5;" x1="558" x2="601" y1="340.6094" y2="340.6094"/>
            <text fill="#000000" font-family="sans-serif" font-size="14" font-weight="bold" lengthAdjust="spacing" textLength="30" x="562" y="333.5332">lang</text>
        </g>
        <!--cluster awt-->
        <g id="cluster_awt">
            <path d="M185.5,273 L210.5,273 A3.75,3.75 0 0 1 213,275.5 L220,296.6094 L531.5,296.6094 A2.5,2.5 0 0 1 534,299.1094 L534,438.5 A2.5,2.5 0 0 1 531.5,441 L185.5,441 A2.5,2.5 0 0 1 183,438.5 L183,275.5 A2.5,2.5 0 0 1 185.5,273 " fill="none" style="stroke:#000000;stroke-width:1.5;"/>
            <line style="stroke:#000000;stroke-width:1.5;" x1="183" x2="220" y1="296.6094" y2="296.6094"/>
            <text fill="#000000" font-family="sans-serif" font-size="14" font-weight="bold" lengthAdjust="spacing" textLength="24" x="187" y="289.5332">awt</text>
        </g>
        <!--cluster event-->
        <g id="cluster_event">
            <path d="M209.5,317 L251.5,317 A3.75,3.75 0 0 1 254,319.5 L261,340.6094 L507.5,340.6094 A2.5,2.5 0 0 1 510,343.1094 L510,414.5 A2.5,2.5 0 0 1 507.5,417 L209.5,417 A2.5,2.5 0 0 1 207,414.5 L207,319.5 A2.5,2.5 0 0 1 209.5,317 " fill="none" style="stroke:#000000;stroke-width:1.5;"/>
            <line style="stroke:#000000;stroke-width:1.5;" x1="207" x2="261" y1="340.6094" y2="340.6094"/>
            <text fill="#000000" font-family="sans-serif" font-size="14" font-weight="bold" lengthAdjust="spacing" textLength="41" x="211" y="333.5332">event</text>
        </g>
        <!--cluster eva2_17_ui_interfaces-->
        <g id="cluster_eva2_17_ui_interfaces">
            <path d="M670.5,50 L829.5,50 A3.75,3.75 0 0 1 832,52.5 L839,73.6094 L839.5,73.6094 A2.5,2.5 0 0 1 842,76.1094 L842,147.5 A2.5,2.5 0 0 1 839.5,150 L670.5,150 A2.5,2.5 0 0 1 668,147.5 L668,52.5 A2.5,2.5 0 0 1 670.5,50 " fill="none" style="stroke:#000000;stroke-width:1.5;"/>
            <line style="stroke:#000000;stroke-width:1.5;" x1="668" x2="839" y1="73.6094" y2="73.6094"/>
            <text fill="#000000" font-family="sans-serif" font-size="14" font-weight="bold" lengthAdjust="spacing" textLength="158" x="672" y="66.5332">eva2_17_ui_interfaces</text>
        </g>
        <!--cluster javax-->
        <g id="cluster_javax">
            <path d="M915.5,273 L953.5,273 A3.75,3.75 0 0 1 956,275.5 L963,296.6094 L1218.5,296.6094 A2.5,2.5 0 0 1 1221,299.1094 L1221,438.5 A2.5,2.5 0 0 1 1218.5,441 L915.5,441 A2.5,2.5 0 0 1 913,438.5 L913,275.5 A2.5,2.5 0 0 1 915.5,273 " fill="none" style="stroke:#000000;stroke-width:1.5;"/>
            <line style="stroke:#000000;stroke-width:1.5;" x1="913" x2="963" y1="296.6094" y2="296.6094"/>
            <text fill="#000000" font-family="sans-serif" font-size="14" font-weight="bold" lengthAdjust="spacing" textLength="37" x="917" y="289.5332">javax</text>
        </g>
        <!--cluster swing-->
        <g id="cluster_swing">
            <path d="M939.5,317 L981.5,317 A3.75,3.75 0 0 1 984,319.5 L991,340.6094 L1194.5,340.6094 A2.5,2.5 0 0 1 1197,343.1094 L1197,414.5 A2.5,2.5 0 0 1 1194.5,417 L939.5,417 A2.5,2.5 0 0 1 937,414.5 L937,319.5 A2.5,2.5 0 0 1 939.5,317 " fill="none" style="stroke:#000000;stroke-width:1.5;"/>
            <line style="stroke:#000000;stroke-width:1.5;" x1="937" x2="991" y1="340.6094" y2="340.6094"/>
            <text fill="#000000" font-family="sans-serif" font-size="14" font-weight="bold" lengthAdjust="spacing" textLength="41" x="941" y="333.5332">swing</text>
        </g>
        <!--class Override-->
        <g id="elem_Override">
            <rect codeLine="1" fill="#F1F1F1" height="48" id="Override" rx="2.5" ry="2.5" style="stroke:#181818;stroke-width:0.5;" width="87" x="761.5" y="353"/>
            <ellipse cx="776.5" cy="369" fill="#E3664A" rx="11" ry="11" style="stroke:#181818;stroke-width:1.0;"/>
            <path d="M778.8438,366.5781 L778.8438,366.0625 Q778.8438,365.2344 778.3594,364.7344 Q777.8906,364.2344 777.1406,364.2344 Q776.5469,364.2344 776.0156,364.6406 Q775.4844,365.0313 775.2188,365.6563 Q774.75,366.75 774.75,367.8594 L774.75,370.375 Q774.75,372.2969 775.6094,373.4219 Q776.1719,374.1719 777.1875,374.1719 Q777.7344,374.1719 778.1719,374.0313 Q778.625,373.8906 778.875,373.6406 Q779.125,373.3906 779.3438,373.3906 Q779.6094,373.3906 779.7969,373.5781 Q779.9844,373.7656 779.9844,374.0313 Q779.9844,374.4531 779.4063,374.8438 Q778.5781,375.4063 777.1406,375.4063 Q776.0469,375.4063 775.3281,374.9063 Q774.4063,374.2656 773.9531,373 Q773.5,371.7344 773.5,370.5 L773.5,367.7656 Q773.5,365.7813 774.4844,364.3906 Q775.4688,362.9844 777.1094,362.9844 Q777.8594,362.9844 778.5,363.2969 Q779.1563,363.5938 779.625,364.3594 Q780.0938,365.125 780.0938,366.0625 L780.0938,370.5938 Q780.4531,370.7656 780.4531,371.1563 Q780.4531,371.4375 780.25,371.625 Q780.0625,371.7969 779.5938,371.7969 L778.8438,371.7969 L778.8438,371.75 Q778.4531,371.8125 778.2656,371.8125 Q777.2656,371.8125 776.5156,371.0781 Q775.7813,370.3281 775.7813,369.3281 Q775.7813,368.2656 776.5938,367.4688 Q777.4219,366.6719 778.8438,366.5781 Z M778.8438,367.8594 Q777.9531,367.9531 777.4844,368.375 Q777.0313,368.7969 777.0313,369.3438 Q777.0313,369.8281 777.4063,370.1719 Q777.7969,370.5156 778.4375,370.5156 Q778.5625,370.5156 778.8438,370.5 L778.8438,367.8594 Z " fill="#000000"/>
            <text fill="#000000" font-family="sans-serif" font-size="14" lengthAdjust="spacing" textLength="55" x="790.5" y="374.7285">Override</text>
            <line style="stroke:#181818;stroke-width:0.5;" x1="762.5" x2="847.5" y1="385" y2="385"/>
            <line style="stroke:#181818;stroke-width:0.5;" x1="762.5" x2="847.5" y1="393" y2="393"/>
        </g>
        <!--class SuppressWarnings-->
        <g id="elem_SuppressWarnings">
            <rect codeLine="2" fill="#F1F1F1" height="48" id="SuppressWarnings" rx="2.5" ry="2.5" style="stroke:#181818;stroke-width:0.5;" width="152" x="574" y="353"/>
            <ellipse cx="589" cy="369" fill="#E3664A" rx="11" ry="11" style="stroke:#181818;stroke-width:1.0;"/>
            <path d="M591.3438,366.5781 L591.3438,366.0625 Q591.3438,365.2344 590.8594,364.7344 Q590.3906,364.2344 589.6406,364.2344 Q589.0469,364.2344 588.5156,364.6406 Q587.9844,365.0313 587.7188,365.6563 Q587.25,366.75 587.25,367.8594 L587.25,370.375 Q587.25,372.2969 588.1094,373.4219 Q588.6719,374.1719 589.6875,374.1719 Q590.2344,374.1719 590.6719,374.0313 Q591.125,373.8906 591.375,373.6406 Q591.625,373.3906 591.8438,373.3906 Q592.1094,373.3906 592.2969,373.5781 Q592.4844,373.7656 592.4844,374.0313 Q592.4844,374.4531 591.9063,374.8438 Q591.0781,375.4063 589.6406,375.4063 Q588.5469,375.4063 587.8281,374.9063 Q586.9063,374.2656 586.4531,373 Q586,371.7344 586,370.5 L586,367.7656 Q586,365.7813 586.9844,364.3906 Q587.9688,362.9844 589.6094,362.9844 Q590.3594,362.9844 591,363.2969 Q591.6563,363.5938 592.125,364.3594 Q592.5938,365.125 592.5938,366.0625 L592.5938,370.5938 Q592.9531,370.7656 592.9531,371.1563 Q592.9531,371.4375 592.75,371.625 Q592.5625,371.7969 592.0938,371.7969 L591.3438,371.7969 L591.3438,371.75 Q590.9531,371.8125 590.7656,371.8125 Q589.7656,371.8125 589.0156,371.0781 Q588.2813,370.3281 588.2813,369.3281 Q588.2813,368.2656 589.0938,367.4688 Q589.9219,366.6719 591.3438,366.5781 Z M591.3438,367.8594 Q590.4531,367.9531 589.9844,368.375 Q589.5313,368.7969 589.5313,369.3438 Q589.5313,369.8281 589.9063,370.1719 Q590.2969,370.5156 590.9375,370.5156 Q591.0625,370.5156 591.3438,370.5 L591.3438,367.8594 Z " fill="#000000"/>
            <text fill="#000000" font-family="sans-serif" font-size="14" lengthAdjust="spacing" textLength="120" x="603" y="374.7285">SuppressWarnings</text>
            <line style="stroke:#181818;stroke-width:0.5;" x1="575" x2="725" y1="385" y2="385"/>
            <line style="stroke:#181818;stroke-width:0.5;" x1="575" x2="725" y1="393" y2="393"/>
        </g>
        <!--class MouseEvent-->
        <g id="elem_MouseEvent">
            <rect codeLine="4" fill="#F1F1F1" height="48" id="MouseEvent" rx="2.5" ry="2.5" style="stroke:#181818;stroke-width:0.5;" width="110" x="384" y="353"/>
            <ellipse cx="399" cy="369" fill="#ADD1B2" rx="11" ry="11" style="stroke:#181818;stroke-width:1.0;"/>
            <path d="M401.7656,364.875 Q401.9219,364.6563 402.1094,364.5469 Q402.2969,364.4375 402.5156,364.4375 Q402.8906,364.4375 403.125,364.7031 Q403.3594,364.9531 403.3594,365.5625 L403.3594,367.0156 Q403.3594,367.625 403.125,367.8906 Q402.8906,368.1563 402.5156,368.1563 Q402.1719,368.1563 401.9688,367.9531 Q401.7656,367.7656 401.6563,367.25 Q401.6094,366.8906 401.4219,366.7031 Q401.0938,366.3281 400.4844,366.1094 Q399.875,365.8906 399.25,365.8906 Q398.4844,365.8906 397.8438,366.2188 Q397.2188,366.5469 396.7188,367.2969 Q396.2344,368.0469 396.2344,369.0781 L396.2344,370.1719 Q396.2344,371.4063 397.125,372.2344 Q398.0156,373.0469 399.6094,373.0469 Q400.5469,373.0469 401.2031,372.7969 Q401.5938,372.6406 402.0156,372.2031 Q402.2813,371.9375 402.4219,371.8594 Q402.5781,371.7813 402.7813,371.7813 Q403.1094,371.7813 403.3594,372.0469 Q403.625,372.2969 403.625,372.6406 Q403.625,372.9844 403.2813,373.3906 Q402.7813,373.9688 401.9844,374.2969 Q400.9063,374.75 399.6094,374.75 Q398.0938,374.75 396.8906,374.125 Q395.9063,373.625 395.2188,372.5625 Q394.5313,371.4844 394.5313,370.2031 L394.5313,369.0469 Q394.5313,367.7188 395.1406,366.5781 Q395.7656,365.4219 396.8594,364.8125 Q397.9531,364.1875 399.1875,364.1875 Q399.9219,364.1875 400.5625,364.3594 Q401.2188,364.5156 401.7656,364.875 Z " fill="#000000"/>
            <text fill="#000000" font-family="sans-serif" font-size="14" lengthAdjust="spacing" textLength="78" x="413" y="374.7285">MouseEvent</text>
            <line style="stroke:#181818;stroke-width:0.5;" x1="385" x2="493" y1="385" y2="385"/>
            <line style="stroke:#181818;stroke-width:0.5;" x1="385" x2="493" y1="393" y2="393"/>
        </g>
        <!--class MouseListener-->
        <g id="elem_MouseListener">
            <rect codeLine="7" fill="#F1F1F1" height="48" id="MouseListener" rx="2.5" ry="2.5" style="stroke:#181818;stroke-width:0.5;" width="126" x="223" y="353"/>
            <ellipse cx="238" cy="369" fill="#B4A7E5" rx="11" ry="11" style="stroke:#181818;stroke-width:1.0;"/>
            <path d="M238.9531,365.6406 L238.9531,372.2969 L240.6719,372.2969 Q241.2813,372.2969 241.5469,372.5313 Q241.8125,372.7656 241.8125,373.1563 Q241.8125,373.5313 241.5469,373.7656 Q241.2813,374 240.6719,374 L235.5313,374 Q234.9219,374 234.6563,373.7656 Q234.3906,373.5313 234.3906,373.1406 Q234.3906,372.7656 234.6563,372.5313 Q234.9219,372.2969 235.5313,372.2969 L237.25,372.2969 L237.25,365.6406 L235.5313,365.6406 Q234.9219,365.6406 234.6563,365.4063 Q234.3906,365.1719 234.3906,364.7813 Q234.3906,364.4063 234.6563,364.1719 Q234.9219,363.9375 235.5313,363.9375 L240.6719,363.9375 Q241.2813,363.9375 241.5469,364.1719 Q241.8125,364.4063 241.8125,364.7813 Q241.8125,365.1719 241.5469,365.4063 Q241.2813,365.6406 240.6719,365.6406 L238.9531,365.6406 Z " fill="#000000"/>
            <text fill="#000000" font-family="sans-serif" font-size="14" font-style="italic" lengthAdjust="spacing" textLength="94" x="252" y="374.7285">MouseListener</text>
            <line style="stroke:#181818;stroke-width:0.5;" x1="224" x2="348" y1="385" y2="385"/>
            <line style="stroke:#181818;stroke-width:0.5;" x1="224" x2="348" y1="393" y2="393"/>
        </g>
        <!--class Principal-->
        <g id="elem_Principal">
            <rect codeLine="3" fill="#F1F1F1" height="48" id="Principal" rx="2.5" ry="2.5" style="stroke:#181818;stroke-width:0.5;" width="86" x="685" y="86"/>
            <ellipse cx="700" cy="102" fill="#ADD1B2" rx="11" ry="11" style="stroke:#181818;stroke-width:1.0;"/>
            <path d="M702.7656,97.875 Q702.9219,97.6563 703.1094,97.5469 Q703.2969,97.4375 703.5156,97.4375 Q703.8906,97.4375 704.125,97.7031 Q704.3594,97.9531 704.3594,98.5625 L704.3594,100.0156 Q704.3594,100.625 704.125,100.8906 Q703.8906,101.1563 703.5156,101.1563 Q703.1719,101.1563 702.9688,100.9531 Q702.7656,100.7656 702.6563,100.25 Q702.6094,99.8906 702.4219,99.7031 Q702.0938,99.3281 701.4844,99.1094 Q700.875,98.8906 700.25,98.8906 Q699.4844,98.8906 698.8438,99.2188 Q698.2188,99.5469 697.7188,100.2969 Q697.2344,101.0469 697.2344,102.0781 L697.2344,103.1719 Q697.2344,104.4063 698.125,105.2344 Q699.0156,106.0469 700.6094,106.0469 Q701.5469,106.0469 702.2031,105.7969 Q702.5938,105.6406 703.0156,105.2031 Q703.2813,104.9375 703.4219,104.8594 Q703.5781,104.7813 703.7813,104.7813 Q704.1094,104.7813 704.3594,105.0469 Q704.625,105.2969 704.625,105.6406 Q704.625,105.9844 704.2813,106.3906 Q703.7813,106.9688 702.9844,107.2969 Q701.9063,107.75 700.6094,107.75 Q699.0938,107.75 697.8906,107.125 Q696.9063,106.625 696.2188,105.5625 Q695.5313,104.4844 695.5313,103.2031 L695.5313,102.0469 Q695.5313,100.7188 696.1406,99.5781 Q696.7656,98.4219 697.8594,97.8125 Q698.9531,97.1875 700.1875,97.1875 Q700.9219,97.1875 701.5625,97.3594 Q702.2188,97.5156 702.7656,97.875 Z " fill="#000000"/>
            <text fill="#000000" font-family="sans-serif" font-size="14" lengthAdjust="spacing" textLength="54" x="714" y="107.7285">Principal</text>
            <line style="stroke:#181818;stroke-width:0.5;" x1="686" x2="770" y1="118" y2="118"/>
            <line style="stroke:#181818;stroke-width:0.5;" x1="686" x2="770" y1="126" y2="126"/>
        </g>
        <!--class JFrame-->
        <g id="elem_JFrame">
            <rect codeLine="5" fill="#F1F1F1" height="48" id="JFrame" rx="2.5" ry="2.5" style="stroke:#181818;stroke-width:0.5;" width="79" x="1101.5" y="353"/>
            <ellipse cx="1116.5" cy="369" fill="#ADD1B2" rx="11" ry="11" style="stroke:#181818;stroke-width:1.0;"/>
            <path d="M1119.2656,364.875 Q1119.4219,364.6563 1119.6094,364.5469 Q1119.7969,364.4375 1120.0156,364.4375 Q1120.3906,364.4375 1120.625,364.7031 Q1120.8594,364.9531 1120.8594,365.5625 L1120.8594,367.0156 Q1120.8594,367.625 1120.625,367.8906 Q1120.3906,368.1563 1120.0156,368.1563 Q1119.6719,368.1563 1119.4688,367.9531 Q1119.2656,367.7656 1119.1563,367.25 Q1119.1094,366.8906 1118.9219,366.7031 Q1118.5938,366.3281 1117.9844,366.1094 Q1117.375,365.8906 1116.75,365.8906 Q1115.9844,365.8906 1115.3438,366.2188 Q1114.7188,366.5469 1114.2188,367.2969 Q1113.7344,368.0469 1113.7344,369.0781 L1113.7344,370.1719 Q1113.7344,371.4063 1114.625,372.2344 Q1115.5156,373.0469 1117.1094,373.0469 Q1118.0469,373.0469 1118.7031,372.7969 Q1119.0938,372.6406 1119.5156,372.2031 Q1119.7813,371.9375 1119.9219,371.8594 Q1120.0781,371.7813 1120.2813,371.7813 Q1120.6094,371.7813 1120.8594,372.0469 Q1121.125,372.2969 1121.125,372.6406 Q1121.125,372.9844 1120.7813,373.3906 Q1120.2813,373.9688 1119.4844,374.2969 Q1118.4063,374.75 1117.1094,374.75 Q1115.5938,374.75 1114.3906,374.125 Q1113.4063,373.625 1112.7188,372.5625 Q1112.0313,371.4844 1112.0313,370.2031 L1112.0313,369.0469 Q1112.0313,367.7188 1112.6406,366.5781 Q1113.2656,365.4219 1114.3594,364.8125 Q1115.4531,364.1875 1116.6875,364.1875 Q1117.4219,364.1875 1118.0625,364.3594 Q1118.7188,364.5156 1119.2656,364.875 Z " fill="#000000"/>
            <text fill="#000000" font-family="sans-serif" font-size="14" lengthAdjust="spacing" textLength="47" x="1130.5" y="374.7285">JFrame</text>
            <line style="stroke:#181818;stroke-width:0.5;" x1="1102.5" x2="1179.5" y1="385" y2="385"/>
            <line style="stroke:#181818;stroke-width:0.5;" x1="1102.5" x2="1179.5" y1="393" y2="393"/>
        </g>
        <!--class JOptionPane-->
        <g id="elem_JOptionPane">
            <rect codeLine="6" fill="#F1F1F1" height="48" id="JOptionPane" rx="2.5" ry="2.5" style="stroke:#181818;stroke-width:0.5;" width="113" x="953.5" y="353"/>
            <ellipse cx="968.5" cy="369" fill="#ADD1B2" rx="11" ry="11" style="stroke:#181818;stroke-width:1.0;"/>
            <path d="M971.2656,364.875 Q971.4219,364.6563 971.6094,364.5469 Q971.7969,364.4375 972.0156,364.4375 Q972.3906,364.4375 972.625,364.7031 Q972.8594,364.9531 972.8594,365.5625 L972.8594,367.0156 Q972.8594,367.625 972.625,367.8906 Q972.3906,368.1563 972.0156,368.1563 Q971.6719,368.1563 971.4688,367.9531 Q971.2656,367.7656 971.1563,367.25 Q971.1094,366.8906 970.9219,366.7031 Q970.5938,366.3281 969.9844,366.1094 Q969.375,365.8906 968.75,365.8906 Q967.9844,365.8906 967.3438,366.2188 Q966.7188,366.5469 966.2188,367.2969 Q965.7344,368.0469 965.7344,369.0781 L965.7344,370.1719 Q965.7344,371.4063 966.625,372.2344 Q967.5156,373.0469 969.1094,373.0469 Q970.0469,373.0469 970.7031,372.7969 Q971.0938,372.6406 971.5156,372.2031 Q971.7813,371.9375 971.9219,371.8594 Q972.0781,371.7813 972.2813,371.7813 Q972.6094,371.7813 972.8594,372.0469 Q973.125,372.2969 973.125,372.6406 Q973.125,372.9844 972.7813,373.3906 Q972.2813,373.9688 971.4844,374.2969 Q970.4063,374.75 969.1094,374.75 Q967.5938,374.75 966.3906,374.125 Q965.4063,373.625 964.7188,372.5625 Q964.0313,371.4844 964.0313,370.2031 L964.0313,369.0469 Q964.0313,367.7188 964.6406,366.5781 Q965.2656,365.4219 966.3594,364.8125 Q967.4531,364.1875 968.6875,364.1875 Q969.4219,364.1875 970.0625,364.3594 Q970.7188,364.5156 971.2656,364.875 Z " fill="#000000"/>
            <text fill="#000000" font-family="sans-serif" font-size="14" lengthAdjust="spacing" textLength="81" x="982.5" y="374.7285">JOptionPane</text>
            <line style="stroke:#181818;stroke-width:0.5;" x1="954.5" x2="1065.5" y1="385" y2="385"/>
            <line style="stroke:#181818;stroke-width:0.5;" x1="954.5" x2="1065.5" y1="393" y2="393"/>
        </g>
        <!--class MouseListener-->
        <g id="elem_MouseListener">
            <rect codeLine="14" fill="#F1F1F1" height="136.0469" id="MouseListener" rx="2.5" ry="2.5" style="stroke:#181818;stroke-width:0.5;" width="266" x="7" y="42"/>
            <ellipse cx="88.75" cy="58" fill="#B4A7E5" rx="11" ry="11" style="stroke:#181818;stroke-width:1.0;"/>
            <path d="M89.7031,54.6406 L89.7031,61.2969 L91.4219,61.2969 Q92.0313,61.2969 92.2969,61.5313 Q92.5625,61.7656 92.5625,62.1563 Q92.5625,62.5313 92.2969,62.7656 Q92.0313,63 91.4219,63 L86.2813,63 Q85.6719,63 85.4063,62.7656 Q85.1406,62.5313 85.1406,62.1406 Q85.1406,61.7656 85.4063,61.5313 Q85.6719,61.2969 86.2813,61.2969 L88,61.2969 L88,54.6406 L86.2813,54.6406 Q85.6719,54.6406 85.4063,54.4063 Q85.1406,54.1719 85.1406,53.7813 Q85.1406,53.4063 85.4063,53.1719 Q85.6719,52.9375 86.2813,52.9375 L91.4219,52.9375 Q92.0313,52.9375 92.2969,53.1719 Q92.5625,53.4063 92.5625,53.7813 Q92.5625,54.1719 92.2969,54.4063 Q92.0313,54.6406 91.4219,54.6406 L89.7031,54.6406 Z " fill="#000000"/>
            <text fill="#000000" font-family="sans-serif" font-size="14" font-style="italic" lengthAdjust="spacing" textLength="94" x="109.25" y="63.7285">MouseListener</text>
            <line style="stroke:#181818;stroke-width:0.5;" x1="8" x2="272" y1="74" y2="74"/>
            <line style="stroke:#181818;stroke-width:0.5;" x1="8" x2="272" y1="82" y2="82"/>
            <ellipse cx="18" cy="96.3047" fill="#84BE84" rx="3" ry="3" style="stroke:#038048;stroke-width:1.0;"/>
            <text fill="#000000" font-family="sans-serif" font-size="14" lengthAdjust="spacing" textLength="226" x="27" y="100.5332">mouseClicked(e: MouseEvent): void</text>
            <ellipse cx="18" cy="113.9141" fill="#84BE84" rx="3" ry="3" style="stroke:#038048;stroke-width:1.0;"/>
            <text fill="#000000" font-family="sans-serif" font-size="14" lengthAdjust="spacing" textLength="232" x="27" y="118.1426">mousePressed(e: MouseEvent): void</text>
            <ellipse cx="18" cy="131.5234" fill="#84BE84" rx="3" ry="3" style="stroke:#038048;stroke-width:1.0;"/>
            <text fill="#000000" font-family="sans-serif" font-size="14" lengthAdjust="spacing" textLength="240" x="27" y="135.752">mouseReleased(e: MouseEvent): void</text>
            <ellipse cx="18" cy="149.1328" fill="#84BE84" rx="3" ry="3" style="stroke:#038048;stroke-width:1.0;"/>
            <text fill="#000000" font-family="sans-serif" font-size="14" lengthAdjust="spacing" textLength="230" x="27" y="153.3613">mouseEntered(e: MouseEvent): void</text>
            <ellipse cx="18" cy="166.7422" fill="#84BE84" rx="3" ry="3" style="stroke:#038048;stroke-width:1.0;"/>
            <text fill="#000000" font-family="sans-serif" font-size="14" lengthAdjust="spacing" textLength="218" x="27" y="170.9707">mouseExited(e: MouseEvent): void</text>
        </g>
        <!--class Principal-->
        <g id="elem_Principal">
            <rect codeLine="22" fill="#F1F1F1" height="206.4844" id="Principal" rx="2.5" ry="2.5" style="stroke:#181818;stroke-width:0.5;" width="341" x="308.5" y="7"/>
            <ellipse cx="447.75" cy="23" fill="#ADD1B2" rx="11" ry="11" style="stroke:#181818;stroke-width:1.0;"/>
            <path d="M450.5156,18.875 Q450.6719,18.6563 450.8594,18.5469 Q451.0469,18.4375 451.2656,18.4375 Q451.6406,18.4375 451.875,18.7031 Q452.1094,18.9531 452.1094,19.5625 L452.1094,21.0156 Q452.1094,21.625 451.875,21.8906 Q451.6406,22.1563 451.2656,22.1563 Q450.9219,22.1563 450.7188,21.9531 Q450.5156,21.7656 450.4063,21.25 Q450.3594,20.8906 450.1719,20.7031 Q449.8438,20.3281 449.2344,20.1094 Q448.625,19.8906 448,19.8906 Q447.2344,19.8906 446.5938,20.2188 Q445.9688,20.5469 445.4688,21.2969 Q444.9844,22.0469 444.9844,23.0781 L444.9844,24.1719 Q444.9844,25.4063 445.875,26.2344 Q446.7656,27.0469 448.3594,27.0469 Q449.2969,27.0469 449.9531,26.7969 Q450.3438,26.6406 450.7656,26.2031 Q451.0313,25.9375 451.1719,25.8594 Q451.3281,25.7813 451.5313,25.7813 Q451.8594,25.7813 452.1094,26.0469 Q452.375,26.2969 452.375,26.6406 Q452.375,26.9844 452.0313,27.3906 Q451.5313,27.9688 450.7344,28.2969 Q449.6563,28.75 448.3594,28.75 Q446.8438,28.75 445.6406,28.125 Q444.6563,27.625 443.9688,26.5625 Q443.2813,25.4844 443.2813,24.2031 L443.2813,23.0469 Q443.2813,21.7188 443.8906,20.5781 Q444.5156,19.4219 445.6094,18.8125 Q446.7031,18.1875 447.9375,18.1875 Q448.6719,18.1875 449.3125,18.3594 Q449.9688,18.5156 450.5156,18.875 Z " fill="#000000"/>
            <text fill="#000000" font-family="sans-serif" font-size="14" lengthAdjust="spacing" textLength="54" x="468.25" y="28.7285">Principal</text>
            <line style="stroke:#181818;stroke-width:0.5;" x1="309.5" x2="648.5" y1="39" y2="39"/>
            <rect fill="none" height="6" style="stroke:#C82930;stroke-width:1.0;" width="6" x="316.5" y="50.3047"/>
            <text fill="#000000" font-family="sans-serif" font-size="14" lengthAdjust="spacing" textLength="119" x="328.5" y="57.5332">btnEvento: JButton</text>
            <line style="stroke:#181818;stroke-width:0.5;" x1="309.5" x2="648.5" y1="64.6094" y2="64.6094"/>
            <ellipse cx="319.5" cy="78.9141" fill="#84BE84" rx="3" ry="3" style="stroke:#038048;stroke-width:1.0;"/>
            <text fill="#000000" font-family="sans-serif" font-size="14" lengthAdjust="spacing" textLength="64" x="328.5" y="83.1426">Principal()</text>
            <ellipse cx="319.5" cy="96.5234" fill="#84BE84" rx="3" ry="3" style="stroke:#038048;stroke-width:1.0;"/>
            <text fill="#000000" font-family="sans-serif" font-size="14" lengthAdjust="spacing" textLength="142" x="328.5" y="100.752">initComponents(): void</text>
            <ellipse cx="319.5" cy="114.1328" fill="#84BE84" rx="3" ry="3" style="stroke:#038048;stroke-width:1.0;"/>
            <text fill="#000000" font-family="sans-serif" font-size="14" lengthAdjust="spacing" textLength="315" x="328.5" y="118.3613">btnEventoActionPerformed(evt: ActionEvent): void</text>
            <ellipse cx="319.5" cy="131.7422" fill="#84BE84" rx="3" ry="3" style="stroke:#038048;stroke-width:1.0;"/>
            <text fill="#000000" font-family="sans-serif" font-size="14" lengthAdjust="spacing" textLength="226" x="328.5" y="135.9707">mouseClicked(e: MouseEvent): void</text>
            <ellipse cx="319.5" cy="149.3516" fill="#84BE84" rx="3" ry="3" style="stroke:#038048;stroke-width:1.0;"/>
            <text fill="#000000" font-family="sans-serif" font-size="14" lengthAdjust="spacing" textLength="232" x="328.5" y="153.5801">mousePressed(e: MouseEvent): void</text>
            <ellipse cx="319.5" cy="166.9609" fill="#84BE84" rx="3" ry="3" style="stroke:#038048;stroke-width:1.0;"/>
            <text fill="#000000" font-family="sans-serif" font-size="14" lengthAdjust="spacing" textLength="240" x="328.5" y="171.1895">mouseReleased(e: MouseEvent): void</text>
            <ellipse cx="319.5" cy="184.5703" fill="#84BE84" rx="3" ry="3" style="stroke:#038048;stroke-width:1.0;"/>
            <text fill="#000000" font-family="sans-serif" font-size="14" lengthAdjust="spacing" textLength="230" x="328.5" y="188.7988">mouseEntered(e: MouseEvent): void</text>
            <ellipse cx="319.5" cy="202.1797" fill="#84BE84" rx="3" ry="3" style="stroke:#038048;stroke-width:1.0;"/>
            <text fill="#000000" font-family="sans-serif" font-size="14" lengthAdjust="spacing" textLength="218" x="328.5" y="206.4082">mouseExited(e: MouseEvent): void</text>
        </g>
        <!--link Principal to Override-->
        <g id="link_Principal_Override">
            <path codeLine="8" d="M734.7,134.05 C749.26,184.17 781.9856,296.8084 796.5856,347.0484 " fill="none" id="Principal-to-Override" style="stroke:#181818;stroke-width:1.0;stroke-dasharray:7.0,7.0;"/>
            <polygon fill="#181818" points="798.26,352.81,799.5896,343.0513,796.8647,348.0086,791.9074,345.2838,798.26,352.81" style="stroke:#181818;stroke-width:1.0;"/>
        </g>
        <!--link Principal to SuppressWarnings-->
        <g id="link_Principal_SuppressWarnings">
            <path codeLine="9" d="M721.21,134.05 C706.46,184.17 673.3034,296.8139 658.5234,347.0539 " fill="none" id="Principal-to-SuppressWarnings" style="stroke:#181818;stroke-width:1.0;stroke-dasharray:7.0,7.0;"/>
            <polygon fill="#181818" points="656.83,352.81,663.2074,345.3048,658.2411,348.0133,655.5327,343.047,656.83,352.81" style="stroke:#181818;stroke-width:1.0;"/>
        </g>
        <!--link Principal to MouseEvent-->
        <g id="link_Principal_MouseEvent">
            <path codeLine="10" d="M721.19,134.17 C712.74,158.37 695.8,195.24 667,213 C646.33,225.75 579.38,209.47 558,221 C503.21,250.55 468.3852,311.956 451.6052,347.436 " fill="none" id="Principal-to-MouseEvent" style="stroke:#181818;stroke-width:1.0;stroke-dasharray:7.0,7.0;"/>
            <polygon fill="#181818" points="449.04,352.86,456.5038,346.4342,451.1777,348.34,449.2719,343.0139,449.04,352.86" style="stroke:#181818;stroke-width:1.0;"/>
        </g>
        <!--link Principal to JFrame-->
        <g id="link_Principal_JFrame">
            <path codeLine="11" d="M771.04,112.43 C844.73,117.16 995.65,137.19 1084,221 C1121.55,256.62 1132.168,301.2091 1136.538,334.9491 " fill="none" id="Principal-to-JFrame" style="stroke:#181818;stroke-width:1.0;"/>
            <polygon fill="none" points="1138.85,352.8,1142.4883,334.1784,1130.5877,335.7198,1138.85,352.8" style="stroke:#181818;stroke-width:1.0;"/>
        </g>
        <!--link Principal to JOptionPane-->
        <g id="link_Principal_JOptionPane">
            <path codeLine="12" d="M759.23,134.05 C787.7,155.53 830.44,188.96 865,221 C912.56,265.09 959.3268,317.289 986.3668,348.439 " fill="none" id="Principal-to-JOptionPane" style="stroke:#181818;stroke-width:1.0;stroke-dasharray:7.0,7.0;"/>
            <polygon fill="#181818" points="990.3,352.97,987.4209,343.5514,987.0223,349.1942,981.3796,348.7956,990.3,352.97" style="stroke:#181818;stroke-width:1.0;"/>
        </g>
        <!--link Principal to MouseListener-->
        <g id="link_Principal_MouseListener">
            <path codeLine="13" d="M721.35,134.43 C713.03,158.86 696.21,195.92 667,213 C638.22,229.84 395.29,203.35 367,221 C319.73,250.5 302.6481,299.8088 294.4781,335.2988 " fill="none" id="Principal-to-MouseListener" style="stroke:#181818;stroke-width:1.0;"/>
            <polygon fill="none" points="290.44,352.84,300.3252,336.6448,288.631,333.9528,290.44,352.84" style="stroke:#181818;stroke-width:1.0;"/>
        </g>
        <!--SRC=[rP91IyD048Nl-HLxJ94iw4N8eQ2b7ehIe0UFOKocPJIP3RkRRK7zxoPfI5hSqdWqfsNcpPkttmQObGLBYiKxE905y5Qk7MfDEGRWwxxKLQNHc5VGJBmrGLQ0CG8TtAJNjsbDAR55lO4CZKmqSKOL5Bsgiu6TbUYGhNnIjS5bUppgxwNPDSPozQ2XH5zZNRMP4c0CXbrUwqSo5XbrS26Ta7Bk0_2tiLza9ezxYLoQZgAlkG_OrAq-d9DtdYKzFiX9NNm6elckHDbM5mLb7vY768lnmhDOE4NviIvfSKxGFME1C4MuRDDDqUt9dfDz1_q_EM8vN2uIRvOxgOh5whwsLd5lEaZ3MLyX9hjGPQMuqPlmDCFWSvTrJzCGLRfi0paRYqFnNFJ_pVO7]-->
    </g>
</svg>
