<?xml version="1.0" encoding="UTF-8"?><svg xmlns="http://www.w3.org/2000/svg" xmlns:xlink="http://www.w3.org/1999/xlink" contentStyleType="text/css" height="598px" preserveAspectRatio="none" style="width:1292px;height:598px;background:#FFFFFF;" version="1.1" viewBox="0 0 1292 598" width="1292px" zoomAndPan="magnify">
    <defs/>
    <g>
        <!--cluster java-->
        <g id="cluster_java">
            <path d="M1119.5,282 L1149.5,282 A3.75,3.75 0 0 1 1152,284.5 L1159,305.6094 L1282.5,305.6094 A2.5,2.5 0 0 1 1285,308.1094 L1285,447.5 A2.5,2.5 0 0 1 1282.5,450 L1119.5,450 A2.5,2.5 0 0 1 1117,447.5 L1117,284.5 A2.5,2.5 0 0 1 1119.5,282 " fill="none" style="stroke:#000000;stroke-width:1.5;"/>
            <line style="stroke:#000000;stroke-width:1.5;" x1="1117" x2="1159" y1="305.6094" y2="305.6094"/>
            <text fill="#000000" font-family="sans-serif" font-size="14" font-weight="bold" lengthAdjust="spacing" textLength="29" x="1121" y="298.5332">java</text>
        </g>
        <!--cluster lang-->
        <g id="cluster_lang">
            <path d="M1143.5,326 L1174.5,326 A3.75,3.75 0 0 1 1177,328.5 L1184,349.6094 L1258.5,349.6094 A2.5,2.5 0 0 1 1261,352.1094 L1261,423.5 A2.5,2.5 0 0 1 1258.5,426 L1143.5,426 A2.5,2.5 0 0 1 1141,423.5 L1141,328.5 A2.5,2.5 0 0 1 1143.5,326 " fill="none" style="stroke:#000000;stroke-width:1.5;"/>
            <line style="stroke:#000000;stroke-width:1.5;" x1="1141" x2="1184" y1="349.6094" y2="349.6094"/>
            <text fill="#000000" font-family="sans-serif" font-size="14" font-weight="bold" lengthAdjust="spacing" textLength="30" x="1145" y="342.5332">lang</text>
        </g>
        <!--cluster com-->
        <g id="cluster_com">
            <path d="M610.5,6 L640.5,6 A3.75,3.75 0 0 1 643,8.5 L650,29.6094 L1090.5,29.6094 A2.5,2.5 0 0 1 1093,32.1094 L1093,588.5 A2.5,2.5 0 0 1 1090.5,591 L610.5,591 A2.5,2.5 0 0 1 608,588.5 L608,8.5 A2.5,2.5 0 0 1 610.5,6 " fill="none" style="stroke:#000000;stroke-width:1.5;"/>
            <line style="stroke:#000000;stroke-width:1.5;" x1="608" x2="650" y1="29.6094" y2="29.6094"/>
            <text fill="#000000" font-family="sans-serif" font-size="14" font-weight="bold" lengthAdjust="spacing" textLength="29" x="612" y="22.5332">com</text>
        </g>
        <!--cluster mycompany-->
        <g id="cluster_mycompany">
            <path d="M634.5,50 L716.5,50 A3.75,3.75 0 0 1 719,52.5 L726,73.6094 L1066.5,73.6094 A2.5,2.5 0 0 1 1069,76.1094 L1069,564.5 A2.5,2.5 0 0 1 1066.5,567 L634.5,567 A2.5,2.5 0 0 1 632,564.5 L632,52.5 A2.5,2.5 0 0 1 634.5,50 " fill="none" style="stroke:#000000;stroke-width:1.5;"/>
            <line style="stroke:#000000;stroke-width:1.5;" x1="632" x2="726" y1="73.6094" y2="73.6094"/>
            <text fill="#000000" font-family="sans-serif" font-size="14" font-weight="bold" lengthAdjust="spacing" textLength="81" x="636" y="66.5332">mycompany</text>
        </g>
        <!--cluster eva2_9_extends_interfaz-->
        <g id="cluster_eva2_9_extends_interfaz">
            <path d="M658.5,94 L835.5,94 A3.75,3.75 0 0 1 838,96.5 L845,117.6094 L1042.5,117.6094 A2.5,2.5 0 0 1 1045,120.1094 L1045,540.5 A2.5,2.5 0 0 1 1042.5,543 L658.5,543 A2.5,2.5 0 0 1 656,540.5 L656,96.5 A2.5,2.5 0 0 1 658.5,94 " fill="none" style="stroke:#000000;stroke-width:1.5;"/>
            <line style="stroke:#000000;stroke-width:1.5;" x1="656" x2="845" y1="117.6094" y2="117.6094"/>
            <text fill="#000000" font-family="sans-serif" font-size="14" font-weight="bold" lengthAdjust="spacing" textLength="176" x="660" y="110.5332">eva2_9_extends_interfaz</text>
        </g>
        <!--class Override-->
        <g id="elem_Override">
            <rect codeLine="1" fill="#F1F1F1" height="48" id="Override" rx="2.5" ry="2.5" style="stroke:#181818;stroke-width:0.5;" width="87" x="1157.5" y="362"/>
            <ellipse cx="1172.5" cy="378" fill="#E3664A" rx="11" ry="11" style="stroke:#181818;stroke-width:1.0;"/>
            <path d="M1174.8438,375.5781 L1174.8438,375.0625 Q1174.8438,374.2344 1174.3594,373.7344 Q1173.8906,373.2344 1173.1406,373.2344 Q1172.5469,373.2344 1172.0156,373.6406 Q1171.4844,374.0313 1171.2188,374.6563 Q1170.75,375.75 1170.75,376.8594 L1170.75,379.375 Q1170.75,381.2969 1171.6094,382.4219 Q1172.1719,383.1719 1173.1875,383.1719 Q1173.7344,383.1719 1174.1719,383.0313 Q1174.625,382.8906 1174.875,382.6406 Q1175.125,382.3906 1175.3438,382.3906 Q1175.6094,382.3906 1175.7969,382.5781 Q1175.9844,382.7656 1175.9844,383.0313 Q1175.9844,383.4531 1175.4063,383.8438 Q1174.5781,384.4063 1173.1406,384.4063 Q1172.0469,384.4063 1171.3281,383.9063 Q1170.4063,383.2656 1169.9531,382 Q1169.5,380.7344 1169.5,379.5 L1169.5,376.7656 Q1169.5,374.7813 1170.4844,373.3906 Q1171.4688,371.9844 1173.1094,371.9844 Q1173.8594,371.9844 1174.5,372.2969 Q1175.1563,372.5938 1175.625,373.3594 Q1176.0938,374.125 1176.0938,375.0625 L1176.0938,379.5938 Q1176.4531,379.7656 1176.4531,380.1563 Q1176.4531,380.4375 1176.25,380.625 Q1176.0625,380.7969 1175.5938,380.7969 L1174.8438,380.7969 L1174.8438,380.75 Q1174.4531,380.8125 1174.2656,380.8125 Q1173.2656,380.8125 1172.5156,380.0781 Q1171.7813,379.3281 1171.7813,378.3281 Q1171.7813,377.2656 1172.5938,376.4688 Q1173.4219,375.6719 1174.8438,375.5781 Z M1174.8438,376.8594 Q1173.9531,376.9531 1173.4844,377.375 Q1173.0313,377.7969 1173.0313,378.3438 Q1173.0313,378.8281 1173.4063,379.1719 Q1173.7969,379.5156 1174.4375,379.5156 Q1174.5625,379.5156 1174.8438,379.5 L1174.8438,376.8594 Z " fill="#000000"/>
            <text fill="#000000" font-family="sans-serif" font-size="14" lengthAdjust="spacing" textLength="55" x="1186.5" y="383.7285">Override</text>
            <line style="stroke:#181818;stroke-width:0.5;" x1="1158.5" x2="1243.5" y1="394" y2="394"/>
            <line style="stroke:#181818;stroke-width:0.5;" x1="1158.5" x2="1243.5" y1="402" y2="402"/>
        </g>
        <!--class Automovil-->
        <g id="elem_Automovil">
            <rect codeLine="2" fill="#F1F1F1" height="48" id="Automovil" rx="2.5" ry="2.5" style="stroke:#181818;stroke-width:0.5;" width="93" x="935.5" y="130"/>
            <ellipse cx="950.5" cy="146" fill="#ADD1B2" rx="11" ry="11" style="stroke:#181818;stroke-width:1.0;"/>
            <path d="M953.2656,141.875 Q953.4219,141.6563 953.6094,141.5469 Q953.7969,141.4375 954.0156,141.4375 Q954.3906,141.4375 954.625,141.7031 Q954.8594,141.9531 954.8594,142.5625 L954.8594,144.0156 Q954.8594,144.625 954.625,144.8906 Q954.3906,145.1563 954.0156,145.1563 Q953.6719,145.1563 953.4688,144.9531 Q953.2656,144.7656 953.1563,144.25 Q953.1094,143.8906 952.9219,143.7031 Q952.5938,143.3281 951.9844,143.1094 Q951.375,142.8906 950.75,142.8906 Q949.9844,142.8906 949.3438,143.2188 Q948.7188,143.5469 948.2188,144.2969 Q947.7344,145.0469 947.7344,146.0781 L947.7344,147.1719 Q947.7344,148.4063 948.625,149.2344 Q949.5156,150.0469 951.1094,150.0469 Q952.0469,150.0469 952.7031,149.7969 Q953.0938,149.6406 953.5156,149.2031 Q953.7813,148.9375 953.9219,148.8594 Q954.0781,148.7813 954.2813,148.7813 Q954.6094,148.7813 954.8594,149.0469 Q955.125,149.2969 955.125,149.6406 Q955.125,149.9844 954.7813,150.3906 Q954.2813,150.9688 953.4844,151.2969 Q952.4063,151.75 951.1094,151.75 Q949.5938,151.75 948.3906,151.125 Q947.4063,150.625 946.7188,149.5625 Q946.0313,148.4844 946.0313,147.2031 L946.0313,146.0469 Q946.0313,144.7188 946.6406,143.5781 Q947.2656,142.4219 948.3594,141.8125 Q949.4531,141.1875 950.6875,141.1875 Q951.4219,141.1875 952.0625,141.3594 Q952.7188,141.5156 953.2656,141.875 Z " fill="#000000"/>
            <text fill="#000000" font-family="sans-serif" font-size="14" lengthAdjust="spacing" textLength="61" x="964.5" y="151.7285">Automovil</text>
            <line style="stroke:#181818;stroke-width:0.5;" x1="936.5" x2="1027.5" y1="162" y2="162"/>
            <line style="stroke:#181818;stroke-width:0.5;" x1="936.5" x2="1027.5" y1="170" y2="170"/>
        </g>
        <!--class EVA2_9_EXTENDS_INTERFAZ-->
        <g id="elem_EVA2_9_EXTENDS_INTERFAZ">
            <rect codeLine="3" fill="#F1F1F1" height="48" id="EVA2_9_EXTENDS_INTERFAZ" rx="2.5" ry="2.5" style="stroke:#181818;stroke-width:0.5;" width="228" x="672" y="130"/>
            <ellipse cx="687" cy="146" fill="#ADD1B2" rx="11" ry="11" style="stroke:#181818;stroke-width:1.0;"/>
            <path d="M689.7656,141.875 Q689.9219,141.6563 690.1094,141.5469 Q690.2969,141.4375 690.5156,141.4375 Q690.8906,141.4375 691.125,141.7031 Q691.3594,141.9531 691.3594,142.5625 L691.3594,144.0156 Q691.3594,144.625 691.125,144.8906 Q690.8906,145.1563 690.5156,145.1563 Q690.1719,145.1563 689.9688,144.9531 Q689.7656,144.7656 689.6563,144.25 Q689.6094,143.8906 689.4219,143.7031 Q689.0938,143.3281 688.4844,143.1094 Q687.875,142.8906 687.25,142.8906 Q686.4844,142.8906 685.8438,143.2188 Q685.2188,143.5469 684.7188,144.2969 Q684.2344,145.0469 684.2344,146.0781 L684.2344,147.1719 Q684.2344,148.4063 685.125,149.2344 Q686.0156,150.0469 687.6094,150.0469 Q688.5469,150.0469 689.2031,149.7969 Q689.5938,149.6406 690.0156,149.2031 Q690.2813,148.9375 690.4219,148.8594 Q690.5781,148.7813 690.7813,148.7813 Q691.1094,148.7813 691.3594,149.0469 Q691.625,149.2969 691.625,149.6406 Q691.625,149.9844 691.2813,150.3906 Q690.7813,150.9688 689.9844,151.2969 Q688.9063,151.75 687.6094,151.75 Q686.0938,151.75 684.8906,151.125 Q683.9063,150.625 683.2188,149.5625 Q682.5313,148.4844 682.5313,147.2031 L682.5313,146.0469 Q682.5313,144.7188 683.1406,143.5781 Q683.7656,142.4219 684.8594,141.8125 Q685.9531,141.1875 687.1875,141.1875 Q687.9219,141.1875 688.5625,141.3594 Q689.2188,141.5156 689.7656,141.875 Z " fill="#000000"/>
            <text fill="#000000" font-family="sans-serif" font-size="14" lengthAdjust="spacing" textLength="196" x="701" y="151.7285">EVA2_9_EXTENDS_INTERFAZ</text>
            <line style="stroke:#181818;stroke-width:0.5;" x1="673" x2="899" y1="162" y2="162"/>
            <line style="stroke:#181818;stroke-width:0.5;" x1="673" x2="899" y1="170" y2="170"/>
        </g>
        <!--class Extras-->
        <g id="elem_Extras">
            <rect codeLine="4" fill="#F1F1F1" height="48" id="Extras" rx="2.5" ry="2.5" style="stroke:#181818;stroke-width:0.5;" width="71" x="925.5" y="479"/>
            <ellipse cx="940.5" cy="495" fill="#B4A7E5" rx="11" ry="11" style="stroke:#181818;stroke-width:1.0;"/>
            <path d="M941.4531,491.6406 L941.4531,498.2969 L943.1719,498.2969 Q943.7813,498.2969 944.0469,498.5313 Q944.3125,498.7656 944.3125,499.1563 Q944.3125,499.5313 944.0469,499.7656 Q943.7813,500 943.1719,500 L938.0313,500 Q937.4219,500 937.1563,499.7656 Q936.8906,499.5313 936.8906,499.1406 Q936.8906,498.7656 937.1563,498.5313 Q937.4219,498.2969 938.0313,498.2969 L939.75,498.2969 L939.75,491.6406 L938.0313,491.6406 Q937.4219,491.6406 937.1563,491.4063 Q936.8906,491.1719 936.8906,490.7813 Q936.8906,490.4063 937.1563,490.1719 Q937.4219,489.9375 938.0313,489.9375 L943.1719,489.9375 Q943.7813,489.9375 944.0469,490.1719 Q944.3125,490.4063 944.3125,490.7813 Q944.3125,491.1719 944.0469,491.4063 Q943.7813,491.6406 943.1719,491.6406 L941.4531,491.6406 Z " fill="#000000"/>
            <text fill="#000000" font-family="sans-serif" font-size="14" font-style="italic" lengthAdjust="spacing" textLength="39" x="954.5" y="500.7285">Extras</text>
            <line style="stroke:#181818;stroke-width:0.5;" x1="926.5" x2="995.5" y1="511" y2="511"/>
            <line style="stroke:#181818;stroke-width:0.5;" x1="926.5" x2="995.5" y1="519" y2="519"/>
        </g>
        <!--class MostrarMensaje-->
        <g id="elem_MostrarMensaje">
            <rect codeLine="5" fill="#F1F1F1" height="48" id="MostrarMensaje" rx="2.5" ry="2.5" style="stroke:#181818;stroke-width:0.5;" width="135" x="893.5" y="362"/>
            <ellipse cx="908.5" cy="378" fill="#B4A7E5" rx="11" ry="11" style="stroke:#181818;stroke-width:1.0;"/>
            <path d="M909.4531,374.6406 L909.4531,381.2969 L911.1719,381.2969 Q911.7813,381.2969 912.0469,381.5313 Q912.3125,381.7656 912.3125,382.1563 Q912.3125,382.5313 912.0469,382.7656 Q911.7813,383 911.1719,383 L906.0313,383 Q905.4219,383 905.1563,382.7656 Q904.8906,382.5313 904.8906,382.1406 Q904.8906,381.7656 905.1563,381.5313 Q905.4219,381.2969 906.0313,381.2969 L907.75,381.2969 L907.75,374.6406 L906.0313,374.6406 Q905.4219,374.6406 905.1563,374.4063 Q904.8906,374.1719 904.8906,373.7813 Q904.8906,373.4063 905.1563,373.1719 Q905.4219,372.9375 906.0313,372.9375 L911.1719,372.9375 Q911.7813,372.9375 912.0469,373.1719 Q912.3125,373.4063 912.3125,373.7813 Q912.3125,374.1719 912.0469,374.4063 Q911.7813,374.6406 911.1719,374.6406 L909.4531,374.6406 Z " fill="#000000"/>
            <text fill="#000000" font-family="sans-serif" font-size="14" font-style="italic" lengthAdjust="spacing" textLength="103" x="922.5" y="383.7285">MostrarMensaje</text>
            <line style="stroke:#181818;stroke-width:0.5;" x1="894.5" x2="1027.5" y1="394" y2="394"/>
            <line style="stroke:#181818;stroke-width:0.5;" x1="894.5" x2="1027.5" y1="402" y2="402"/>
        </g>
        <!--class Automovil-->
        <g id="elem_Automovil">
            <rect codeLine="9" fill="#F1F1F1" height="224.0938" id="Automovil" rx="2.5" ry="2.5" style="stroke:#181818;stroke-width:0.5;" width="280" x="7" y="42"/>
            <ellipse cx="112.25" cy="58" fill="#ADD1B2" rx="11" ry="11" style="stroke:#181818;stroke-width:1.0;"/>
            <path d="M115.0156,53.875 Q115.1719,53.6563 115.3594,53.5469 Q115.5469,53.4375 115.7656,53.4375 Q116.1406,53.4375 116.375,53.7031 Q116.6094,53.9531 116.6094,54.5625 L116.6094,56.0156 Q116.6094,56.625 116.375,56.8906 Q116.1406,57.1563 115.7656,57.1563 Q115.4219,57.1563 115.2188,56.9531 Q115.0156,56.7656 114.9063,56.25 Q114.8594,55.8906 114.6719,55.7031 Q114.3438,55.3281 113.7344,55.1094 Q113.125,54.8906 112.5,54.8906 Q111.7344,54.8906 111.0938,55.2188 Q110.4688,55.5469 109.9688,56.2969 Q109.4844,57.0469 109.4844,58.0781 L109.4844,59.1719 Q109.4844,60.4063 110.375,61.2344 Q111.2656,62.0469 112.8594,62.0469 Q113.7969,62.0469 114.4531,61.7969 Q114.8438,61.6406 115.2656,61.2031 Q115.5313,60.9375 115.6719,60.8594 Q115.8281,60.7813 116.0313,60.7813 Q116.3594,60.7813 116.6094,61.0469 Q116.875,61.2969 116.875,61.6406 Q116.875,61.9844 116.5313,62.3906 Q116.0313,62.9688 115.2344,63.2969 Q114.1563,63.75 112.8594,63.75 Q111.3438,63.75 110.1406,63.125 Q109.1563,62.625 108.4688,61.5625 Q107.7813,60.4844 107.7813,59.2031 L107.7813,58.0469 Q107.7813,56.7188 108.3906,55.5781 Q109.0156,54.4219 110.1094,53.8125 Q111.2031,53.1875 112.4375,53.1875 Q113.1719,53.1875 113.8125,53.3594 Q114.4688,53.5156 115.0156,53.875 Z " fill="#000000"/>
            <text fill="#000000" font-family="sans-serif" font-size="14" lengthAdjust="spacing" textLength="61" x="132.75" y="63.7285">Automovil</text>
            <line style="stroke:#181818;stroke-width:0.5;" x1="8" x2="286" y1="74" y2="74"/>
            <rect fill="none" height="6" style="stroke:#C82930;stroke-width:1.0;" width="6" x="15" y="85.3047"/>
            <text fill="#000000" font-family="sans-serif" font-size="14" lengthAdjust="spacing" textLength="84" x="27" y="92.5332">marca: String</text>
            <rect fill="none" height="6" style="stroke:#C82930;stroke-width:1.0;" width="6" x="15" y="102.9141"/>
            <text fill="#000000" font-family="sans-serif" font-size="14" lengthAdjust="spacing" textLength="91" x="27" y="110.1426">modelo: String</text>
            <line style="stroke:#181818;stroke-width:0.5;" x1="8" x2="286" y1="117.2188" y2="117.2188"/>
            <ellipse cx="18" cy="131.5234" fill="#84BE84" rx="3" ry="3" style="stroke:#038048;stroke-width:1.0;"/>
            <text fill="#000000" font-family="sans-serif" font-size="14" lengthAdjust="spacing" textLength="71" x="27" y="135.752">Automovil()</text>
            <ellipse cx="18" cy="149.1328" fill="#84BE84" rx="3" ry="3" style="stroke:#038048;stroke-width:1.0;"/>
            <text fill="#000000" font-family="sans-serif" font-size="14" lengthAdjust="spacing" textLength="254" x="27" y="153.3613">Automovil(marca: String, modelo: String)</text>
            <ellipse cx="18" cy="166.7422" fill="#84BE84" rx="3" ry="3" style="stroke:#038048;stroke-width:1.0;"/>
            <text fill="#000000" font-family="sans-serif" font-size="14" lengthAdjust="spacing" textLength="114" x="27" y="170.9707">getMarca(): String</text>
            <ellipse cx="18" cy="184.3516" fill="#84BE84" rx="3" ry="3" style="stroke:#038048;stroke-width:1.0;"/>
            <text fill="#000000" font-family="sans-serif" font-size="14" lengthAdjust="spacing" textLength="186" x="27" y="188.5801">setMarca(marca: String): void</text>
            <ellipse cx="18" cy="201.9609" fill="#84BE84" rx="3" ry="3" style="stroke:#038048;stroke-width:1.0;"/>
            <text fill="#000000" font-family="sans-serif" font-size="14" lengthAdjust="spacing" textLength="121" x="27" y="206.1895">getModelo(): String</text>
            <ellipse cx="18" cy="219.5703" fill="#84BE84" rx="3" ry="3" style="stroke:#038048;stroke-width:1.0;"/>
            <text fill="#000000" font-family="sans-serif" font-size="14" lengthAdjust="spacing" textLength="200" x="27" y="223.7988">setModelo(modelo: String): void</text>
            <ellipse cx="18" cy="237.1797" fill="#84BE84" rx="3" ry="3" style="stroke:#038048;stroke-width:1.0;"/>
            <text fill="#000000" font-family="sans-serif" font-size="14" lengthAdjust="spacing" textLength="145" x="27" y="241.4082">mostrarMensaje(): void</text>
            <ellipse cx="18" cy="254.7891" fill="#84BE84" rx="3" ry="3" style="stroke:#038048;stroke-width:1.0;"/>
            <text fill="#000000" font-family="sans-serif" font-size="14" lengthAdjust="spacing" textLength="243" x="27" y="259.0176">mostrarMensaje(mensaje: String): void</text>
        </g>
        <!--class Extras-->
        <g id="elem_Extras">
            <rect codeLine="22" fill="#F1F1F1" height="65.6094" id="Extras" rx="2.5" ry="2.5" style="stroke:#181818;stroke-width:0.5;" width="269" x="322.5" y="121"/>
            <ellipse cx="433.25" cy="137" fill="#B4A7E5" rx="11" ry="11" style="stroke:#181818;stroke-width:1.0;"/>
            <path d="M434.2031,133.6406 L434.2031,140.2969 L435.9219,140.2969 Q436.5313,140.2969 436.7969,140.5313 Q437.0625,140.7656 437.0625,141.1563 Q437.0625,141.5313 436.7969,141.7656 Q436.5313,142 435.9219,142 L430.7813,142 Q430.1719,142 429.9063,141.7656 Q429.6406,141.5313 429.6406,141.1406 Q429.6406,140.7656 429.9063,140.5313 Q430.1719,140.2969 430.7813,140.2969 L432.5,140.2969 L432.5,133.6406 L430.7813,133.6406 Q430.1719,133.6406 429.9063,133.4063 Q429.6406,133.1719 429.6406,132.7813 Q429.6406,132.4063 429.9063,132.1719 Q430.1719,131.9375 430.7813,131.9375 L435.9219,131.9375 Q436.5313,131.9375 436.7969,132.1719 Q437.0625,132.4063 437.0625,132.7813 Q437.0625,133.1719 436.7969,133.4063 Q436.5313,133.6406 435.9219,133.6406 L434.2031,133.6406 Z " fill="#000000"/>
            <text fill="#000000" font-family="sans-serif" font-size="14" font-style="italic" lengthAdjust="spacing" textLength="39" x="453.75" y="142.7285">Extras</text>
            <line style="stroke:#181818;stroke-width:0.5;" x1="323.5" x2="590.5" y1="153" y2="153"/>
            <line style="stroke:#181818;stroke-width:0.5;" x1="323.5" x2="590.5" y1="161" y2="161"/>
            <ellipse cx="333.5" cy="175.3047" fill="#84BE84" rx="3" ry="3" style="stroke:#038048;stroke-width:1.0;"/>
            <text fill="#000000" font-family="sans-serif" font-size="14" lengthAdjust="spacing" textLength="243" x="342.5" y="179.5332">mostrarMensaje(mensaje: String): void</text>
        </g>
        <!--class MostrarMensaje-->
        <g id="elem_MostrarMensaje">
            <rect codeLine="26" fill="#F1F1F1" height="65.6094" id="MostrarMensaje" rx="2.5" ry="2.5" style="stroke:#181818;stroke-width:0.5;" width="171" x="61.5" y="353"/>
            <ellipse cx="92.7" cy="369" fill="#B4A7E5" rx="11" ry="11" style="stroke:#181818;stroke-width:1.0;"/>
            <path d="M93.6531,365.6406 L93.6531,372.2969 L95.3719,372.2969 Q95.9813,372.2969 96.2469,372.5313 Q96.5125,372.7656 96.5125,373.1563 Q96.5125,373.5313 96.2469,373.7656 Q95.9813,374 95.3719,374 L90.2313,374 Q89.6219,374 89.3563,373.7656 Q89.0906,373.5313 89.0906,373.1406 Q89.0906,372.7656 89.3563,372.5313 Q89.6219,372.2969 90.2313,372.2969 L91.95,372.2969 L91.95,365.6406 L90.2313,365.6406 Q89.6219,365.6406 89.3563,365.4063 Q89.0906,365.1719 89.0906,364.7813 Q89.0906,364.4063 89.3563,364.1719 Q89.6219,363.9375 90.2313,363.9375 L95.3719,363.9375 Q95.9813,363.9375 96.2469,364.1719 Q96.5125,364.4063 96.5125,364.7813 Q96.5125,365.1719 96.2469,365.4063 Q95.9813,365.6406 95.3719,365.6406 L93.6531,365.6406 Z " fill="#000000"/>
            <text fill="#000000" font-family="sans-serif" font-size="14" font-style="italic" lengthAdjust="spacing" textLength="103" x="110.3" y="374.7285">MostrarMensaje</text>
            <line style="stroke:#181818;stroke-width:0.5;" x1="62.5" x2="231.5" y1="385" y2="385"/>
            <line style="stroke:#181818;stroke-width:0.5;" x1="62.5" x2="231.5" y1="393" y2="393"/>
            <ellipse cx="72.5" cy="407.3047" fill="#84BE84" rx="3" ry="3" style="stroke:#038048;stroke-width:1.0;"/>
            <text fill="#000000" font-family="sans-serif" font-size="14" lengthAdjust="spacing" textLength="145" x="81.5" y="411.5332">mostrarMensaje(): void</text>
        </g>
        <!--link Automovil to Override-->
        <g id="link_Automovil_Override">
            <path codeLine="6" d="M1004.2,178.32 C1046.29,222.52 1133.0529,313.6344 1174.9229,357.6144 " fill="none" id="Automovil-to-Override" style="stroke:#181818;stroke-width:1.0;stroke-dasharray:7.0,7.0;"/>
            <polygon fill="#181818" points="1179.06,361.96,1175.7514,352.6835,1175.6124,358.3387,1169.9573,358.1997,1179.06,361.96" style="stroke:#181818;stroke-width:1.0;"/>
        </g>
        <!--link Automovil to MostrarMensaje-->
        <g id="link_Automovil_MostrarMensaje">
            <path codeLine="7" d="M979.87,178.32 C975.84,222.52 968.7585,300.0547 964.7385,344.0347 " fill="none" id="Automovil-to-MostrarMensaje" style="stroke:#181818;stroke-width:1.0;"/>
            <polygon fill="none" points="963.1,361.96,970.7136,344.5809,958.7634,343.4886,963.1,361.96" style="stroke:#181818;stroke-width:1.0;"/>
        </g>
        <!--link MostrarMensaje to Extras-->
        <g id="link_MostrarMensaje_Extras">
            <path codeLine="8" d="M961,410.27 C961,430.22 961,440.82 961,460.76 " fill="none" id="MostrarMensaje-to-Extras" style="stroke:#181818;stroke-width:1.0;"/>
            <polygon fill="none" points="961,478.76,967,460.76,955,460.76,961,478.76" style="stroke:#181818;stroke-width:1.0;"/>
        </g>
        <!--SRC=[jP8nQyCm48Lt_mgD3garT6k7WA4kT70AJIYbYpdiYr6mf2Af8ccQ_rubjXlB3I4Qwi66T_U-EpqPX90639E2hC42RK3KzDcYKgp2g6n0Qr9AJldMlJz0R2bQk2tk2jmO59Kkc32eLl15qqyZkRIi2N9bh-b1pzwMsVnXKJpDbzdBO_eUTGqbNilP60Kws9PBxNmgHw5XxSuRTb92wUniR86O9FcU_UV2lYbaN1ThUwEdXNSHSKz2EAWIxid2A2RgNfCLDl9NFAhJapUU_54yoiq8qBVNQF93Nppnvas9xWiUndLPoQg1-KWzwsuhex6Udti1nXUBlFsEGVl1lzccsgLuFM106DtexlAU-ny0]-->
    </g>
</svg>
