<?xml version="1.0" encoding="UTF-8"?><svg xmlns="http://www.w3.org/2000/svg" xmlns:xlink="http://www.w3.org/1999/xlink" contentStyleType="text/css" height="663px" preserveAspectRatio="none" style="width:1248px;height:663px;background:#FFFFFF;" version="1.1" viewBox="0 0 1248 663" width="1248px" zoomAndPan="magnify">
    <defs/>
    <g>
        <!--cluster java-->
        <g id="cluster_java">
            <path d="M1043,488.5 L1073,488.5 A3.75,3.75 0 0 1 1075.5,491 L1082.5,512.1094 L1206,512.1094 A2.5,2.5 0 0 1 1208.5,514.6094 L1208.5,654 A2.5,2.5 0 0 1 1206,656.5 L1043,656.5 A2.5,2.5 0 0 1 1040.5,654 L1040.5,491 A2.5,2.5 0 0 1 1043,488.5 " fill="none" style="stroke:#000000;stroke-width:1.5;"/>
            <line style="stroke:#000000;stroke-width:1.5;" x1="1040.5" x2="1082.5" y1="512.1094" y2="512.1094"/>
            <text fill="#000000" font-family="sans-serif" font-size="14" font-weight="bold" lengthAdjust="spacing" textLength="29" x="1044.5" y="505.0332">java</text>
        </g>
        <!--cluster lang-->
        <g id="cluster_lang">
            <path d="M1067,532.5 L1098,532.5 A3.75,3.75 0 0 1 1100.5,535 L1107.5,556.1094 L1182,556.1094 A2.5,2.5 0 0 1 1184.5,558.6094 L1184.5,630 A2.5,2.5 0 0 1 1182,632.5 L1067,632.5 A2.5,2.5 0 0 1 1064.5,630 L1064.5,535 A2.5,2.5 0 0 1 1067,532.5 " fill="none" style="stroke:#000000;stroke-width:1.5;"/>
            <line style="stroke:#000000;stroke-width:1.5;" x1="1064.5" x2="1107.5" y1="556.1094" y2="556.1094"/>
            <text fill="#000000" font-family="sans-serif" font-size="14" font-weight="bold" lengthAdjust="spacing" textLength="30" x="1068.5" y="549.0332">lang</text>
        </g>
        <!--cluster com-->
        <g id="cluster_com">
            <path d="M787,6 L817,6 A3.75,3.75 0 0 1 819.5,8.5 L826.5,29.6094 L1239,29.6094 A2.5,2.5 0 0 1 1241.5,32.1094 L1241.5,462 A2.5,2.5 0 0 1 1239,464.5 L787,464.5 A2.5,2.5 0 0 1 784.5,462 L784.5,8.5 A2.5,2.5 0 0 1 787,6 " fill="none" style="stroke:#000000;stroke-width:1.5;"/>
            <line style="stroke:#000000;stroke-width:1.5;" x1="784.5" x2="826.5" y1="29.6094" y2="29.6094"/>
            <text fill="#000000" font-family="sans-serif" font-size="14" font-weight="bold" lengthAdjust="spacing" textLength="29" x="788.5" y="22.5332">com</text>
        </g>
        <!--cluster mycompany-->
        <g id="cluster_mycompany">
            <path d="M811,50 L893,50 A3.75,3.75 0 0 1 895.5,52.5 L902.5,73.6094 L1215,73.6094 A2.5,2.5 0 0 1 1217.5,76.1094 L1217.5,438 A2.5,2.5 0 0 1 1215,440.5 L811,440.5 A2.5,2.5 0 0 1 808.5,438 L808.5,52.5 A2.5,2.5 0 0 1 811,50 " fill="none" style="stroke:#000000;stroke-width:1.5;"/>
            <line style="stroke:#000000;stroke-width:1.5;" x1="808.5" x2="902.5" y1="73.6094" y2="73.6094"/>
            <text fill="#000000" font-family="sans-serif" font-size="14" font-weight="bold" lengthAdjust="spacing" textLength="81" x="812.5" y="66.5332">mycompany</text>
        </g>
        <!--cluster eva2_3_sobreescritura-->
        <g id="cluster_eva2_3_sobreescritura">
            <path d="M835,94 L998,94 A3.75,3.75 0 0 1 1000.5,96.5 L1007.5,117.6094 L1191,117.6094 A2.5,2.5 0 0 1 1193.5,120.1094 L1193.5,414 A2.5,2.5 0 0 1 1191,416.5 L835,416.5 A2.5,2.5 0 0 1 832.5,414 L832.5,96.5 A2.5,2.5 0 0 1 835,94 " fill="none" style="stroke:#000000;stroke-width:1.5;"/>
            <line style="stroke:#000000;stroke-width:1.5;" x1="832.5" x2="1007.5" y1="117.6094" y2="117.6094"/>
            <text fill="#000000" font-family="sans-serif" font-size="14" font-weight="bold" lengthAdjust="spacing" textLength="162" x="836.5" y="110.5332">eva2_3_sobreescritura</text>
        </g>
        <!--class Override-->
        <g id="elem_Override">
            <rect codeLine="1" fill="#F1F1F1" height="48" id="Override" rx="2.5" ry="2.5" style="stroke:#181818;stroke-width:0.5;" width="87" x="1081" y="568.5"/>
            <ellipse cx="1096" cy="584.5" fill="#E3664A" rx="11" ry="11" style="stroke:#181818;stroke-width:1.0;"/>
            <path d="M1098.3438,582.0781 L1098.3438,581.5625 Q1098.3438,580.7344 1097.8594,580.2344 Q1097.3906,579.7344 1096.6406,579.7344 Q1096.0469,579.7344 1095.5156,580.1406 Q1094.9844,580.5313 1094.7188,581.1563 Q1094.25,582.25 1094.25,583.3594 L1094.25,585.875 Q1094.25,587.7969 1095.1094,588.9219 Q1095.6719,589.6719 1096.6875,589.6719 Q1097.2344,589.6719 1097.6719,589.5313 Q1098.125,589.3906 1098.375,589.1406 Q1098.625,588.8906 1098.8438,588.8906 Q1099.1094,588.8906 1099.2969,589.0781 Q1099.4844,589.2656 1099.4844,589.5313 Q1099.4844,589.9531 1098.9063,590.3438 Q1098.0781,590.9063 1096.6406,590.9063 Q1095.5469,590.9063 1094.8281,590.4063 Q1093.9063,589.7656 1093.4531,588.5 Q1093,587.2344 1093,586 L1093,583.2656 Q1093,581.2813 1093.9844,579.8906 Q1094.9688,578.4844 1096.6094,578.4844 Q1097.3594,578.4844 1098,578.7969 Q1098.6563,579.0938 1099.125,579.8594 Q1099.5938,580.625 1099.5938,581.5625 L1099.5938,586.0938 Q1099.9531,586.2656 1099.9531,586.6563 Q1099.9531,586.9375 1099.75,587.125 Q1099.5625,587.2969 1099.0938,587.2969 L1098.3438,587.2969 L1098.3438,587.25 Q1097.9531,587.3125 1097.7656,587.3125 Q1096.7656,587.3125 1096.0156,586.5781 Q1095.2813,585.8281 1095.2813,584.8281 Q1095.2813,583.7656 1096.0938,582.9688 Q1096.9219,582.1719 1098.3438,582.0781 Z M1098.3438,583.3594 Q1097.4531,583.4531 1096.9844,583.875 Q1096.5313,584.2969 1096.5313,584.8438 Q1096.5313,585.3281 1096.9063,585.6719 Q1097.2969,586.0156 1097.9375,586.0156 Q1098.0625,586.0156 1098.3438,586 L1098.3438,583.3594 Z " fill="#000000"/>
            <text fill="#000000" font-family="sans-serif" font-size="14" lengthAdjust="spacing" textLength="55" x="1110" y="590.2285">Override</text>
            <line style="stroke:#181818;stroke-width:0.5;" x1="1082" x2="1167" y1="600.5" y2="600.5"/>
            <line style="stroke:#181818;stroke-width:0.5;" x1="1082" x2="1167" y1="608.5" y2="608.5"/>
        </g>
        <!--class Cliente-->
        <g id="elem_Cliente">
            <rect codeLine="2" fill="#F1F1F1" height="48" id="Cliente" rx="2.5" ry="2.5" style="stroke:#181818;stroke-width:0.5;" width="76" x="1101.5" y="130"/>
            <ellipse cx="1116.5" cy="146" fill="#ADD1B2" rx="11" ry="11" style="stroke:#181818;stroke-width:1.0;"/>
            <path d="M1119.2656,141.875 Q1119.4219,141.6563 1119.6094,141.5469 Q1119.7969,141.4375 1120.0156,141.4375 Q1120.3906,141.4375 1120.625,141.7031 Q1120.8594,141.9531 1120.8594,142.5625 L1120.8594,144.0156 Q1120.8594,144.625 1120.625,144.8906 Q1120.3906,145.1563 1120.0156,145.1563 Q1119.6719,145.1563 1119.4688,144.9531 Q1119.2656,144.7656 1119.1563,144.25 Q1119.1094,143.8906 1118.9219,143.7031 Q1118.5938,143.3281 1117.9844,143.1094 Q1117.375,142.8906 1116.75,142.8906 Q1115.9844,142.8906 1115.3438,143.2188 Q1114.7188,143.5469 1114.2188,144.2969 Q1113.7344,145.0469 1113.7344,146.0781 L1113.7344,147.1719 Q1113.7344,148.4063 1114.625,149.2344 Q1115.5156,150.0469 1117.1094,150.0469 Q1118.0469,150.0469 1118.7031,149.7969 Q1119.0938,149.6406 1119.5156,149.2031 Q1119.7813,148.9375 1119.9219,148.8594 Q1120.0781,148.7813 1120.2813,148.7813 Q1120.6094,148.7813 1120.8594,149.0469 Q1121.125,149.2969 1121.125,149.6406 Q1121.125,149.9844 1120.7813,150.3906 Q1120.2813,150.9688 1119.4844,151.2969 Q1118.4063,151.75 1117.1094,151.75 Q1115.5938,151.75 1114.3906,151.125 Q1113.4063,150.625 1112.7188,149.5625 Q1112.0313,148.4844 1112.0313,147.2031 L1112.0313,146.0469 Q1112.0313,144.7188 1112.6406,143.5781 Q1113.2656,142.4219 1114.3594,141.8125 Q1115.4531,141.1875 1116.6875,141.1875 Q1117.4219,141.1875 1118.0625,141.3594 Q1118.7188,141.5156 1119.2656,141.875 Z " fill="#000000"/>
            <text fill="#000000" font-family="sans-serif" font-size="14" lengthAdjust="spacing" textLength="44" x="1130.5" y="151.7285">Cliente</text>
            <line style="stroke:#181818;stroke-width:0.5;" x1="1102.5" x2="1176.5" y1="162" y2="162"/>
            <line style="stroke:#181818;stroke-width:0.5;" x1="1102.5" x2="1176.5" y1="170" y2="170"/>
        </g>
        <!--class EVA2_3_SOBREESCRITURA-->
        <g id="elem_EVA2_3_SOBREESCRITURA">
            <rect codeLine="3" fill="#F1F1F1" height="48" id="EVA2_3_SOBREESCRITURA" rx="2.5" ry="2.5" style="stroke:#181818;stroke-width:0.5;" width="217" x="849" y="130"/>
            <ellipse cx="864" cy="146" fill="#ADD1B2" rx="11" ry="11" style="stroke:#181818;stroke-width:1.0;"/>
            <path d="M866.7656,141.875 Q866.9219,141.6563 867.1094,141.5469 Q867.2969,141.4375 867.5156,141.4375 Q867.8906,141.4375 868.125,141.7031 Q868.3594,141.9531 868.3594,142.5625 L868.3594,144.0156 Q868.3594,144.625 868.125,144.8906 Q867.8906,145.1563 867.5156,145.1563 Q867.1719,145.1563 866.9688,144.9531 Q866.7656,144.7656 866.6563,144.25 Q866.6094,143.8906 866.4219,143.7031 Q866.0938,143.3281 865.4844,143.1094 Q864.875,142.8906 864.25,142.8906 Q863.4844,142.8906 862.8438,143.2188 Q862.2188,143.5469 861.7188,144.2969 Q861.2344,145.0469 861.2344,146.0781 L861.2344,147.1719 Q861.2344,148.4063 862.125,149.2344 Q863.0156,150.0469 864.6094,150.0469 Q865.5469,150.0469 866.2031,149.7969 Q866.5938,149.6406 867.0156,149.2031 Q867.2813,148.9375 867.4219,148.8594 Q867.5781,148.7813 867.7813,148.7813 Q868.1094,148.7813 868.3594,149.0469 Q868.625,149.2969 868.625,149.6406 Q868.625,149.9844 868.2813,150.3906 Q867.7813,150.9688 866.9844,151.2969 Q865.9063,151.75 864.6094,151.75 Q863.0938,151.75 861.8906,151.125 Q860.9063,150.625 860.2188,149.5625 Q859.5313,148.4844 859.5313,147.2031 L859.5313,146.0469 Q859.5313,144.7188 860.1406,143.5781 Q860.7656,142.4219 861.8594,141.8125 Q862.9531,141.1875 864.1875,141.1875 Q864.9219,141.1875 865.5625,141.3594 Q866.2188,141.5156 866.7656,141.875 Z " fill="#000000"/>
            <text fill="#000000" font-family="sans-serif" font-size="14" lengthAdjust="spacing" textLength="185" x="878" y="151.7285">EVA2_3_SOBREESCRITURA</text>
            <line style="stroke:#181818;stroke-width:0.5;" x1="850" x2="1065" y1="162" y2="162"/>
            <line style="stroke:#181818;stroke-width:0.5;" x1="850" x2="1065" y1="170" y2="170"/>
        </g>
        <!--class Persona-->
        <g id="elem_Persona">
            <rect codeLine="4" fill="#F1F1F1" height="48" id="Persona" rx="2.5" ry="2.5" style="stroke:#181818;stroke-width:0.5;" width="85" x="1034" y="352.5"/>
            <ellipse cx="1049" cy="368.5" fill="#ADD1B2" rx="11" ry="11" style="stroke:#181818;stroke-width:1.0;"/>
            <path d="M1051.7656,364.375 Q1051.9219,364.1563 1052.1094,364.0469 Q1052.2969,363.9375 1052.5156,363.9375 Q1052.8906,363.9375 1053.125,364.2031 Q1053.3594,364.4531 1053.3594,365.0625 L1053.3594,366.5156 Q1053.3594,367.125 1053.125,367.3906 Q1052.8906,367.6563 1052.5156,367.6563 Q1052.1719,367.6563 1051.9688,367.4531 Q1051.7656,367.2656 1051.6563,366.75 Q1051.6094,366.3906 1051.4219,366.2031 Q1051.0938,365.8281 1050.4844,365.6094 Q1049.875,365.3906 1049.25,365.3906 Q1048.4844,365.3906 1047.8438,365.7188 Q1047.2188,366.0469 1046.7188,366.7969 Q1046.2344,367.5469 1046.2344,368.5781 L1046.2344,369.6719 Q1046.2344,370.9063 1047.125,371.7344 Q1048.0156,372.5469 1049.6094,372.5469 Q1050.5469,372.5469 1051.2031,372.2969 Q1051.5938,372.1406 1052.0156,371.7031 Q1052.2813,371.4375 1052.4219,371.3594 Q1052.5781,371.2813 1052.7813,371.2813 Q1053.1094,371.2813 1053.3594,371.5469 Q1053.625,371.7969 1053.625,372.1406 Q1053.625,372.4844 1053.2813,372.8906 Q1052.7813,373.4688 1051.9844,373.7969 Q1050.9063,374.25 1049.6094,374.25 Q1048.0938,374.25 1046.8906,373.625 Q1045.9063,373.125 1045.2188,372.0625 Q1044.5313,370.9844 1044.5313,369.7031 L1044.5313,368.5469 Q1044.5313,367.2188 1045.1406,366.0781 Q1045.7656,364.9219 1046.8594,364.3125 Q1047.9531,363.6875 1049.1875,363.6875 Q1049.9219,363.6875 1050.5625,363.8594 Q1051.2188,364.0156 1051.7656,364.375 Z " fill="#000000"/>
            <text fill="#000000" font-family="sans-serif" font-size="14" lengthAdjust="spacing" textLength="53" x="1063" y="374.2285">Persona</text>
            <line style="stroke:#181818;stroke-width:0.5;" x1="1035" x2="1118" y1="384.5" y2="384.5"/>
            <line style="stroke:#181818;stroke-width:0.5;" x1="1035" x2="1118" y1="392.5" y2="392.5"/>
        </g>
        <!--class Cliente-->
        <g id="elem_Cliente">
            <rect codeLine="8" fill="#F1F1F1" height="171.2656" id="Cliente" rx="2.5" ry="2.5" style="stroke:#181818;stroke-width:0.5;" width="391" x="7" y="68.5"/>
            <ellipse cx="176.25" cy="84.5" fill="#ADD1B2" rx="11" ry="11" style="stroke:#181818;stroke-width:1.0;"/>
            <path d="M179.0156,80.375 Q179.1719,80.1563 179.3594,80.0469 Q179.5469,79.9375 179.7656,79.9375 Q180.1406,79.9375 180.375,80.2031 Q180.6094,80.4531 180.6094,81.0625 L180.6094,82.5156 Q180.6094,83.125 180.375,83.3906 Q180.1406,83.6563 179.7656,83.6563 Q179.4219,83.6563 179.2188,83.4531 Q179.0156,83.2656 178.9063,82.75 Q178.8594,82.3906 178.6719,82.2031 Q178.3438,81.8281 177.7344,81.6094 Q177.125,81.3906 176.5,81.3906 Q175.7344,81.3906 175.0938,81.7188 Q174.4688,82.0469 173.9688,82.7969 Q173.4844,83.5469 173.4844,84.5781 L173.4844,85.6719 Q173.4844,86.9063 174.375,87.7344 Q175.2656,88.5469 176.8594,88.5469 Q177.7969,88.5469 178.4531,88.2969 Q178.8438,88.1406 179.2656,87.7031 Q179.5313,87.4375 179.6719,87.3594 Q179.8281,87.2813 180.0313,87.2813 Q180.3594,87.2813 180.6094,87.5469 Q180.875,87.7969 180.875,88.1406 Q180.875,88.4844 180.5313,88.8906 Q180.0313,89.4688 179.2344,89.7969 Q178.1563,90.25 176.8594,90.25 Q175.3438,90.25 174.1406,89.625 Q173.1563,89.125 172.4688,88.0625 Q171.7813,86.9844 171.7813,85.7031 L171.7813,84.5469 Q171.7813,83.2188 172.3906,82.0781 Q173.0156,80.9219 174.1094,80.3125 Q175.2031,79.6875 176.4375,79.6875 Q177.1719,79.6875 177.8125,79.8594 Q178.4688,80.0156 179.0156,80.375 Z " fill="#000000"/>
            <text fill="#000000" font-family="sans-serif" font-size="14" lengthAdjust="spacing" textLength="44" x="196.75" y="90.2285">Cliente</text>
            <line style="stroke:#181818;stroke-width:0.5;" x1="8" x2="397" y1="100.5" y2="100.5"/>
            <rect fill="none" height="6" style="stroke:#C82930;stroke-width:1.0;" width="6" x="15" y="111.8047"/>
            <text fill="#000000" font-family="sans-serif" font-size="14" lengthAdjust="spacing" textLength="57" x="27" y="119.0332">String rfc</text>
            <line style="stroke:#181818;stroke-width:0.5;" x1="8" x2="397" y1="126.1094" y2="126.1094"/>
            <ellipse cx="18" cy="140.4141" fill="#84BE84" rx="3" ry="3" style="stroke:#038048;stroke-width:1.0;"/>
            <text fill="#000000" font-family="sans-serif" font-size="14" lengthAdjust="spacing" textLength="54" x="27" y="144.6426">Cliente()</text>
            <ellipse cx="18" cy="158.0234" fill="#84BE84" rx="3" ry="3" style="stroke:#038048;stroke-width:1.0;"/>
            <text fill="#000000" font-family="sans-serif" font-size="14" lengthAdjust="spacing" textLength="365" x="27" y="162.252">Cliente(String nombre, String apellido, int edad, String rfc)</text>
            <ellipse cx="18" cy="175.6328" fill="#84BE84" rx="3" ry="3" style="stroke:#038048;stroke-width:1.0;"/>
            <text fill="#000000" font-family="sans-serif" font-size="14" lengthAdjust="spacing" textLength="92" x="27" y="179.8613">String getRfc()</text>
            <ellipse cx="18" cy="193.2422" fill="#84BE84" rx="3" ry="3" style="stroke:#038048;stroke-width:1.0;"/>
            <text fill="#000000" font-family="sans-serif" font-size="14" lengthAdjust="spacing" textLength="137" x="27" y="197.4707">void setRfc(String rfc)</text>
            <ellipse cx="18" cy="210.8516" fill="#84BE84" rx="3" ry="3" style="stroke:#038048;stroke-width:1.0;"/>
            <text fill="#000000" font-family="sans-serif" font-size="14" lengthAdjust="spacing" textLength="126" x="27" y="215.0801">void imprimirDatos()</text>
            <ellipse cx="18" cy="228.4609" fill="#84BE84" rx="3" ry="3" style="stroke:#038048;stroke-width:1.0;"/>
            <text fill="#000000" font-family="sans-serif" font-size="14" lengthAdjust="spacing" textLength="100" x="27" y="232.6895">String toString()</text>
        </g>
        <!--class Persona-->
        <g id="elem_Persona">
            <rect codeLine="17" fill="#F1F1F1" height="276.9219" id="Persona" rx="2.5" ry="2.5" style="stroke:#181818;stroke-width:0.5;" width="335" x="433" y="15.5"/>
            <ellipse cx="569.75" cy="31.5" fill="#ADD1B2" rx="11" ry="11" style="stroke:#181818;stroke-width:1.0;"/>
            <path d="M572.5156,27.375 Q572.6719,27.1563 572.8594,27.0469 Q573.0469,26.9375 573.2656,26.9375 Q573.6406,26.9375 573.875,27.2031 Q574.1094,27.4531 574.1094,28.0625 L574.1094,29.5156 Q574.1094,30.125 573.875,30.3906 Q573.6406,30.6563 573.2656,30.6563 Q572.9219,30.6563 572.7188,30.4531 Q572.5156,30.2656 572.4063,29.75 Q572.3594,29.3906 572.1719,29.2031 Q571.8438,28.8281 571.2344,28.6094 Q570.625,28.3906 570,28.3906 Q569.2344,28.3906 568.5938,28.7188 Q567.9688,29.0469 567.4688,29.7969 Q566.9844,30.5469 566.9844,31.5781 L566.9844,32.6719 Q566.9844,33.9063 567.875,34.7344 Q568.7656,35.5469 570.3594,35.5469 Q571.2969,35.5469 571.9531,35.2969 Q572.3438,35.1406 572.7656,34.7031 Q573.0313,34.4375 573.1719,34.3594 Q573.3281,34.2813 573.5313,34.2813 Q573.8594,34.2813 574.1094,34.5469 Q574.375,34.7969 574.375,35.1406 Q574.375,35.4844 574.0313,35.8906 Q573.5313,36.4688 572.7344,36.7969 Q571.6563,37.25 570.3594,37.25 Q568.8438,37.25 567.6406,36.625 Q566.6563,36.125 565.9688,35.0625 Q565.2813,33.9844 565.2813,32.7031 L565.2813,31.5469 Q565.2813,30.2188 565.8906,29.0781 Q566.5156,27.9219 567.6094,27.3125 Q568.7031,26.6875 569.9375,26.6875 Q570.6719,26.6875 571.3125,26.8594 Q571.9688,27.0156 572.5156,27.375 Z " fill="#000000"/>
            <text fill="#000000" font-family="sans-serif" font-size="14" lengthAdjust="spacing" textLength="53" x="590.25" y="37.2285">Persona</text>
            <line style="stroke:#181818;stroke-width:0.5;" x1="434" x2="767" y1="47.5" y2="47.5"/>
            <rect fill="none" height="6" style="stroke:#C82930;stroke-width:1.0;" width="6" x="441" y="58.8047"/>
            <text fill="#000000" font-family="sans-serif" font-size="14" lengthAdjust="spacing" textLength="89" x="453" y="66.0332">String nombre</text>
            <rect fill="none" height="6" style="stroke:#C82930;stroke-width:1.0;" width="6" x="441" y="76.4141"/>
            <text fill="#000000" font-family="sans-serif" font-size="14" lengthAdjust="spacing" textLength="90" x="453" y="83.6426">String apellido</text>
            <rect fill="none" height="6" style="stroke:#C82930;stroke-width:1.0;" width="6" x="441" y="94.0234"/>
            <text fill="#000000" font-family="sans-serif" font-size="14" lengthAdjust="spacing" textLength="51" x="453" y="101.252">int edad</text>
            <line style="stroke:#181818;stroke-width:0.5;" x1="434" x2="767" y1="108.3281" y2="108.3281"/>
            <ellipse cx="444" cy="122.6328" fill="#84BE84" rx="3" ry="3" style="stroke:#038048;stroke-width:1.0;"/>
            <text fill="#000000" font-family="sans-serif" font-size="14" lengthAdjust="spacing" textLength="63" x="453" y="126.8613">Persona()</text>
            <ellipse cx="444" cy="140.2422" fill="#84BE84" rx="3" ry="3" style="stroke:#038048;stroke-width:1.0;"/>
            <text fill="#000000" font-family="sans-serif" font-size="14" lengthAdjust="spacing" textLength="309" x="453" y="144.4707">Persona(String nombre, String apellido, int edad)</text>
            <ellipse cx="444" cy="157.8516" fill="#84BE84" rx="3" ry="3" style="stroke:#038048;stroke-width:1.0;"/>
            <text fill="#000000" font-family="sans-serif" font-size="14" lengthAdjust="spacing" textLength="120" x="453" y="162.0801">String getNombre()</text>
            <ellipse cx="444" cy="175.4609" fill="#84BE84" rx="3" ry="3" style="stroke:#038048;stroke-width:1.0;"/>
            <text fill="#000000" font-family="sans-serif" font-size="14" lengthAdjust="spacing" textLength="197" x="453" y="179.6895">void setNombre(String nombre)</text>
            <ellipse cx="444" cy="193.0703" fill="#84BE84" rx="3" ry="3" style="stroke:#038048;stroke-width:1.0;"/>
            <text fill="#000000" font-family="sans-serif" font-size="14" lengthAdjust="spacing" textLength="121" x="453" y="197.2988">String getApellido()</text>
            <ellipse cx="444" cy="210.6797" fill="#84BE84" rx="3" ry="3" style="stroke:#038048;stroke-width:1.0;"/>
            <text fill="#000000" font-family="sans-serif" font-size="14" lengthAdjust="spacing" textLength="199" x="453" y="214.9082">void setApellido(String apellido)</text>
            <ellipse cx="444" cy="228.2891" fill="#84BE84" rx="3" ry="3" style="stroke:#038048;stroke-width:1.0;"/>
            <text fill="#000000" font-family="sans-serif" font-size="14" lengthAdjust="spacing" textLength="82" x="453" y="232.5176">int getEdad()</text>
            <ellipse cx="444" cy="245.8984" fill="#84BE84" rx="3" ry="3" style="stroke:#038048;stroke-width:1.0;"/>
            <text fill="#000000" font-family="sans-serif" font-size="14" lengthAdjust="spacing" textLength="143" x="453" y="250.127">void setEdad(int edad)</text>
            <ellipse cx="444" cy="263.5078" fill="#84BE84" rx="3" ry="3" style="stroke:#038048;stroke-width:1.0;"/>
            <text fill="#000000" font-family="sans-serif" font-size="14" lengthAdjust="spacing" textLength="126" x="453" y="267.7363">void imprimirDatos()</text>
            <ellipse cx="444" cy="281.1172" fill="#84BE84" rx="3" ry="3" style="stroke:#038048;stroke-width:1.0;"/>
            <text fill="#000000" font-family="sans-serif" font-size="14" lengthAdjust="spacing" textLength="100" x="453" y="285.3457">String toString()</text>
        </g>
        <!--link Cliente to Override-->
        <g id="link_Cliente_Override">
            <path codeLine="5" d="M1140,178.13 C1140.98,230.55 1142.56,362.42 1136.5,472.5 C1134.66,505.88 1131.1161,538.3841 1128.1961,562.3341 " fill="none" id="Cliente-to-Override" style="stroke:#181818;stroke-width:1.0;stroke-dasharray:7.0,7.0;"/>
            <polygon fill="#181818" points="1127.47,568.29,1132.5298,559.8403,1128.0751,563.3268,1124.5886,558.8721,1127.47,568.29" style="stroke:#181818;stroke-width:1.0;"/>
        </g>
        <!--link Cliente to Persona-->
        <g id="link_Cliente_Persona">
            <path codeLine="6" d="M1132.88,178.18 C1120.78,220.53 1100.1739,292.6323 1088.0739,334.9923 " fill="none" id="Cliente-to-Persona" style="stroke:#181818;stroke-width:1.0;"/>
            <polygon fill="none" points="1083.13,352.3,1093.8431,336.6402,1082.3047,333.3443,1083.13,352.3" style="stroke:#181818;stroke-width:1.0;"/>
        </g>
        <!--link Persona to Override-->
        <g id="link_Persona_Override">
            <path codeLine="7" d="M1081.73,400.81 C1090.96,441.97 1108.7365,521.2255 1117.9665,562.3655 " fill="none" id="Persona-to-Override" style="stroke:#181818;stroke-width:1.0;stroke-dasharray:7.0,7.0;"/>
            <polygon fill="#181818" points="1119.28,568.22,1121.2128,558.5626,1118.1854,563.3413,1113.4068,560.314,1119.28,568.22" style="stroke:#181818;stroke-width:1.0;"/>
        </g>
        <!--SRC=[hL71JeGm4Btp5Jsk4NhG-oQuSl3Y6b2lcn6wP0oqfAqa6_NVPQ7T51sJnTX3qxoPz-RDAqYfB5XKahr23xm1MVDjBxJ6IaHb0yQmKhMyFGnt1_B0HGzNk-kTKIzQ25Dgj6yQ-AP18UqIHlQS7j5YUvDdMR79xnwVydG1_q5eeoH42zmnpjVacWiaakHZ_U_-NE-l_iPGl8FtYBcJiC9gb3NJ-_84Nlh6rGM1EO9KxM0WzdpeHDDWfMA6qZ9HGHK7qg6EGsjXytqvcz0hh9YPS9exTc3RQMnHtu9LPaL8MpKzNErplAS4V4n40jD2Ft6_ML3nAmQZdV3CZiVEJOnEwNwaaK6vqaoV5adTC5BcLFpcBEmzUXnqii4cgJ4Mg4N-zcLV]-->
    </g>
</svg>
