<?xml version="1.0" encoding="UTF-8"?><svg xmlns="http://www.w3.org/2000/svg" xmlns:xlink="http://www.w3.org/1999/xlink" contentStyleType="text/css" height="542px" preserveAspectRatio="none" style="width:1245px;height:542px;background:#FFFFFF;" version="1.1" viewBox="0 0 1245 542" width="1245px" zoomAndPan="magnify">
    <defs/>
    <g>
        <!--cluster com-->
        <g id="cluster_com">
            <path d="M686,6.5 L716,6.5 A3.75,3.75 0 0 1 718.5,9 L725.5,30.1094 L1236,30.1094 A2.5,2.5 0 0 1 1238.5,32.6094 L1238.5,533 A2.5,2.5 0 0 1 1236,535.5 L686,535.5 A2.5,2.5 0 0 1 683.5,533 L683.5,9 A2.5,2.5 0 0 1 686,6.5 " fill="none" style="stroke:#000000;stroke-width:1.5;"/>
            <line style="stroke:#000000;stroke-width:1.5;" x1="683.5" x2="725.5" y1="30.1094" y2="30.1094"/>
            <text fill="#000000" font-family="sans-serif" font-size="14" font-weight="bold" lengthAdjust="spacing" textLength="29" x="687.5" y="23.0332">com</text>
        </g>
        <!--cluster mycompany-->
        <g id="cluster_mycompany">
            <path d="M710,50.5 L792,50.5 A3.75,3.75 0 0 1 794.5,53 L801.5,74.1094 L1212,74.1094 A2.5,2.5 0 0 1 1214.5,76.6094 L1214.5,509 A2.5,2.5 0 0 1 1212,511.5 L710,511.5 A2.5,2.5 0 0 1 707.5,509 L707.5,53 A2.5,2.5 0 0 1 710,50.5 " fill="none" style="stroke:#000000;stroke-width:1.5;"/>
            <line style="stroke:#000000;stroke-width:1.5;" x1="707.5" x2="801.5" y1="74.1094" y2="74.1094"/>
            <text fill="#000000" font-family="sans-serif" font-size="14" font-weight="bold" lengthAdjust="spacing" textLength="81" x="711.5" y="67.0332">mycompany</text>
        </g>
        <!--cluster eva2_1_herencia-->
        <g id="cluster_eva2_1_herencia">
            <path d="M734,94.5 L855,94.5 A3.75,3.75 0 0 1 857.5,97 L864.5,118.1094 L1188,118.1094 A2.5,2.5 0 0 1 1190.5,120.6094 L1190.5,485 A2.5,2.5 0 0 1 1188,487.5 L734,487.5 A2.5,2.5 0 0 1 731.5,485 L731.5,97 A2.5,2.5 0 0 1 734,94.5 " fill="none" style="stroke:#000000;stroke-width:1.5;"/>
            <line style="stroke:#000000;stroke-width:1.5;" x1="731.5" x2="864.5" y1="118.1094" y2="118.1094"/>
            <text fill="#000000" font-family="sans-serif" font-size="14" font-weight="bold" lengthAdjust="spacing" textLength="120" x="735.5" y="111.0332">eva2_1_herencia</text>
        </g>
        <!--class EVA2_1_HERENCIA-->
        <g id="elem_EVA2_1_HERENCIA">
            <rect codeLine="1" fill="#F1F1F1" height="48" id="EVA2_1_HERENCIA" rx="2.5" ry="2.5" style="stroke:#181818;stroke-width:0.5;" width="159" x="1015" y="130.5"/>
            <ellipse cx="1030" cy="146.5" fill="#ADD1B2" rx="11" ry="11" style="stroke:#181818;stroke-width:1.0;"/>
            <path d="M1032.7656,142.375 Q1032.9219,142.1563 1033.1094,142.0469 Q1033.2969,141.9375 1033.5156,141.9375 Q1033.8906,141.9375 1034.125,142.2031 Q1034.3594,142.4531 1034.3594,143.0625 L1034.3594,144.5156 Q1034.3594,145.125 1034.125,145.3906 Q1033.8906,145.6563 1033.5156,145.6563 Q1033.1719,145.6563 1032.9688,145.4531 Q1032.7656,145.2656 1032.6563,144.75 Q1032.6094,144.3906 1032.4219,144.2031 Q1032.0938,143.8281 1031.4844,143.6094 Q1030.875,143.3906 1030.25,143.3906 Q1029.4844,143.3906 1028.8438,143.7188 Q1028.2188,144.0469 1027.7188,144.7969 Q1027.2344,145.5469 1027.2344,146.5781 L1027.2344,147.6719 Q1027.2344,148.9063 1028.125,149.7344 Q1029.0156,150.5469 1030.6094,150.5469 Q1031.5469,150.5469 1032.2031,150.2969 Q1032.5938,150.1406 1033.0156,149.7031 Q1033.2813,149.4375 1033.4219,149.3594 Q1033.5781,149.2813 1033.7813,149.2813 Q1034.1094,149.2813 1034.3594,149.5469 Q1034.625,149.7969 1034.625,150.1406 Q1034.625,150.4844 1034.2813,150.8906 Q1033.7813,151.4688 1032.9844,151.7969 Q1031.9063,152.25 1030.6094,152.25 Q1029.0938,152.25 1027.8906,151.625 Q1026.9063,151.125 1026.2188,150.0625 Q1025.5313,148.9844 1025.5313,147.7031 L1025.5313,146.5469 Q1025.5313,145.2188 1026.1406,144.0781 Q1026.7656,142.9219 1027.8594,142.3125 Q1028.9531,141.6875 1030.1875,141.6875 Q1030.9219,141.6875 1031.5625,141.8594 Q1032.2188,142.0156 1032.7656,142.375 Z " fill="#000000"/>
            <text fill="#000000" font-family="sans-serif" font-size="14" lengthAdjust="spacing" textLength="127" x="1044" y="152.2285">EVA2_1_HERENCIA</text>
            <line style="stroke:#181818;stroke-width:0.5;" x1="1016" x2="1173" y1="162.5" y2="162.5"/>
            <line style="stroke:#181818;stroke-width:0.5;" x1="1016" x2="1173" y1="170.5" y2="170.5"/>
        </g>
        <!--class Estudiante-->
        <g id="elem_Estudiante">
            <rect codeLine="2" fill="#F1F1F1" height="48" id="Estudiante" rx="2.5" ry="2.5" style="stroke:#181818;stroke-width:0.5;" width="99" x="881" y="130.5"/>
            <ellipse cx="896" cy="146.5" fill="#ADD1B2" rx="11" ry="11" style="stroke:#181818;stroke-width:1.0;"/>
            <path d="M898.7656,142.375 Q898.9219,142.1563 899.1094,142.0469 Q899.2969,141.9375 899.5156,141.9375 Q899.8906,141.9375 900.125,142.2031 Q900.3594,142.4531 900.3594,143.0625 L900.3594,144.5156 Q900.3594,145.125 900.125,145.3906 Q899.8906,145.6563 899.5156,145.6563 Q899.1719,145.6563 898.9688,145.4531 Q898.7656,145.2656 898.6563,144.75 Q898.6094,144.3906 898.4219,144.2031 Q898.0938,143.8281 897.4844,143.6094 Q896.875,143.3906 896.25,143.3906 Q895.4844,143.3906 894.8438,143.7188 Q894.2188,144.0469 893.7188,144.7969 Q893.2344,145.5469 893.2344,146.5781 L893.2344,147.6719 Q893.2344,148.9063 894.125,149.7344 Q895.0156,150.5469 896.6094,150.5469 Q897.5469,150.5469 898.2031,150.2969 Q898.5938,150.1406 899.0156,149.7031 Q899.2813,149.4375 899.4219,149.3594 Q899.5781,149.2813 899.7813,149.2813 Q900.1094,149.2813 900.3594,149.5469 Q900.625,149.7969 900.625,150.1406 Q900.625,150.4844 900.2813,150.8906 Q899.7813,151.4688 898.9844,151.7969 Q897.9063,152.25 896.6094,152.25 Q895.0938,152.25 893.8906,151.625 Q892.9063,151.125 892.2188,150.0625 Q891.5313,148.9844 891.5313,147.7031 L891.5313,146.5469 Q891.5313,145.2188 892.1406,144.0781 Q892.7656,142.9219 893.8594,142.3125 Q894.9531,141.6875 896.1875,141.6875 Q896.9219,141.6875 897.5625,141.8594 Q898.2188,142.0156 898.7656,142.375 Z " fill="#000000"/>
            <text fill="#000000" font-family="sans-serif" font-size="14" lengthAdjust="spacing" textLength="67" x="910" y="152.2285">Estudiante</text>
            <line style="stroke:#181818;stroke-width:0.5;" x1="882" x2="979" y1="162.5" y2="162.5"/>
            <line style="stroke:#181818;stroke-width:0.5;" x1="882" x2="979" y1="170.5" y2="170.5"/>
        </g>
        <!--class Persona-->
        <g id="elem_Persona">
            <rect codeLine="3" fill="#F1F1F1" height="48" id="Persona" rx="2.5" ry="2.5" style="stroke:#181818;stroke-width:0.5;" width="85" x="821" y="423.5"/>
            <ellipse cx="836" cy="439.5" fill="#ADD1B2" rx="11" ry="11" style="stroke:#181818;stroke-width:1.0;"/>
            <path d="M838.7656,435.375 Q838.9219,435.1563 839.1094,435.0469 Q839.2969,434.9375 839.5156,434.9375 Q839.8906,434.9375 840.125,435.2031 Q840.3594,435.4531 840.3594,436.0625 L840.3594,437.5156 Q840.3594,438.125 840.125,438.3906 Q839.8906,438.6563 839.5156,438.6563 Q839.1719,438.6563 838.9688,438.4531 Q838.7656,438.2656 838.6563,437.75 Q838.6094,437.3906 838.4219,437.2031 Q838.0938,436.8281 837.4844,436.6094 Q836.875,436.3906 836.25,436.3906 Q835.4844,436.3906 834.8438,436.7188 Q834.2188,437.0469 833.7188,437.7969 Q833.2344,438.5469 833.2344,439.5781 L833.2344,440.6719 Q833.2344,441.9063 834.125,442.7344 Q835.0156,443.5469 836.6094,443.5469 Q837.5469,443.5469 838.2031,443.2969 Q838.5938,443.1406 839.0156,442.7031 Q839.2813,442.4375 839.4219,442.3594 Q839.5781,442.2813 839.7813,442.2813 Q840.1094,442.2813 840.3594,442.5469 Q840.625,442.7969 840.625,443.1406 Q840.625,443.4844 840.2813,443.8906 Q839.7813,444.4688 838.9844,444.7969 Q837.9063,445.25 836.6094,445.25 Q835.0938,445.25 833.8906,444.625 Q832.9063,444.125 832.2188,443.0625 Q831.5313,441.9844 831.5313,440.7031 L831.5313,439.5469 Q831.5313,438.2188 832.1406,437.0781 Q832.7656,435.9219 833.8594,435.3125 Q834.9531,434.6875 836.1875,434.6875 Q836.9219,434.6875 837.5625,434.8594 Q838.2188,435.0156 838.7656,435.375 Z " fill="#000000"/>
            <text fill="#000000" font-family="sans-serif" font-size="14" lengthAdjust="spacing" textLength="53" x="850" y="445.2285">Persona</text>
            <line style="stroke:#181818;stroke-width:0.5;" x1="822" x2="905" y1="455.5" y2="455.5"/>
            <line style="stroke:#181818;stroke-width:0.5;" x1="822" x2="905" y1="463.5" y2="463.5"/>
        </g>
        <!--class Proveedor-->
        <g id="elem_Proveedor">
            <rect codeLine="4" fill="#F1F1F1" height="48" id="Proveedor" rx="2.5" ry="2.5" style="stroke:#181818;stroke-width:0.5;" width="98" x="747.5" y="130.5"/>
            <ellipse cx="762.5" cy="146.5" fill="#ADD1B2" rx="11" ry="11" style="stroke:#181818;stroke-width:1.0;"/>
            <path d="M765.2656,142.375 Q765.4219,142.1563 765.6094,142.0469 Q765.7969,141.9375 766.0156,141.9375 Q766.3906,141.9375 766.625,142.2031 Q766.8594,142.4531 766.8594,143.0625 L766.8594,144.5156 Q766.8594,145.125 766.625,145.3906 Q766.3906,145.6563 766.0156,145.6563 Q765.6719,145.6563 765.4688,145.4531 Q765.2656,145.2656 765.1563,144.75 Q765.1094,144.3906 764.9219,144.2031 Q764.5938,143.8281 763.9844,143.6094 Q763.375,143.3906 762.75,143.3906 Q761.9844,143.3906 761.3438,143.7188 Q760.7188,144.0469 760.2188,144.7969 Q759.7344,145.5469 759.7344,146.5781 L759.7344,147.6719 Q759.7344,148.9063 760.625,149.7344 Q761.5156,150.5469 763.1094,150.5469 Q764.0469,150.5469 764.7031,150.2969 Q765.0938,150.1406 765.5156,149.7031 Q765.7813,149.4375 765.9219,149.3594 Q766.0781,149.2813 766.2813,149.2813 Q766.6094,149.2813 766.8594,149.5469 Q767.125,149.7969 767.125,150.1406 Q767.125,150.4844 766.7813,150.8906 Q766.2813,151.4688 765.4844,151.7969 Q764.4063,152.25 763.1094,152.25 Q761.5938,152.25 760.3906,151.625 Q759.4063,151.125 758.7188,150.0625 Q758.0313,148.9844 758.0313,147.7031 L758.0313,146.5469 Q758.0313,145.2188 758.6406,144.0781 Q759.2656,142.9219 760.3594,142.3125 Q761.4531,141.6875 762.6875,141.6875 Q763.4219,141.6875 764.0625,141.8594 Q764.7188,142.0156 765.2656,142.375 Z " fill="#000000"/>
            <text fill="#000000" font-family="sans-serif" font-size="14" lengthAdjust="spacing" textLength="66" x="776.5" y="152.2285">Proveedor</text>
            <line style="stroke:#181818;stroke-width:0.5;" x1="748.5" x2="844.5" y1="162.5" y2="162.5"/>
            <line style="stroke:#181818;stroke-width:0.5;" x1="748.5" x2="844.5" y1="170.5" y2="170.5"/>
        </g>
        <!--class Persona-->
        <g id="elem_Persona">
            <rect codeLine="7" fill="#F1F1F1" height="294.5313" id="Persona" rx="2.5" ry="2.5" style="stroke:#181818;stroke-width:0.5;" width="335" x="46" y="7"/>
            <ellipse cx="182.75" cy="23" fill="#ADD1B2" rx="11" ry="11" style="stroke:#181818;stroke-width:1.0;"/>
            <path d="M185.5156,18.875 Q185.6719,18.6563 185.8594,18.5469 Q186.0469,18.4375 186.2656,18.4375 Q186.6406,18.4375 186.875,18.7031 Q187.1094,18.9531 187.1094,19.5625 L187.1094,21.0156 Q187.1094,21.625 186.875,21.8906 Q186.6406,22.1563 186.2656,22.1563 Q185.9219,22.1563 185.7188,21.9531 Q185.5156,21.7656 185.4063,21.25 Q185.3594,20.8906 185.1719,20.7031 Q184.8438,20.3281 184.2344,20.1094 Q183.625,19.8906 183,19.8906 Q182.2344,19.8906 181.5938,20.2188 Q180.9688,20.5469 180.4688,21.2969 Q179.9844,22.0469 179.9844,23.0781 L179.9844,24.1719 Q179.9844,25.4063 180.875,26.2344 Q181.7656,27.0469 183.3594,27.0469 Q184.2969,27.0469 184.9531,26.7969 Q185.3438,26.6406 185.7656,26.2031 Q186.0313,25.9375 186.1719,25.8594 Q186.3281,25.7813 186.5313,25.7813 Q186.8594,25.7813 187.1094,26.0469 Q187.375,26.2969 187.375,26.6406 Q187.375,26.9844 187.0313,27.3906 Q186.5313,27.9688 185.7344,28.2969 Q184.6563,28.75 183.3594,28.75 Q181.8438,28.75 180.6406,28.125 Q179.6563,27.625 178.9688,26.5625 Q178.2813,25.4844 178.2813,24.2031 L178.2813,23.0469 Q178.2813,21.7188 178.8906,20.5781 Q179.5156,19.4219 180.6094,18.8125 Q181.7031,18.1875 182.9375,18.1875 Q183.6719,18.1875 184.3125,18.3594 Q184.9688,18.5156 185.5156,18.875 Z " fill="#000000"/>
            <text fill="#000000" font-family="sans-serif" font-size="14" lengthAdjust="spacing" textLength="53" x="203.25" y="28.7285">Persona</text>
            <line style="stroke:#181818;stroke-width:0.5;" x1="47" x2="380" y1="39" y2="39"/>
            <rect fill="none" height="6" style="stroke:#C82930;stroke-width:1.0;" width="6" x="54" y="50.3047"/>
            <text fill="#000000" font-family="sans-serif" font-size="14" lengthAdjust="spacing" textLength="89" x="66" y="57.5332">String nombre</text>
            <rect fill="none" height="6" style="stroke:#C82930;stroke-width:1.0;" width="6" x="54" y="67.9141"/>
            <text fill="#000000" font-family="sans-serif" font-size="14" lengthAdjust="spacing" textLength="90" x="66" y="75.1426">String apellido</text>
            <rect fill="none" height="6" style="stroke:#C82930;stroke-width:1.0;" width="6" x="54" y="85.5234"/>
            <text fill="#000000" font-family="sans-serif" font-size="14" lengthAdjust="spacing" textLength="51" x="66" y="92.752">int edad</text>
            <line style="stroke:#181818;stroke-width:0.5;" x1="47" x2="380" y1="99.8281" y2="99.8281"/>
            <ellipse cx="57" cy="114.1328" fill="#84BE84" rx="3" ry="3" style="stroke:#038048;stroke-width:1.0;"/>
            <text fill="#000000" font-family="sans-serif" font-size="14" lengthAdjust="spacing" textLength="63" x="66" y="118.3613">Persona()</text>
            <ellipse cx="57" cy="131.7422" fill="#84BE84" rx="3" ry="3" style="stroke:#038048;stroke-width:1.0;"/>
            <text fill="#000000" font-family="sans-serif" font-size="14" lengthAdjust="spacing" textLength="309" x="66" y="135.9707">Persona(String nombre, String apellido, int edad)</text>
            <text fill="#000000" font-family="sans-serif" font-size="14" lengthAdjust="spacing" textLength="4" x="66" y="153.5801"> </text>
            <ellipse cx="57" cy="166.9609" fill="#84BE84" rx="3" ry="3" style="stroke:#038048;stroke-width:1.0;"/>
            <text fill="#000000" font-family="sans-serif" font-size="14" lengthAdjust="spacing" textLength="120" x="66" y="171.1895">String getNombre()</text>
            <ellipse cx="57" cy="184.5703" fill="#84BE84" rx="3" ry="3" style="stroke:#038048;stroke-width:1.0;"/>
            <text fill="#000000" font-family="sans-serif" font-size="14" lengthAdjust="spacing" textLength="197" x="66" y="188.7988">void setNombre(String nombre)</text>
            <text fill="#000000" font-family="sans-serif" font-size="14" lengthAdjust="spacing" textLength="4" x="66" y="206.4082"> </text>
            <ellipse cx="57" cy="219.7891" fill="#84BE84" rx="3" ry="3" style="stroke:#038048;stroke-width:1.0;"/>
            <text fill="#000000" font-family="sans-serif" font-size="14" lengthAdjust="spacing" textLength="121" x="66" y="224.0176">String getApellido()</text>
            <ellipse cx="57" cy="237.3984" fill="#84BE84" rx="3" ry="3" style="stroke:#038048;stroke-width:1.0;"/>
            <text fill="#000000" font-family="sans-serif" font-size="14" lengthAdjust="spacing" textLength="199" x="66" y="241.627">void setApellido(String apellido)</text>
            <text fill="#000000" font-family="sans-serif" font-size="14" lengthAdjust="spacing" textLength="4" x="66" y="259.2363"> </text>
            <ellipse cx="57" cy="272.6172" fill="#84BE84" rx="3" ry="3" style="stroke:#038048;stroke-width:1.0;"/>
            <text fill="#000000" font-family="sans-serif" font-size="14" lengthAdjust="spacing" textLength="82" x="66" y="276.8457">int getEdad()</text>
            <ellipse cx="57" cy="290.2266" fill="#84BE84" rx="3" ry="3" style="stroke:#038048;stroke-width:1.0;"/>
            <text fill="#000000" font-family="sans-serif" font-size="14" lengthAdjust="spacing" textLength="143" x="66" y="294.4551">void setEdad(int edad)</text>
        </g>
        <!--class Estudiante-->
        <g id="elem_Estudiante">
            <rect codeLine="25" fill="#F1F1F1" height="118.4375" id="Estudiante" rx="2.5" ry="2.5" style="stroke:#181818;stroke-width:0.5;" width="251" x="416" y="95.5"/>
            <ellipse cx="503.75" cy="111.5" fill="#ADD1B2" rx="11" ry="11" style="stroke:#181818;stroke-width:1.0;"/>
            <path d="M506.5156,107.375 Q506.6719,107.1563 506.8594,107.0469 Q507.0469,106.9375 507.2656,106.9375 Q507.6406,106.9375 507.875,107.2031 Q508.1094,107.4531 508.1094,108.0625 L508.1094,109.5156 Q508.1094,110.125 507.875,110.3906 Q507.6406,110.6563 507.2656,110.6563 Q506.9219,110.6563 506.7188,110.4531 Q506.5156,110.2656 506.4063,109.75 Q506.3594,109.3906 506.1719,109.2031 Q505.8438,108.8281 505.2344,108.6094 Q504.625,108.3906 504,108.3906 Q503.2344,108.3906 502.5938,108.7188 Q501.9688,109.0469 501.4688,109.7969 Q500.9844,110.5469 500.9844,111.5781 L500.9844,112.6719 Q500.9844,113.9063 501.875,114.7344 Q502.7656,115.5469 504.3594,115.5469 Q505.2969,115.5469 505.9531,115.2969 Q506.3438,115.1406 506.7656,114.7031 Q507.0313,114.4375 507.1719,114.3594 Q507.3281,114.2813 507.5313,114.2813 Q507.8594,114.2813 508.1094,114.5469 Q508.375,114.7969 508.375,115.1406 Q508.375,115.4844 508.0313,115.8906 Q507.5313,116.4688 506.7344,116.7969 Q505.6563,117.25 504.3594,117.25 Q502.8438,117.25 501.6406,116.625 Q500.6563,116.125 499.9688,115.0625 Q499.2813,113.9844 499.2813,112.7031 L499.2813,111.5469 Q499.2813,110.2188 499.8906,109.0781 Q500.5156,107.9219 501.6094,107.3125 Q502.7031,106.6875 503.9375,106.6875 Q504.6719,106.6875 505.3125,106.8594 Q505.9688,107.0156 506.5156,107.375 Z " fill="#000000"/>
            <text fill="#000000" font-family="sans-serif" font-size="14" lengthAdjust="spacing" textLength="67" x="524.25" y="117.2285">Estudiante</text>
            <line style="stroke:#181818;stroke-width:0.5;" x1="417" x2="666" y1="127.5" y2="127.5"/>
            <rect fill="none" height="6" style="stroke:#C82930;stroke-width:1.0;" width="6" x="424" y="138.8047"/>
            <text fill="#000000" font-family="sans-serif" font-size="14" lengthAdjust="spacing" textLength="103" x="436" y="146.0332">String noControl</text>
            <line style="stroke:#181818;stroke-width:0.5;" x1="417" x2="666" y1="153.1094" y2="153.1094"/>
            <ellipse cx="427" cy="167.4141" fill="#84BE84" rx="3" ry="3" style="stroke:#038048;stroke-width:1.0;"/>
            <text fill="#000000" font-family="sans-serif" font-size="14" lengthAdjust="spacing" textLength="134" x="436" y="171.6426">String getNoControl()</text>
            <ellipse cx="427" cy="185.0234" fill="#84BE84" rx="3" ry="3" style="stroke:#038048;stroke-width:1.0;"/>
            <text fill="#000000" font-family="sans-serif" font-size="14" lengthAdjust="spacing" textLength="225" x="436" y="189.252">void setNoControl(String noControl)</text>
            <ellipse cx="427" cy="202.6328" fill="#84BE84" rx="3" ry="3" style="stroke:#038048;stroke-width:1.0;"/>
            <text fill="#000000" font-family="sans-serif" font-size="14" lengthAdjust="spacing" textLength="126" x="436" y="206.8613">void imprimirDatos()</text>
        </g>
        <!--class Proveedor-->
        <g id="elem_Proveedor">
            <rect codeLine="33" fill="#F1F1F1" height="171.2656" id="Proveedor" rx="2.5" ry="2.5" style="stroke:#181818;stroke-width:0.5;" width="413" x="7" y="362"/>
            <ellipse cx="176.25" cy="378" fill="#ADD1B2" rx="11" ry="11" style="stroke:#181818;stroke-width:1.0;"/>
            <path d="M179.0156,373.875 Q179.1719,373.6563 179.3594,373.5469 Q179.5469,373.4375 179.7656,373.4375 Q180.1406,373.4375 180.375,373.7031 Q180.6094,373.9531 180.6094,374.5625 L180.6094,376.0156 Q180.6094,376.625 180.375,376.8906 Q180.1406,377.1563 179.7656,377.1563 Q179.4219,377.1563 179.2188,376.9531 Q179.0156,376.7656 178.9063,376.25 Q178.8594,375.8906 178.6719,375.7031 Q178.3438,375.3281 177.7344,375.1094 Q177.125,374.8906 176.5,374.8906 Q175.7344,374.8906 175.0938,375.2188 Q174.4688,375.5469 173.9688,376.2969 Q173.4844,377.0469 173.4844,378.0781 L173.4844,379.1719 Q173.4844,380.4063 174.375,381.2344 Q175.2656,382.0469 176.8594,382.0469 Q177.7969,382.0469 178.4531,381.7969 Q178.8438,381.6406 179.2656,381.2031 Q179.5313,380.9375 179.6719,380.8594 Q179.8281,380.7813 180.0313,380.7813 Q180.3594,380.7813 180.6094,381.0469 Q180.875,381.2969 180.875,381.6406 Q180.875,381.9844 180.5313,382.3906 Q180.0313,382.9688 179.2344,383.2969 Q178.1563,383.75 176.8594,383.75 Q175.3438,383.75 174.1406,383.125 Q173.1563,382.625 172.4688,381.5625 Q171.7813,380.4844 171.7813,379.2031 L171.7813,378.0469 Q171.7813,376.7188 172.3906,375.5781 Q173.0156,374.4219 174.1094,373.8125 Q175.2031,373.1875 176.4375,373.1875 Q177.1719,373.1875 177.8125,373.3594 Q178.4688,373.5156 179.0156,373.875 Z " fill="#000000"/>
            <text fill="#000000" font-family="sans-serif" font-size="14" lengthAdjust="spacing" textLength="66" x="196.75" y="383.7285">Proveedor</text>
            <line style="stroke:#181818;stroke-width:0.5;" x1="8" x2="419" y1="394" y2="394"/>
            <rect fill="none" height="6" style="stroke:#C82930;stroke-width:1.0;" width="6" x="15" y="405.3047"/>
            <text fill="#000000" font-family="sans-serif" font-size="14" lengthAdjust="spacing" textLength="57" x="27" y="412.5332">String rfc</text>
            <line style="stroke:#181818;stroke-width:0.5;" x1="8" x2="419" y1="419.6094" y2="419.6094"/>
            <ellipse cx="18" cy="433.9141" fill="#84BE84" rx="3" ry="3" style="stroke:#038048;stroke-width:1.0;"/>
            <text fill="#000000" font-family="sans-serif" font-size="14" lengthAdjust="spacing" textLength="76" x="27" y="438.1426">Proveedor()</text>
            <ellipse cx="18" cy="451.5234" fill="#84BE84" rx="3" ry="3" style="stroke:#038048;stroke-width:1.0;"/>
            <text fill="#000000" font-family="sans-serif" font-size="14" lengthAdjust="spacing" textLength="387" x="27" y="455.752">Proveedor(String nombre, String apellido, int edad, String rfc)</text>
            <text fill="#000000" font-family="sans-serif" font-size="14" lengthAdjust="spacing" textLength="4" x="27" y="473.3613"> </text>
            <ellipse cx="18" cy="486.7422" fill="#84BE84" rx="3" ry="3" style="stroke:#038048;stroke-width:1.0;"/>
            <text fill="#000000" font-family="sans-serif" font-size="14" lengthAdjust="spacing" textLength="92" x="27" y="490.9707">String getRfc()</text>
            <ellipse cx="18" cy="504.3516" fill="#84BE84" rx="3" ry="3" style="stroke:#038048;stroke-width:1.0;"/>
            <text fill="#000000" font-family="sans-serif" font-size="14" lengthAdjust="spacing" textLength="137" x="27" y="508.5801">void setRfc(String rfc)</text>
            <ellipse cx="18" cy="521.9609" fill="#84BE84" rx="3" ry="3" style="stroke:#038048;stroke-width:1.0;"/>
            <text fill="#000000" font-family="sans-serif" font-size="14" lengthAdjust="spacing" textLength="126" x="27" y="526.1895">void imprimirDatos()</text>
        </g>
        <!--link Estudiante to Persona-->
        <g id="link_Estudiante_Persona">
            <path codeLine="5" d="M925.13,178.82 C912.55,233.44 885.349,351.599 872.839,405.929 " fill="none" id="Estudiante-to-Persona" style="stroke:#181818;stroke-width:1.0;"/>
            <polygon fill="none" points="868.8,423.47,878.686,407.2753,866.992,404.5827,868.8,423.47" style="stroke:#181818;stroke-width:1.0;"/>
        </g>
        <!--link Proveedor to Persona-->
        <g id="link_Proveedor_Persona">
            <path codeLine="6" d="M801.87,178.82 C814.45,233.44 841.651,351.599 854.161,405.929 " fill="none" id="Proveedor-to-Persona" style="stroke:#181818;stroke-width:1.0;"/>
            <polygon fill="none" points="858.2,423.47,860.008,404.5827,848.314,407.2753,858.2,423.47" style="stroke:#181818;stroke-width:1.0;"/>
        </g>
        <!--SRC=[bP9HQyCW4CVVyobyR5aIw3x087I1xgMC3lPQd5ux8MfG6oZRlliICIQQ1LmUXFlVtS__UI4DrXeHoKj-xyyMYti97NuyxywVe40GXilwlHhYGtsgZ_kNAYCfFThSACF2G5BvAoWj1KwhLR83e59bgHPGKNm_fJf8k_jVI3kKYz1NXlglG6z6CN55Gl8F1Q66MsWQHgLJcJ08AAOsjCV3IDjiepYWvZ4mzwpj7EQghc2EjizJEyaeqbuEu2k4obsrOFX4v2dW3FPwIDqxN02iEFd_oTp3plQyUDkz54R9PcrOb_vZtZ4Jau9Anbl5E5FFs4YzcLcQVfF8aRgGO8jZtRH7hwHkCf-nLtPokf35Y8CMDwwEzGi0]-->
    </g>
</svg>
