<?xml version="1.0" encoding="UTF-8"?><svg xmlns="http://www.w3.org/2000/svg" xmlns:xlink="http://www.w3.org/1999/xlink" contentStyleType="text/css" height="526px" preserveAspectRatio="none" style="width:663px;height:526px;background:#FFFFFF;" version="1.1" viewBox="0 0 663 526" width="663px" zoomAndPan="magnify">
    <defs/>
    <g>
        <!--cluster com-->
        <g id="cluster_com">
            <path d="M324.5,6 L354.5,6 A3.75,3.75 0 0 1 357,8.5 L364,29.6094 L653.5,29.6094 A2.5,2.5 0 0 1 656,32.1094 L656,239.5 A2.5,2.5 0 0 1 653.5,242 L324.5,242 A2.5,2.5 0 0 1 322,239.5 L322,8.5 A2.5,2.5 0 0 1 324.5,6 " fill="none" style="stroke:#000000;stroke-width:1.5;"/>
            <line style="stroke:#000000;stroke-width:1.5;" x1="322" x2="364" y1="29.6094" y2="29.6094"/>
            <text fill="#000000" font-family="sans-serif" font-size="14" font-weight="bold" lengthAdjust="spacing" textLength="29" x="326" y="22.5332">com</text>
        </g>
        <!--cluster mycompany-->
        <g id="cluster_mycompany">
            <path d="M348.5,50 L430.5,50 A3.75,3.75 0 0 1 433,52.5 L440,73.6094 L629.5,73.6094 A2.5,2.5 0 0 1 632,76.1094 L632,215.5 A2.5,2.5 0 0 1 629.5,218 L348.5,218 A2.5,2.5 0 0 1 346,215.5 L346,52.5 A2.5,2.5 0 0 1 348.5,50 " fill="none" style="stroke:#000000;stroke-width:1.5;"/>
            <line style="stroke:#000000;stroke-width:1.5;" x1="346" x2="440" y1="73.6094" y2="73.6094"/>
            <text fill="#000000" font-family="sans-serif" font-size="14" font-weight="bold" lengthAdjust="spacing" textLength="81" x="350" y="66.5332">mycompany</text>
        </g>
        <!--cluster eva2_13_polimorfismo-->
        <g id="cluster_eva2_13_polimorfismo">
            <path d="M372.5,94 L530.5,94 A3.75,3.75 0 0 1 533,96.5 L540,117.6094 L605.5,117.6094 A2.5,2.5 0 0 1 608,120.1094 L608,191.5 A2.5,2.5 0 0 1 605.5,194 L372.5,194 A2.5,2.5 0 0 1 370,191.5 L370,96.5 A2.5,2.5 0 0 1 372.5,94 " fill="none" style="stroke:#000000;stroke-width:1.5;"/>
            <line style="stroke:#000000;stroke-width:1.5;" x1="370" x2="540" y1="117.6094" y2="117.6094"/>
            <text fill="#000000" font-family="sans-serif" font-size="14" font-weight="bold" lengthAdjust="spacing" textLength="157" x="374" y="110.5332">eva2_13_polimorfismo</text>
        </g>
        <!--class EVA2_13_POLIMORFISMO-->
        <g id="elem_EVA2_13_POLIMORFISMO">
            <rect codeLine="1" fill="#F1F1F1" height="48" id="EVA2_13_POLIMORFISMO" rx="2.5" ry="2.5" style="stroke:#181818;stroke-width:0.5;" width="205" x="386.5" y="130"/>
            <ellipse cx="401.5" cy="146" fill="#ADD1B2" rx="11" ry="11" style="stroke:#181818;stroke-width:1.0;"/>
            <path d="M404.2656,141.875 Q404.4219,141.6563 404.6094,141.5469 Q404.7969,141.4375 405.0156,141.4375 Q405.3906,141.4375 405.625,141.7031 Q405.8594,141.9531 405.8594,142.5625 L405.8594,144.0156 Q405.8594,144.625 405.625,144.8906 Q405.3906,145.1563 405.0156,145.1563 Q404.6719,145.1563 404.4688,144.9531 Q404.2656,144.7656 404.1563,144.25 Q404.1094,143.8906 403.9219,143.7031 Q403.5938,143.3281 402.9844,143.1094 Q402.375,142.8906 401.75,142.8906 Q400.9844,142.8906 400.3438,143.2188 Q399.7188,143.5469 399.2188,144.2969 Q398.7344,145.0469 398.7344,146.0781 L398.7344,147.1719 Q398.7344,148.4063 399.625,149.2344 Q400.5156,150.0469 402.1094,150.0469 Q403.0469,150.0469 403.7031,149.7969 Q404.0938,149.6406 404.5156,149.2031 Q404.7813,148.9375 404.9219,148.8594 Q405.0781,148.7813 405.2813,148.7813 Q405.6094,148.7813 405.8594,149.0469 Q406.125,149.2969 406.125,149.6406 Q406.125,149.9844 405.7813,150.3906 Q405.2813,150.9688 404.4844,151.2969 Q403.4063,151.75 402.1094,151.75 Q400.5938,151.75 399.3906,151.125 Q398.4063,150.625 397.7188,149.5625 Q397.0313,148.4844 397.0313,147.2031 L397.0313,146.0469 Q397.0313,144.7188 397.6406,143.5781 Q398.2656,142.4219 399.3594,141.8125 Q400.4531,141.1875 401.6875,141.1875 Q402.4219,141.1875 403.0625,141.3594 Q403.7188,141.5156 404.2656,141.875 Z " fill="#000000"/>
            <text fill="#000000" font-family="sans-serif" font-size="14" lengthAdjust="spacing" textLength="173" x="415.5" y="151.7285">EVA2_13_POLIMORFISMO</text>
            <line style="stroke:#181818;stroke-width:0.5;" x1="387.5" x2="590.5" y1="162" y2="162"/>
            <line style="stroke:#181818;stroke-width:0.5;" x1="387.5" x2="590.5" y1="170" y2="170"/>
        </g>
        <!--class Animal-->
        <g id="elem_Animal">
            <rect codeLine="2" fill="#F1F1F1" height="83.2188" id="Animal" rx="2.5" ry="2.5" style="stroke:#181818;stroke-width:0.5;" width="166" x="140" y="112.5"/>
            <ellipse cx="197.75" cy="128.5" fill="#ADD1B2" rx="11" ry="11" style="stroke:#181818;stroke-width:1.0;"/>
            <path d="M200.5156,124.375 Q200.6719,124.1563 200.8594,124.0469 Q201.0469,123.9375 201.2656,123.9375 Q201.6406,123.9375 201.875,124.2031 Q202.1094,124.4531 202.1094,125.0625 L202.1094,126.5156 Q202.1094,127.125 201.875,127.3906 Q201.6406,127.6563 201.2656,127.6563 Q200.9219,127.6563 200.7188,127.4531 Q200.5156,127.2656 200.4063,126.75 Q200.3594,126.3906 200.1719,126.2031 Q199.8438,125.8281 199.2344,125.6094 Q198.625,125.3906 198,125.3906 Q197.2344,125.3906 196.5938,125.7188 Q195.9688,126.0469 195.4688,126.7969 Q194.9844,127.5469 194.9844,128.5781 L194.9844,129.6719 Q194.9844,130.9063 195.875,131.7344 Q196.7656,132.5469 198.3594,132.5469 Q199.2969,132.5469 199.9531,132.2969 Q200.3438,132.1406 200.7656,131.7031 Q201.0313,131.4375 201.1719,131.3594 Q201.3281,131.2813 201.5313,131.2813 Q201.8594,131.2813 202.1094,131.5469 Q202.375,131.7969 202.375,132.1406 Q202.375,132.4844 202.0313,132.8906 Q201.5313,133.4688 200.7344,133.7969 Q199.6563,134.25 198.3594,134.25 Q196.8438,134.25 195.6406,133.625 Q194.6563,133.125 193.9688,132.0625 Q193.2813,130.9844 193.2813,129.7031 L193.2813,128.5469 Q193.2813,127.2188 193.8906,126.0781 Q194.5156,124.9219 195.6094,124.3125 Q196.7031,123.6875 197.9375,123.6875 Q198.6719,123.6875 199.3125,123.8594 Q199.9688,124.0156 200.5156,124.375 Z " fill="#000000"/>
            <text fill="#000000" font-family="sans-serif" font-size="14" lengthAdjust="spacing" textLength="42" x="218.25" y="134.2285">Animal</text>
            <line style="stroke:#181818;stroke-width:0.5;" x1="141" x2="305" y1="144.5" y2="144.5"/>
            <line style="stroke:#181818;stroke-width:0.5;" x1="141" x2="305" y1="152.5" y2="152.5"/>
            <ellipse cx="151" cy="166.8047" fill="#84BE84" rx="3" ry="3" style="stroke:#038048;stroke-width:1.0;"/>
            <text fill="#000000" font-family="sans-serif" font-size="14" lengthAdjust="spacing" textLength="52" x="160" y="171.0332">Animal()</text>
            <ellipse cx="151" cy="184.4141" fill="#84BE84" rx="3" ry="3" style="stroke:#038048;stroke-width:1.0;"/>
            <text fill="#000000" font-family="sans-serif" font-size="14" lengthAdjust="spacing" textLength="140" x="160" y="188.6426">respiraOxigeno(): void</text>
        </g>
        <!--class Mamifero-->
        <g id="elem_Mamifero">
            <rect codeLine="7" fill="#F1F1F1" height="100.8281" id="Mamifero" rx="2.5" ry="2.5" style="stroke:#181818;stroke-width:0.5;" width="199" x="13.5" y="258"/>
            <ellipse cx="79.75" cy="274" fill="#ADD1B2" rx="11" ry="11" style="stroke:#181818;stroke-width:1.0;"/>
            <path d="M82.5156,269.875 Q82.6719,269.6563 82.8594,269.5469 Q83.0469,269.4375 83.2656,269.4375 Q83.6406,269.4375 83.875,269.7031 Q84.1094,269.9531 84.1094,270.5625 L84.1094,272.0156 Q84.1094,272.625 83.875,272.8906 Q83.6406,273.1563 83.2656,273.1563 Q82.9219,273.1563 82.7188,272.9531 Q82.5156,272.7656 82.4063,272.25 Q82.3594,271.8906 82.1719,271.7031 Q81.8438,271.3281 81.2344,271.1094 Q80.625,270.8906 80,270.8906 Q79.2344,270.8906 78.5938,271.2188 Q77.9688,271.5469 77.4688,272.2969 Q76.9844,273.0469 76.9844,274.0781 L76.9844,275.1719 Q76.9844,276.4063 77.875,277.2344 Q78.7656,278.0469 80.3594,278.0469 Q81.2969,278.0469 81.9531,277.7969 Q82.3438,277.6406 82.7656,277.2031 Q83.0313,276.9375 83.1719,276.8594 Q83.3281,276.7813 83.5313,276.7813 Q83.8594,276.7813 84.1094,277.0469 Q84.375,277.2969 84.375,277.6406 Q84.375,277.9844 84.0313,278.3906 Q83.5313,278.9688 82.7344,279.2969 Q81.6563,279.75 80.3594,279.75 Q78.8438,279.75 77.6406,279.125 Q76.6563,278.625 75.9688,277.5625 Q75.2813,276.4844 75.2813,275.2031 L75.2813,274.0469 Q75.2813,272.7188 75.8906,271.5781 Q76.5156,270.4219 77.6094,269.8125 Q78.7031,269.1875 79.9375,269.1875 Q80.6719,269.1875 81.3125,269.3594 Q81.9688,269.5156 82.5156,269.875 Z " fill="#000000"/>
            <text fill="#000000" font-family="sans-serif" font-size="14" lengthAdjust="spacing" textLength="58" x="100.25" y="279.7285">Mamifero</text>
            <line style="stroke:#181818;stroke-width:0.5;" x1="14.5" x2="211.5" y1="290" y2="290"/>
            <line style="stroke:#181818;stroke-width:0.5;" x1="14.5" x2="211.5" y1="298" y2="298"/>
            <ellipse cx="24.5" cy="312.3047" fill="#84BE84" rx="3" ry="3" style="stroke:#038048;stroke-width:1.0;"/>
            <text fill="#000000" font-family="sans-serif" font-size="14" lengthAdjust="spacing" textLength="68" x="33.5" y="316.5332">Mamifero()</text>
            <ellipse cx="24.5" cy="329.9141" fill="#84BE84" rx="3" ry="3" style="stroke:#038048;stroke-width:1.0;"/>
            <text fill="#000000" font-family="sans-serif" font-size="14" lengthAdjust="spacing" textLength="103" x="33.5" y="334.1426">tienePelo(): void</text>
            <ellipse cx="24.5" cy="347.5234" fill="#84BE84" rx="3" ry="3" style="stroke:#038048;stroke-width:1.0;"/>
            <text fill="#000000" font-family="sans-serif" font-size="14" lengthAdjust="spacing" textLength="173" x="33.5" y="351.752">tieneSangreCaliente(): void</text>
        </g>
        <!--class Reptil-->
        <g id="elem_Reptil">
            <rect codeLine="13" fill="#F1F1F1" height="83.2188" id="Reptil" rx="2.5" ry="2.5" style="stroke:#181818;stroke-width:0.5;" width="172" x="248" y="267"/>
            <ellipse cx="311.75" cy="283" fill="#ADD1B2" rx="11" ry="11" style="stroke:#181818;stroke-width:1.0;"/>
            <path d="M314.5156,278.875 Q314.6719,278.6563 314.8594,278.5469 Q315.0469,278.4375 315.2656,278.4375 Q315.6406,278.4375 315.875,278.7031 Q316.1094,278.9531 316.1094,279.5625 L316.1094,281.0156 Q316.1094,281.625 315.875,281.8906 Q315.6406,282.1563 315.2656,282.1563 Q314.9219,282.1563 314.7188,281.9531 Q314.5156,281.7656 314.4063,281.25 Q314.3594,280.8906 314.1719,280.7031 Q313.8438,280.3281 313.2344,280.1094 Q312.625,279.8906 312,279.8906 Q311.2344,279.8906 310.5938,280.2188 Q309.9688,280.5469 309.4688,281.2969 Q308.9844,282.0469 308.9844,283.0781 L308.9844,284.1719 Q308.9844,285.4063 309.875,286.2344 Q310.7656,287.0469 312.3594,287.0469 Q313.2969,287.0469 313.9531,286.7969 Q314.3438,286.6406 314.7656,286.2031 Q315.0313,285.9375 315.1719,285.8594 Q315.3281,285.7813 315.5313,285.7813 Q315.8594,285.7813 316.1094,286.0469 Q316.375,286.2969 316.375,286.6406 Q316.375,286.9844 316.0313,287.3906 Q315.5313,287.9688 314.7344,288.2969 Q313.6563,288.75 312.3594,288.75 Q310.8438,288.75 309.6406,288.125 Q308.6563,287.625 307.9688,286.5625 Q307.2813,285.4844 307.2813,284.2031 L307.2813,283.0469 Q307.2813,281.7188 307.8906,280.5781 Q308.5156,279.4219 309.6094,278.8125 Q310.7031,278.1875 311.9375,278.1875 Q312.6719,278.1875 313.3125,278.3594 Q313.9688,278.5156 314.5156,278.875 Z " fill="#000000"/>
            <text fill="#000000" font-family="sans-serif" font-size="14" lengthAdjust="spacing" textLength="36" x="332.25" y="288.7285">Reptil</text>
            <line style="stroke:#181818;stroke-width:0.5;" x1="249" x2="419" y1="299" y2="299"/>
            <line style="stroke:#181818;stroke-width:0.5;" x1="249" x2="419" y1="307" y2="307"/>
            <ellipse cx="259" cy="321.3047" fill="#84BE84" rx="3" ry="3" style="stroke:#038048;stroke-width:1.0;"/>
            <text fill="#000000" font-family="sans-serif" font-size="14" lengthAdjust="spacing" textLength="46" x="268" y="325.5332">Reptil()</text>
            <ellipse cx="259" cy="338.9141" fill="#84BE84" rx="3" ry="3" style="stroke:#038048;stroke-width:1.0;"/>
            <text fill="#000000" font-family="sans-serif" font-size="14" lengthAdjust="spacing" textLength="146" x="268" y="343.1426">tieneSangreFria(): void</text>
        </g>
        <!--class GatoDomestico-->
        <g id="elem_GatoDomestico">
            <rect codeLine="18" fill="#F1F1F1" height="100.8281" id="GatoDomestico" rx="2.5" ry="2.5" style="stroke:#181818;stroke-width:0.5;" width="212" x="7" y="419"/>
            <ellipse cx="60.25" cy="435" fill="#ADD1B2" rx="11" ry="11" style="stroke:#181818;stroke-width:1.0;"/>
            <path d="M63.0156,430.875 Q63.1719,430.6563 63.3594,430.5469 Q63.5469,430.4375 63.7656,430.4375 Q64.1406,430.4375 64.375,430.7031 Q64.6094,430.9531 64.6094,431.5625 L64.6094,433.0156 Q64.6094,433.625 64.375,433.8906 Q64.1406,434.1563 63.7656,434.1563 Q63.4219,434.1563 63.2188,433.9531 Q63.0156,433.7656 62.9063,433.25 Q62.8594,432.8906 62.6719,432.7031 Q62.3438,432.3281 61.7344,432.1094 Q61.125,431.8906 60.5,431.8906 Q59.7344,431.8906 59.0938,432.2188 Q58.4688,432.5469 57.9688,433.2969 Q57.4844,434.0469 57.4844,435.0781 L57.4844,436.1719 Q57.4844,437.4063 58.375,438.2344 Q59.2656,439.0469 60.8594,439.0469 Q61.7969,439.0469 62.4531,438.7969 Q62.8438,438.6406 63.2656,438.2031 Q63.5313,437.9375 63.6719,437.8594 Q63.8281,437.7813 64.0313,437.7813 Q64.3594,437.7813 64.6094,438.0469 Q64.875,438.2969 64.875,438.6406 Q64.875,438.9844 64.5313,439.3906 Q64.0313,439.9688 63.2344,440.2969 Q62.1563,440.75 60.8594,440.75 Q59.3438,440.75 58.1406,440.125 Q57.1563,439.625 56.4688,438.5625 Q55.7813,437.4844 55.7813,436.2031 L55.7813,435.0469 Q55.7813,433.7188 56.3906,432.5781 Q57.0156,431.4219 58.1094,430.8125 Q59.2031,430.1875 60.4375,430.1875 Q61.1719,430.1875 61.8125,430.3594 Q62.4688,430.5156 63.0156,430.875 Z " fill="#000000"/>
            <text fill="#000000" font-family="sans-serif" font-size="14" lengthAdjust="spacing" textLength="97" x="80.75" y="440.7285">GatoDomestico</text>
            <line style="stroke:#181818;stroke-width:0.5;" x1="8" x2="218" y1="451" y2="451"/>
            <line style="stroke:#181818;stroke-width:0.5;" x1="8" x2="218" y1="459" y2="459"/>
            <ellipse cx="18" cy="473.3047" fill="#84BE84" rx="3" ry="3" style="stroke:#038048;stroke-width:1.0;"/>
            <text fill="#000000" font-family="sans-serif" font-size="14" lengthAdjust="spacing" textLength="107" x="27" y="477.5332">GatoDomestico()</text>
            <ellipse cx="18" cy="490.9141" fill="#84BE84" rx="3" ry="3" style="stroke:#038048;stroke-width:1.0;"/>
            <text fill="#000000" font-family="sans-serif" font-size="14" lengthAdjust="spacing" textLength="112" x="27" y="495.1426">esMascota(): void</text>
            <ellipse cx="18" cy="508.5234" fill="#84BE84" rx="3" ry="3" style="stroke:#038048;stroke-width:1.0;"/>
            <text fill="#000000" font-family="sans-serif" font-size="14" lengthAdjust="spacing" textLength="186" x="27" y="512.752">tieneGarrasRetractiles(): void</text>
        </g>
        <!--class Serpiente-->
        <g id="elem_Serpiente">
            <rect codeLine="24" fill="#F1F1F1" height="83.2188" id="Serpiente" rx="2.5" ry="2.5" style="stroke:#181818;stroke-width:0.5;" width="136" x="266" y="428"/>
            <ellipse cx="300.35" cy="444" fill="#ADD1B2" rx="11" ry="11" style="stroke:#181818;stroke-width:1.0;"/>
            <path d="M303.1156,439.875 Q303.2719,439.6563 303.4594,439.5469 Q303.6469,439.4375 303.8656,439.4375 Q304.2406,439.4375 304.475,439.7031 Q304.7094,439.9531 304.7094,440.5625 L304.7094,442.0156 Q304.7094,442.625 304.475,442.8906 Q304.2406,443.1563 303.8656,443.1563 Q303.5219,443.1563 303.3188,442.9531 Q303.1156,442.7656 303.0063,442.25 Q302.9594,441.8906 302.7719,441.7031 Q302.4438,441.3281 301.8344,441.1094 Q301.225,440.8906 300.6,440.8906 Q299.8344,440.8906 299.1938,441.2188 Q298.5688,441.5469 298.0688,442.2969 Q297.5844,443.0469 297.5844,444.0781 L297.5844,445.1719 Q297.5844,446.4063 298.475,447.2344 Q299.3656,448.0469 300.9594,448.0469 Q301.8969,448.0469 302.5531,447.7969 Q302.9438,447.6406 303.3656,447.2031 Q303.6313,446.9375 303.7719,446.8594 Q303.9281,446.7813 304.1313,446.7813 Q304.4594,446.7813 304.7094,447.0469 Q304.975,447.2969 304.975,447.6406 Q304.975,447.9844 304.6313,448.3906 Q304.1313,448.9688 303.3344,449.2969 Q302.2563,449.75 300.9594,449.75 Q299.4438,449.75 298.2406,449.125 Q297.2563,448.625 296.5688,447.5625 Q295.8813,446.4844 295.8813,445.2031 L295.8813,444.0469 Q295.8813,442.7188 296.4906,441.5781 Q297.1156,440.4219 298.2094,439.8125 Q299.3031,439.1875 300.5375,439.1875 Q301.2719,439.1875 301.9125,439.3594 Q302.5688,439.5156 303.1156,439.875 Z " fill="#000000"/>
            <text fill="#000000" font-family="sans-serif" font-size="14" lengthAdjust="spacing" textLength="61" x="318.65" y="449.7285">Serpiente</text>
            <line style="stroke:#181818;stroke-width:0.5;" x1="267" x2="401" y1="460" y2="460"/>
            <line style="stroke:#181818;stroke-width:0.5;" x1="267" x2="401" y1="468" y2="468"/>
            <ellipse cx="277" cy="482.3047" fill="#84BE84" rx="3" ry="3" style="stroke:#038048;stroke-width:1.0;"/>
            <text fill="#000000" font-family="sans-serif" font-size="14" lengthAdjust="spacing" textLength="71" x="286" y="486.5332">Serpiente()</text>
            <ellipse cx="277" cy="499.9141" fill="#84BE84" rx="3" ry="3" style="stroke:#038048;stroke-width:1.0;"/>
            <text fill="#000000" font-family="sans-serif" font-size="14" lengthAdjust="spacing" textLength="110" x="286" y="504.1426">seArrastra(): void</text>
        </g>
        <!--reverse link Animal to Mamifero-->
        <g id="link_Animal_Mamifero">
            <path d="M170.8265,209.9184 C155.5665,228.9684 150.14,237.77 136.8,257.82 " fill="none" id="Animal-backto-Mamifero" style="stroke:#181818;stroke-width:1.0;"/>
            <polygon fill="none" points="182.08,195.87,166.1437,206.1673,175.5093,213.6696,182.08,195.87" style="stroke:#181818;stroke-width:1.0;"/>
        </g>
        <!--reverse link Animal to Mamifero-->
        <g id="link_Animal_Mamifero">
            <path codeLine="29" d="M195.9664,211.0497 C183.8264,230.0997 177.23,237.77 161.58,257.82 " fill="none" id="Animal-backto-Mamifero-1" style="stroke:#181818;stroke-width:1.0;"/>
            <polygon fill="none" points="205.64,195.87,190.9066,207.8252,201.0263,214.2742,205.64,195.87" style="stroke:#181818;stroke-width:1.0;"/>
        </g>
        <!--reverse link Animal to Reptil-->
        <g id="link_Animal_Reptil">
            <path d="M251.095,210.9716 C265.345,232.9416 275.21,244.84 292.93,266.78 " fill="none" id="Animal-backto-Reptil" style="stroke:#181818;stroke-width:1.0;"/>
            <polygon fill="none" points="241.3,195.87,246.0612,214.2366,256.1289,207.7065,241.3,195.87" style="stroke:#181818;stroke-width:1.0;"/>
        </g>
        <!--reverse link Animal to Reptil-->
        <g id="link_Animal_Reptil">
            <path codeLine="30" d="M276.2066,209.8434 C294.0466,231.8134 302.35,244.84 316.47,266.78 " fill="none" id="Animal-backto-Reptil-1" style="stroke:#181818;stroke-width:1.0;"/>
            <polygon fill="none" points="264.86,195.87,271.5488,213.6256,280.8644,206.0612,264.86,195.87" style="stroke:#181818;stroke-width:1.0;"/>
        </g>
        <!--reverse link Mamifero to GatoDomestico-->
        <g id="link_Mamifero_GatoDomestico">
            <path d="M100.0269,377.3398 C98.9269,396.2898 99.98,399.88 101.08,418.8 " fill="none" id="Mamifero-backto-GatoDomestico" style="stroke:#181818;stroke-width:1.0;"/>
            <polygon fill="none" points="101.07,359.37,94.037,376.9921,106.0168,377.6875,101.07,359.37" style="stroke:#181818;stroke-width:1.0;"/>
        </g>
        <!--reverse link Mamifero to GatoDomestico-->
        <g id="link_Mamifero_GatoDomestico">
            <path codeLine="31" d="M126.7298,377.3364 C127.8898,396.2864 126.79,399.88 125.62,418.8 " fill="none" id="Mamifero-backto-GatoDomestico-1" style="stroke:#181818;stroke-width:1.0;"/>
            <polygon fill="none" points="125.63,359.37,120.741,377.703,132.7186,376.9698,125.63,359.37" style="stroke:#181818;stroke-width:1.0;"/>
        </g>
        <!--reverse link Reptil to Serpiente-->
        <g id="link_Reptil_Serpiente">
            <path d="M321.2445,367.9694 C319.2845,391.7994 320.76,403.9 322.71,427.76 " fill="none" id="Reptil-backto-Serpiente" style="stroke:#181818;stroke-width:1.0;"/>
            <polygon fill="none" points="322.72,350.03,315.2647,367.4776,327.2243,368.4613,322.72,350.03" style="stroke:#181818;stroke-width:1.0;"/>
        </g>
        <!--reverse link Reptil to Serpiente-->
        <g id="link_Reptil_Serpiente">
            <path codeLine="32" d="M347.4977,367.9625 C349.5677,391.7925 348.02,403.9 345.96,427.76 " fill="none" id="Reptil-backto-Serpiente-1" style="stroke:#181818;stroke-width:1.0;"/>
            <polygon fill="none" points="345.94,350.03,341.5202,368.4817,353.4752,367.4432,345.94,350.03" style="stroke:#181818;stroke-width:1.0;"/>
        </g>
        <!--SRC=[TOzDImCn48Rl-HLxR94kg3VnigWj1PSjk-2r3Ecq3EIB99GMzRyRDzciwseEWPb9dcTUBi2vWcjPocku3QXhYMUusz_UxuqM9BKzafEwV7ch-kQkUTtMJRlUTdN3UF-xKYH15E-i2EScLejbh2mwGnQQ2vrGwSNoeJXhEh1FblxM8Ec8LXTuyQWEls73UC1vGeKx52DfR7UWJXQVG8J2urpLel4a_X75uKGJUMjBC6TjmEjdBT5vukFkEKo2JbuDR7GrEAuz_15X0zQ2Qz5Ru64TT7DpXzRq0RCrvKhEF1zy3gjlQ43-XANqZn-hLLvxqenKbYFrpKaWbiJz96k_0000]-->
    </g>
</svg>
